v 0.000000 0.030500 0.021500
v 0.002990 0.030353 0.021500
v 0.011672 0.028178 0.021500
v 0.014378 0.026899 0.021500
v 0.016945 0.025360 0.021500
v 0.019349 0.023577 0.021500
v 0.023577 0.019349 0.021500
v 0.025360 0.016945 0.021500
v 0.029187 0.008854 0.021500
v 0.028178 0.011672 0.021500
v 0.029914 0.005950 0.021500
v 0.030353 0.002990 0.021500
v 0.021567 0.021567 0.021500
v 0.030500 -0.000000 0.021500
v 0.030353 -0.002990 0.021500
v 0.029914 -0.005950 0.021500
v 0.028178 -0.011672 0.021500
v 0.026899 -0.014378 0.021500
v 0.023577 -0.019349 0.021500
v 0.005950 -0.029914 0.021500
v 0.023098 0.043214 0.015000
v 0.014514 0.047847 0.014000
v 0.009755 0.049039 0.014000
v 0.031085 0.037878 0.015000
v 0.018751 0.045270 0.015000
v 0.031720 0.038651 0.014000
v 0.023570 0.044096 0.014000
v 0.041573 0.027779 0.014000
v 0.037878 0.031085 0.015000
v 0.040742 0.027223 0.015000
v 0.043214 0.023098 0.015000
v 0.045270 0.018751 0.015000
v 0.049759 0.004901 0.014000
v 0.049039 0.009755 0.014000
v 0.050000 0.000000 0.014000
v 0.038651 0.031720 0.014000
v 0.004901 0.049759 0.014000
v 0.000000 0.050000 0.014000
v 0.047847 -0.014514 0.014000
v 0.041573 -0.027779 0.014000
v 0.037878 -0.031085 0.015000
v 0.034648 -0.034648 0.015000
v 0.044096 -0.023570 0.014000
v 0.031085 -0.037878 0.015000
v 0.027223 -0.040742 0.015000
v 0.023570 -0.044096 0.014000
v 0.023098 -0.043214 0.015000
v 0.018751 -0.045270 0.015000
v 0.014224 -0.046890 0.015000
v 0.019134 -0.046194 0.014000
v 0.009559 -0.048058 0.015000
v 0.004803 -0.048764 0.015000
v 0.009755 -0.049039 0.014000
v 0.000000 -0.050000 0.014000
v 0.000000 -0.049000 0.015000
v 0.035355 -0.035355 0.014000
v 0.046194 -0.019134 0.014000
v 0.027779 -0.041573 0.014000
v 0.009755 -0.049039 0.006000
v 0.004803 -0.048764 0.005000
v 0.009559 -0.048058 0.005000
v 0.014514 -0.047847 0.006000
v 0.018751 -0.045270 0.005000
v 0.023098 -0.043214 0.005000
v 0.037878 -0.031085 0.005000
v 0.041573 -0.027779 0.006000
v 0.044096 -0.023570 0.006000
v 0.043214 -0.023098 0.005000
v 0.046890 -0.014224 0.005000
v 0.048058 -0.009559 0.005000
v 0.049039 -0.009755 0.006000
v 0.048764 -0.004803 0.005000
v 0.050000 -0.000000 0.006000
v 0.038651 -0.031720 0.006000
v 0.046194 -0.019134 0.006000
v 0.000000 -0.049000 0.005000
v 0.000000 -0.050000 0.006000
v 0.019134 -0.046194 0.006000
v 0.031720 -0.038651 0.006000
v 0.049039 0.009755 0.006000
v 0.048764 0.004803 0.005000
v 0.048058 0.009559 0.005000
v 0.045270 0.018751 0.005000
v 0.047847 0.014514 0.006000
v 0.040742 0.027223 0.005000
v 0.046194 0.019134 0.006000
v 0.038651 0.031720 0.006000
v 0.034648 0.034648 0.005000
v 0.035355 0.035355 0.006000
v 0.027779 0.041573 0.006000
v 0.027223 0.040742 0.005000
v 0.023570 0.044096 0.006000
v 0.009559 0.048058 0.005000
v 0.009755 0.049039 0.006000
v 0.014224 0.046890 0.005000
v 0.014514 0.047847 0.006000
v 0.018751 0.045270 0.005000
v 0.004901 0.049759 0.006000
v 0.004803 0.048764 0.005000
v 0.000000 0.050000 0.006000
v 0.000000 0.049000 0.005000
v 0.031720 0.038651 0.006000
v 0.019134 0.046194 0.006000
v 0.049759 0.004901 0.006000
v 0.041573 0.027779 0.006000
v 0.000000 -0.024000 0.000000
v 0.002352 -0.023884 0.000000
v 0.004682 -0.023539 0.000000
v 0.006967 -0.022967 0.000000
v 0.009184 -0.022173 0.000000
v 0.011314 -0.021166 0.000000
v 0.013334 -0.019955 0.000000
v 0.016971 -0.016971 0.000000
v 0.018552 -0.015225 0.000000
v 0.019955 -0.013334 0.000000
v 0.022967 -0.006967 0.000000
v 0.024000 -0.000000 0.000000
v 0.019955 0.013334 0.000000
v 0.021166 0.011314 0.000000
v 0.022173 0.009184 0.000000
v 0.022967 0.006967 0.000000
v 0.016971 0.016971 0.000000
v 0.011314 0.021166 0.000000
v 0.009184 0.022173 0.000000
v 0.013334 0.019955 0.000000
v 0.004682 0.023539 0.000000
v 0.002352 0.023884 0.000000
v 0.015225 0.018552 0.000000
v 0.019134 0.046194 0.014000
v 0.027779 0.041573 0.014000
v 0.035355 0.035355 0.014000
v 0.044096 0.023570 0.014000
v 0.046194 0.019134 0.014000
v 0.047847 0.014514 0.014000
v 0.044096 0.023570 0.006000
v 0.049759 -0.004901 0.014000
v 0.049039 -0.009755 0.014000
v 0.049759 -0.004901 0.006000
v 0.047847 -0.014514 0.006000
v 0.038651 -0.031720 0.014000
v 0.035355 -0.035355 0.006000
v 0.031720 -0.038651 0.014000
v 0.027779 -0.041573 0.006000
v 0.014514 -0.047847 0.014000
v 0.004901 -0.049759 0.014000
v 0.023570 -0.044096 0.006000
v 0.004901 -0.049759 0.006000
v -0.021567 0.021567 0.021500
v -0.016945 0.025360 0.021500
v -0.014378 0.026899 0.021500
v -0.011672 0.028178 0.021500
v -0.026899 0.014378 0.021500
v -0.028178 0.011672 0.021500
v -0.029914 0.005950 0.021500
v 0.005950 0.029914 0.021500
v 0.008854 0.029187 0.021500
v 0.026899 0.014378 0.021500
v -0.030353 0.002990 0.021500
v -0.030500 0.000000 0.021500
v -0.028178 -0.011672 0.021500
v -0.029187 -0.008854 0.021500
v -0.025360 -0.016945 0.021500
v -0.021567 -0.021567 0.021500
v -0.019349 -0.023577 0.021500
v -0.014378 -0.026899 0.021500
v -0.016945 -0.025360 0.021500
v -0.005950 -0.029914 0.021500
v -0.002990 -0.030353 0.021500
v 0.000000 -0.030500 0.021500
v 0.029187 -0.008854 0.021500
v 0.008854 -0.029187 0.021500
v 0.002990 -0.030353 0.021500
v 0.011672 -0.028178 0.021500
v 0.014378 -0.026899 0.021500
v 0.025360 -0.016945 0.021500
v 0.021567 -0.021567 0.021500
v 0.016945 -0.025360 0.021500
v 0.019349 -0.023577 0.021500
v -0.004901 -0.049759 0.014000
v -0.009755 -0.049039 0.006000
v -0.004901 -0.049759 0.006000
v -0.014514 -0.047847 0.014000
v -0.019134 -0.046194 0.014000
v -0.019134 -0.046194 0.006000
v -0.023570 -0.044096 0.014000
v -0.023570 -0.044096 0.006000
v -0.014514 -0.047847 0.006000
v -0.035355 -0.035355 0.014000
v -0.035355 -0.035355 0.006000
v -0.041573 -0.027779 0.006000
v -0.038651 -0.031720 0.006000
v -0.044096 -0.023570 0.014000
v -0.046194 -0.019134 0.006000
v -0.049039 -0.009755 0.006000
v -0.047847 -0.014514 0.006000
v -0.044096 -0.023570 0.006000
v -0.031720 -0.038651 0.006000
v -0.027779 -0.041573 0.006000
v -0.049759 -0.004901 0.014000
v -0.004901 0.049759 0.006000
v -0.050000 -0.000000 0.014000
v -0.049759 0.004901 0.014000
v -0.049759 0.004901 0.006000
v -0.049039 0.009755 0.014000
v -0.047847 0.014514 0.014000
v -0.049039 0.009755 0.006000
v -0.046194 0.019134 0.014000
v -0.044096 0.023570 0.006000
v -0.041573 0.027779 0.014000
v -0.046194 0.019134 0.006000
v -0.035355 0.035355 0.014000
v -0.023570 0.044096 0.014000
v -0.023570 0.044096 0.006000
v -0.019134 0.046194 0.006000
v -0.009755 0.049039 0.014000
v -0.004901 0.049759 0.014000
v -0.009755 0.049039 0.006000
v -0.038651 0.031720 0.006000
v -0.050000 0.000000 0.006000
v -0.027779 0.041573 0.006000
v -0.014514 0.047847 0.006000
v -0.027223 0.040742 0.005000
v -0.014224 0.046890 0.005000
v -0.031085 0.037878 0.005000
v -0.034648 0.034648 0.005000
v -0.009559 0.048058 0.005000
v -0.004803 0.048764 0.005000
v -0.040742 0.027223 0.005000
v -0.046890 0.014224 0.005000
v -0.037878 0.031085 0.005000
v -0.048764 0.004803 0.005000
v 0.023098 0.043214 0.005000
v 0.031085 0.037878 0.005000
v 0.043214 0.023098 0.005000
v 0.037878 0.031085 0.005000
v 0.046890 0.014224 0.005000
v -0.049000 -0.000000 0.005000
v -0.048764 -0.004803 0.005000
v -0.045270 -0.018751 0.005000
v -0.040742 -0.027223 0.005000
v -0.037878 -0.031085 0.005000
v -0.034648 -0.034648 0.005000
v -0.027223 -0.040742 0.005000
v -0.004803 -0.048764 0.005000
v -0.014224 -0.046890 0.005000
v -0.009559 -0.048058 0.005000
v 0.045270 -0.018751 0.005000
v 0.040742 -0.027223 0.005000
v 0.049000 0.000000 0.005000
v 0.014224 -0.046890 0.005000
v 0.034648 -0.034648 0.005000
v 0.031085 -0.037878 0.005000
v 0.027223 -0.040742 0.005000
v -0.009184 -0.022173 0.000000
v -0.015225 -0.018552 0.000000
v -0.002352 -0.023884 0.000000
v -0.004682 -0.023539 0.000000
v -0.022173 -0.009184 0.000000
v -0.023539 -0.004682 0.000000
v 0.015225 -0.018552 0.000000
v 0.022173 -0.009184 0.000000
v 0.021166 -0.011314 0.000000
v 0.023884 -0.002352 0.000000
v 0.023539 -0.004682 0.000000
v -0.022173 0.009184 0.000000
v -0.016971 0.016971 0.000000
v -0.011314 0.021166 0.000000
v -0.013334 0.019955 0.000000
v -0.009184 0.022173 0.000000
v -0.002352 0.023884 0.000000
v 0.000000 0.024000 0.000000
v 0.023539 0.004682 0.000000
v 0.018552 0.015225 0.000000
v 0.023884 0.002352 0.000000
v 0.006967 0.022967 0.000000
v -0.004682 0.023539 0.000000
v -0.006967 0.022967 0.000000
v -0.018552 0.015225 0.000000
v -0.019955 0.013334 0.000000
v -0.022967 0.006967 0.000000
v -0.021166 0.011314 0.000000
v -0.015225 0.018552 0.000000
v -0.023539 0.004682 0.000000
v -0.023884 0.002352 0.000000
v -0.022967 -0.006967 0.000000
v -0.023884 -0.002352 0.000000
v -0.021166 -0.011314 0.000000
v -0.019955 -0.013334 0.000000
v -0.018552 -0.015225 0.000000
v -0.024000 -0.000000 0.000000
v -0.016971 -0.016971 0.000000
v -0.011314 -0.021166 0.000000
v -0.013334 -0.019955 0.000000
v -0.006967 -0.022967 0.000000
v -0.018751 0.045270 0.005000
v -0.023098 0.043214 0.005000
v -0.035355 0.035355 0.006000
v -0.041573 0.027779 0.006000
v -0.045270 0.018751 0.005000
v -0.043214 0.023098 0.005000
v -0.048058 0.009559 0.005000
v -0.031720 0.038651 0.006000
v -0.047847 0.014514 0.006000
v -0.043214 -0.023098 0.005000
v -0.048058 -0.009559 0.005000
v -0.046890 -0.014224 0.005000
v -0.031085 -0.037878 0.005000
v -0.023098 -0.043214 0.005000
v -0.018751 -0.045270 0.005000
v -0.049759 -0.004901 0.006000
v -0.023098 0.043214 0.015000
v -0.027223 0.040742 0.015000
v -0.018751 0.045270 0.015000
v -0.031085 0.037878 0.015000
v -0.034648 0.034648 0.015000
v -0.009559 0.048058 0.015000
v -0.004803 0.048764 0.015000
v -0.045270 0.018751 0.015000
v -0.043214 0.023098 0.015000
v -0.046890 0.014224 0.015000
v -0.048058 0.009559 0.015000
v -0.048764 0.004803 0.015000
v -0.049000 0.000000 0.015000
v 0.009559 0.048058 0.015000
v 0.004803 0.048764 0.015000
v 0.014224 0.046890 0.015000
v 0.027223 0.040742 0.015000
v 0.034648 0.034648 0.015000
v 0.046890 0.014224 0.015000
v 0.048058 0.009559 0.015000
v 0.048764 0.004803 0.015000
v 0.049000 -0.000000 0.015000
v -0.048764 -0.004803 0.015000
v -0.048058 -0.009559 0.015000
v -0.045270 -0.018751 0.015000
v -0.043214 -0.023098 0.015000
v -0.040742 -0.027223 0.015000
v -0.037878 -0.031085 0.015000
v -0.034648 -0.034648 0.015000
v -0.027223 -0.040742 0.015000
v -0.023098 -0.043214 0.015000
v -0.009559 -0.048058 0.015000
v 0.040742 -0.027223 0.015000
v 0.043214 -0.023098 0.015000
v 0.048764 -0.004803 0.015000
v 0.048058 -0.009559 0.015000
v 0.045270 -0.018751 0.015000
v 0.046890 -0.014224 0.015000
v -0.004803 -0.048764 0.015000
v -0.009755 -0.049039 0.014000
v -0.014224 -0.046890 0.015000
v -0.018751 -0.045270 0.015000
v -0.027779 -0.041573 0.014000
v -0.038651 -0.031720 0.014000
v -0.046890 -0.014224 0.015000
v -0.047847 -0.014514 0.014000
v -0.049039 -0.009755 0.014000
v -0.031085 -0.037878 0.015000
v -0.031720 -0.038651 0.014000
v -0.041573 -0.027779 0.014000
v -0.046194 -0.019134 0.014000
v 0.000000 0.049000 0.015000
v -0.040742 0.027223 0.015000
v -0.037878 0.031085 0.015000
v -0.038651 0.031720 0.014000
v -0.031720 0.038651 0.014000
v -0.014514 0.047847 0.014000
v -0.014224 0.046890 0.015000
v -0.019134 0.046194 0.014000
v -0.027779 0.041573 0.014000
v -0.044096 0.023570 0.014000
v -0.008854 -0.029187 0.021500
v -0.011672 -0.028178 0.021500
v -0.023577 -0.019349 0.021500
v -0.026899 -0.014378 0.021500
v -0.029914 -0.005950 0.021500
v -0.030353 -0.002990 0.021500
v -0.002990 0.030353 0.021500
v -0.025360 0.016945 0.021500
v -0.029187 0.008854 0.021500
v -0.023577 0.019349 0.021500
v -0.019349 0.023577 0.021500
v -0.008854 0.029187 0.021500
v -0.005950 0.029914 0.021500
f 36 28 29
f 69 75 139
f 3 21 4
f 241 191 190
f 238 219 237
f 231 219 237
f 230 218 298
f 68 66 67
f 68 75 67
f 147 59 60
f 147 77 60
f 74 66 65
f 74 141 65
f 250 62 59
f 250 63 78
f 250 62 78
f 189 241 242
f 189 241 191
f 289 241 242
f 304 196 190
f 304 239 193
f 304 196 193
f 310 238 194
f 310 238 219
f 306 195 194
f 306 195 193
f 306 239 193
f 204 321 322
f 297 230 225
f 297 230 218
f 224 297 225
f 203 231 206
f 203 231 219
f 229 303 206
f 229 299 210
f 229 303 210
f 229 299 265
f 300 208 298
f 300 299 210
f 300 208 210
f 300 299 265
f 99 100 101
f 99 100 98
f 99 93 127
f 94 99 98
f 94 99 93
f 232 91 123
f 370 312 314
f 7 13 29
f 30 28 29
f 30 31 28
f 30 7 8
f 30 7 29
f 157 31 10
f 157 30 8
f 157 30 31
f 235 87 105
f 235 88 89
f 235 87 89
f 32 133 329
f 32 133 31
f 32 329 10
f 32 31 10
f 135 234 86
f 135 234 105
f 104 73 81
f 104 80 81
f 82 80 81
f 82 80 236
f 84 236 86
f 84 80 236
f 129 27 21
f 24 6 13
f 130 27 21
f 130 24 26
f 355 356 361
f 355 335 361
f 355 357 356
f 355 357 334
f 358 163 339
f 358 359 353
f 358 353 340
f 358 359 188
f 358 339 188
f 162 337 375
f 338 163 339
f 338 354 360
f 338 360 337
f 338 354 188
f 338 339 188
f 263 72 117
f 249 117 81
f 249 72 117
f 249 73 81
f 249 72 73
f 138 72 73
f 71 69 139
f 71 138 72
f 247 69 75
f 247 68 75
f 106 107 60
f 61 250 109
f 61 107 60
f 61 59 60
f 61 250 59
f 252 143 79
f 252 141 79
f 64 146 143
f 64 146 78
f 64 63 78
f 308 309 254
f 308 198 186
f 308 243 198
f 184 308 186
f 184 308 309
f 257 246 256
f 245 309 254
f 245 184 309
f 245 246 180
f 244 246 256
f 244 106 256
f 244 77 181
f 244 180 181
f 244 246 180
f 311 313 151
f 311 369 212
f 311 369 313
f 311 370 212
f 311 370 312
f 368 313 151
f 368 384 316
f 368 369 313
f 368 316 215
f 326 23 22
f 326 129 22
f 240 241 190
f 240 304 190
f 240 289 241
f 258 304 239
f 258 306 239
f 305 238 194
f 305 306 194
f 320 318 153
f 320 207 205
f 320 207 318
f 320 204 205
f 320 204 321
f 376 355 334
f 333 376 334
f 333 199 201
f 333 199 357
f 333 357 334
f 154 320 321
f 154 321 322
f 202 322 201
f 202 204 322
f 271 99 101
f 271 99 127
f 282 266 225
f 282 224 225
f 296 213 220
f 296 213 214
f 296 295 214
f 296 267 269
f 296 295 269
f 227 200 217
f 227 200 100
f 227 100 101
f 227 271 270
f 227 271 101
f 290 231 237
f 290 284 231
f 290 238 237
f 301 231 206
f 301 229 206
f 301 284 231
f 278 266 225
f 278 230 225
f 228 230 298
f 228 300 298
f 228 278 279
f 228 278 230
f 281 300 265
f 281 228 279
f 281 228 300
f 128 122 88
f 95 94 93
f 95 275 93
f 126 93 127
f 126 275 93
f 124 232 123
f 124 232 97
f 124 95 97
f 124 95 275
f 366 314 211
f 366 370 314
f 34 330 329
f 34 330 331
f 273 122 88
f 273 235 88
f 83 236 86
f 83 234 86
f 85 235 105
f 85 234 105
f 85 234 119
f 85 273 235
f 120 83 236
f 120 234 119
f 120 83 234
f 274 117 81
f 274 82 81
f 274 82 272
f 132 31 28
f 132 133 31
f 131 36 29
f 131 24 26
f 327 130 21
f 327 130 24
f 327 5 4
f 327 21 4
f 327 6 5
f 327 24 6
f 341 185 183
f 341 352 183
f 341 185 353
f 341 353 340
f 349 179 350
f 349 179 54
f 336 337 375
f 336 192 360
f 336 360 337
f 336 192 361
f 336 335 361
f 374 338 163
f 374 162 337
f 374 338 337
f 11 330 329
f 11 330 331
f 345 136 35
f 345 136 137
f 345 137 346
f 16 345 346
f 348 16 346
f 348 39 57
f 348 39 137
f 348 137 346
f 177 45 174
f 177 178 45
f 47 50 46
f 47 48 50
f 47 58 46
f 47 58 45
f 47 45 174
f 70 69 116
f 70 263 72
f 70 71 69
f 70 71 72
f 49 144 50
f 49 48 50
f 49 144 53
f 49 53 51
f 108 61 109
f 108 61 107
f 248 66 65
f 248 68 66
f 114 248 65
f 114 248 115
f 262 248 68
f 262 248 115
f 251 114 113
f 251 114 65
f 251 141 65
f 251 252 141
f 253 252 143
f 253 64 143
f 294 245 254
f 294 257 246
f 294 245 246
f 187 245 180
f 187 245 184
f 76 106 60
f 76 244 106
f 76 77 60
f 76 244 77
f 150 311 151
f 150 311 312
f 150 149 312
f 382 312 314
f 382 149 312
f 382 148 314
f 315 148 314
f 315 364 148
f 315 314 211
f 315 364 211
f 365 364 211
f 365 364 209
f 317 378 384
f 317 384 316
f 317 378 1
f 317 362 1
f 317 216 215
f 317 316 215
f 317 216 38
f 317 362 38
f 383 368 151
f 383 368 384
f 367 368 215
f 367 368 369
f 325 37 23
f 325 37 38
f 325 362 38
f 325 2 155
f 325 2 1
f 325 362 1
f 156 326 3
f 156 326 155
f 25 3 21
f 25 326 3
f 25 129 21
f 25 326 129
f 307 255 242
f 307 255 243
f 307 189 197
f 307 189 242
f 307 198 197
f 307 243 198
f 291 289 242
f 291 255 242
f 292 308 254
f 292 308 243
f 287 240 304
f 287 258 304
f 285 258 306
f 285 305 259
f 285 305 306
f 160 336 375
f 160 336 335
f 160 355 335
f 323 159 322
f 323 333 159
f 323 322 201
f 323 333 201
f 377 333 159
f 377 333 376
f 380 320 153
f 380 154 320
f 158 159 322
f 158 154 322
f 222 224 220
f 222 296 220
f 222 282 268
f 222 282 224
f 222 267 268
f 222 296 267
f 223 221 217
f 223 221 214
f 223 295 214
f 223 277 269
f 223 295 269
f 286 290 238
f 286 305 259
f 286 305 238
f 283 301 284
f 125 91 123
f 125 128 91
f 233 128 88
f 233 128 91
f 233 102 89
f 233 88 89
f 90 233 91
f 90 233 102
f 90 232 91
f 90 92 232
f 103 232 97
f 103 92 232
f 103 95 97
f 302 224 220
f 302 224 297
f 134 133 329
f 134 34 329
f 33 331 35
f 33 34 331
f 118 85 119
f 118 85 273
f 121 120 236
f 121 82 236
f 121 82 272
f 328 131 29
f 328 131 24
f 328 13 29
f 328 24 13
f 342 349 350
f 52 145 54
f 52 145 53
f 52 53 51
f 9 329 10
f 9 11 329
f 12 14 331
f 12 11 331
f 332 14 331
f 332 345 14
f 332 331 35
f 332 345 35
f 15 345 14
f 15 16 345
f 347 344 17
f 347 348 17
f 347 344 57
f 347 348 57
f 170 348 17
f 170 348 16
f 343 40 344
f 43 344 57
f 43 40 344
f 264 70 116
f 264 70 263
f 261 69 116
f 261 247 69
f 261 247 68
f 261 262 68
f 111 253 64
f 381 364 148
f 319 318 153
f 319 371 209
f 319 371 207
f 319 207 318
f 324 326 23
f 324 325 23
f 324 326 155
f 324 325 155
f 293 255 243
f 293 292 243
f 288 240 289
f 288 287 240
f 161 376 355
f 161 160 355
f 226 227 217
f 226 223 217
f 226 276 270
f 226 227 270
f 226 277 276
f 226 223 277
f 280 229 265
f 280 301 229
f 280 283 301
f 96 95 94
f 96 103 95
f 373 341 352
f 351 182 350
f 351 342 350
f 351 182 183
f 351 352 183
f 351 373 352
f 55 349 54
f 55 52 54
f 20 52 51
f 20 49 51
f 18 344 17
f 18 343 344
f 260 251 113
f 260 251 252
f 260 253 252
f 110 250 63
f 110 250 109
f 110 64 63
f 110 111 64
f 152 319 153
f 363 381 379
f 363 381 364
f 363 364 209
f 363 319 209
f 363 152 379
f 363 152 319
f 167 351 342
f 167 342 349
f 173 47 174
f 173 47 48
f 173 49 48
f 169 55 52
f 169 55 349
f 175 343 19
f 175 18 343
f 41 343 19
f 41 176 19
f 41 176 42
f 41 140 40
f 41 343 40
f 41 140 56
f 41 42 56
f 44 142 56
f 44 42 56
f 44 142 58
f 44 58 45
f 44 178 45
f 44 176 178
f 44 176 42
f 112 111 253
f 112 260 253
f 164 358 340
f 164 166 340
f 164 358 163
f 165 341 340
f 165 166 340
f 165 373 341
f 372 351 373
f 372 167 351
f 171 20 49
f 171 173 49
f 172 20 52
f 172 169 52
f 168 167 349
f 168 169 349
f 195 356 361
f 195 361 193
f 179 77 54
f 179 77 181
f 146 50 46
f 146 50 78
f 58 146 46
f 58 146 143
f 180 179 181
f 180 179 350
f 357 195 356
f 357 195 194
f 204 303 206
f 204 303 205
f 369 213 214
f 369 213 212
f 370 213 212
f 370 213 220
f 39 75 139
f 39 75 57
f 87 105 28
f 87 36 28
f 37 100 98
f 37 100 38
f 37 94 98
f 37 94 23
f 359 189 197
f 359 189 188
f 359 198 197
f 359 353 198
f 185 353 198
f 185 198 186
f 354 189 188
f 354 189 191
f 354 191 190
f 354 360 190
f 192 361 193
f 192 196 193
f 192 360 190
f 192 196 190
f 138 136 35
f 138 73 35
f 71 39 139
f 71 39 137
f 71 138 136
f 71 136 137
f 145 77 54
f 145 147 77
f 145 53 59
f 145 147 59
f 144 53 59
f 144 62 59
f 144 50 78
f 144 62 78
f 142 141 79
f 142 141 56
f 142 58 143
f 142 143 79
f 184 185 186
f 184 185 183
f 207 303 205
f 207 303 210
f 199 310 219
f 199 219 201
f 199 357 194
f 199 310 194
f 202 219 201
f 202 203 219
f 202 204 206
f 202 203 206
f 200 100 38
f 200 216 38
f 200 216 215
f 200 217 215
f 132 105 28
f 132 135 105
f 132 133 86
f 132 135 86
f 131 87 36
f 131 87 89
f 131 102 89
f 131 102 26
f 187 180 350
f 187 182 350
f 187 184 183
f 187 182 183
f 365 297 218
f 365 297 211
f 365 218 298
f 365 209 298
f 371 209 298
f 371 208 298
f 371 207 210
f 371 208 210
f 367 217 215
f 367 221 217
f 367 369 214
f 367 221 214
f 90 102 26
f 90 130 26
f 90 130 27
f 90 92 27
f 103 92 27
f 103 129 27
f 302 370 220
f 302 366 370
f 302 297 211
f 302 366 211
f 134 133 86
f 134 84 86
f 134 84 80
f 134 34 80
f 33 73 35
f 33 104 73
f 33 34 80
f 33 104 80
f 43 75 57
f 43 75 67
f 43 66 67
f 43 40 66
f 140 141 56
f 140 74 141
f 140 40 66
f 140 74 66
f 96 94 23
f 96 23 22
f 96 103 129
f 96 129 22
f 112 285 259
f 112 114 113
f 112 286 259
f 112 278 266
f 112 281 265
f 112 120 119
f 112 121 272
f 112 106 256
f 112 257 256
f 112 271 127
f 112 126 127
f 112 274 117
f 112 261 116
f 112 291 289
f 112 293 255
f 112 267 269
f 112 282 266
f 112 277 269
f 112 124 123
f 112 288 289
f 112 125 123
f 112 263 117
f 112 106 107
f 112 108 109
f 112 264 116
f 112 294 254
f 112 292 254
f 112 271 270
f 112 276 270
f 112 267 268
f 112 282 268
f 112 290 284
f 112 278 279
f 112 281 279
f 112 128 122
f 112 126 275
f 112 124 275
f 112 273 122
f 112 118 119
f 112 274 272
f 112 108 107
f 112 114 115
f 112 262 115
f 112 294 257
f 112 291 255
f 112 260 113
f 112 287 258
f 112 285 258
f 112 277 276
f 112 286 290
f 112 283 284
f 112 125 128
f 112 118 273
f 112 121 120
f 112 264 263
f 112 261 262
f 112 280 265
f 112 293 292
f 112 288 287
f 112 280 283
f 112 110 109
f 112 110 111
f 168 5 4
f 168 18 17
f 168 6 13
f 168 15 14
f 168 162 375
f 168 3 4
f 168 157 10
f 168 378 1
f 168 383 151
f 168 7 13
f 168 158 159
f 168 374 163
f 168 382 148
f 168 165 373
f 168 156 3
f 168 7 8
f 168 6 5
f 168 157 8
f 168 377 159
f 168 152 153
f 168 177 174
f 168 150 151
f 168 378 384
f 168 2 1
f 168 160 375
f 168 380 153
f 168 374 162
f 168 9 10
f 168 12 14
f 168 177 178
f 168 175 19
f 168 150 149
f 168 382 149
f 168 170 17
f 168 383 384
f 168 2 155
f 168 156 155
f 168 381 148
f 168 377 376
f 168 380 154
f 168 158 154
f 168 161 376
f 168 9 11
f 168 12 11
f 168 15 16
f 168 170 16
f 168 381 379
f 168 161 160
f 168 176 178
f 168 171 20
f 168 152 379
f 168 164 163
f 168 173 174
f 168 372 373
f 168 172 20
f 168 175 18
f 168 176 19
f 168 164 166
f 168 165 166
f 168 372 167
f 168 171 173
f 168 172 169
