v 0.070514 0.032574 0.183071
v -0.055900 0.032574 0.181657
v 0.070948 0.032574 0.001235
v 0.070514 0.032574 0.000586
v -0.055314 0.032574 0.000586
v 0.069100 0.032574 0.000000
v 0.069865 0.032574 0.000152
v -0.054665 0.032574 0.000152
v -0.055748 0.032574 0.001235
v 0.071100 0.030574 0.002000
v 0.071100 0.030574 0.181657
v 0.071100 0.034574 0.180000
v 0.071100 0.032574 0.181657
v 0.069100 0.030574 0.000000
v -0.053900 0.032574 0.000000
v -0.055900 0.034574 0.180000
v -0.055900 0.034574 0.002000
v -0.053900 0.032574 0.183657
v 0.069100 0.032574 0.183657
v 0.069865 0.030574 0.183505
v 0.070514 0.030574 0.000586
v 0.069865 0.030574 0.000152
v -0.054665 0.030574 0.183505
v -0.055314 0.030574 0.000586
v -0.055748 0.030574 0.001235
v 0.070948 0.032574 0.182422
v 0.069865 0.032574 0.183505
v -0.054665 0.032574 0.183505
v -0.055314 0.032574 0.183071
v -0.055748 0.032574 0.182422
v 0.070948 0.030574 0.001235
v -0.053900 0.030574 0.000000
v -0.054665 0.030574 0.000152
v 0.071100 0.034574 0.002000
v -0.050900 -0.034574 0.007657
v -0.055900 -0.034574 0.178657
v -0.050900 -0.034574 0.178657
v -0.055900 -0.034574 0.007657
v -0.071085 0.001964 0.079443
v -0.071100 0.001889 0.079457
v -0.071100 -0.001299 0.076269
v -0.071085 -0.002712 0.076194
v -0.071089 -0.002709 0.076213
v -0.071100 -0.002699 0.076269
v -0.071100 -0.003278 0.076420
v -0.071100 -0.004337 0.076973
v -0.071100 -0.005182 0.077818
v -0.071100 -0.005499 0.078327
v -0.071100 -0.005886 0.079457
v -0.071100 -0.005735 0.078877
v -0.071085 -0.005961 0.079443
v -0.071085 -0.005808 0.078852
v -0.071085 -0.005566 0.078291
v -0.071100 -0.004792 0.077364
v -0.071085 -0.004845 0.077309
v -0.071085 -0.005243 0.077772
v -0.071100 -0.003829 0.076656
v -0.071085 -0.004381 0.076911
v -0.071100 0.000795 0.077364
v -0.071100 0.001738 0.078877
v -0.071100 0.000340 0.076973
v -0.071100 -0.000168 0.076656
v -0.071100 -0.000719 0.076420
v -0.071085 -0.001285 0.076194
v -0.071085 0.000849 0.077310
v -0.071100 0.001185 0.077818
v -0.071085 0.001246 0.077773
v -0.071100 0.001502 0.078327
v -0.071085 0.001570 0.078291
v -0.071085 0.001811 0.078852
v -0.071089 -0.001288 0.076213
v -0.055900 -0.034574 0.181657
v 0.069100 0.028574 0.183657
v 0.070948 0.028574 0.182422
v 0.070948 -0.034574 0.182422
v 0.071100 -0.034574 0.181657
v 0.070514 -0.034574 0.183071
v 0.069865 -0.034574 0.183505
v 0.069100 -0.034574 0.183657
v -0.055314 0.028574 0.183071
v -0.053900 0.028574 0.183657
v -0.055314 -0.034574 0.183071
v -0.054665 -0.034574 0.183505
v -0.053900 -0.034574 0.183657
v -0.055748 -0.034574 0.182422
v -0.055748 0.028574 0.182422
v 0.070514 0.028574 0.183071
v 0.071100 -0.034574 0.004657
v -0.053900 -0.034574 0.002657
v 0.069100 -0.034574 0.002657
v -0.055900 -0.034574 0.004657
v -0.055314 -0.034574 0.003243
v 0.070948 -0.034574 0.003891
v 0.070514 -0.034574 0.003243
v 0.069865 -0.034574 0.002809
v -0.055748 -0.034574 0.003891
v -0.054665 -0.034574 0.002809
v -0.071100 -0.001299 0.110044
v -0.071085 0.001964 0.106870
v -0.071085 -0.002712 0.110120
v -0.071089 -0.002709 0.110101
v -0.071100 -0.002699 0.110044
v -0.071100 -0.004792 0.108950
v -0.071100 -0.003278 0.109894
v -0.071100 -0.005886 0.106857
v -0.071100 -0.005735 0.107437
v -0.071100 -0.005182 0.108495
v -0.071100 -0.005499 0.107987
v -0.071085 -0.004381 0.109403
v -0.071100 -0.003829 0.109657
v -0.071100 -0.004337 0.109340
v -0.071085 -0.004845 0.109005
v -0.071085 -0.005243 0.108541
v -0.071085 -0.005566 0.108023
v -0.071085 -0.005808 0.107462
v -0.071085 -0.005961 0.106870
v -0.071100 0.001889 0.106857
v -0.071100 0.001502 0.107987
v -0.071100 0.000340 0.109340
v -0.071100 -0.000168 0.109657
v -0.071100 0.001738 0.107437
v -0.071085 0.001811 0.107461
v -0.071085 0.001570 0.108022
v -0.071100 0.001185 0.108495
v -0.071085 0.001246 0.108541
v -0.071100 0.000795 0.108950
v -0.071085 0.000849 0.109004
v -0.071085 0.000385 0.109402
v -0.071100 -0.000719 0.109894
v -0.071085 -0.001285 0.110120
v -0.071089 -0.001288 0.110101
f 93 88 10
f 14 22 90
f 94 22 21
f 94 93 21
f 7 4 34
f 7 34 6
f 31 93 10
f 31 93 21
f 33 32 89
f 95 22 90
f 95 94 22
f 3 4 34
f 115 72 114
f 97 33 92
f 97 33 89
f 19 27 12
f 116 115 72
f 116 115 106
f 122 16 99
f 122 123 16
f 2 130 30
f 2 30 16
f 86 130 30
f 100 85 72
f 8 15 17
f 8 5 17
f 24 96 92
f 24 96 25
f 24 33 92
f 73 19 27
f 59 61 17
f 62 61 17
f 9 5 17
f 40 60 39
f 70 39 17
f 70 60 39
f 121 122 99
f 120 2 119
f 128 127 16
f 128 2 16
f 128 2 119
f 108 115 106
f 108 115 114
f 113 72 114
f 20 78 79
f 20 78 77
f 35 93 88
f 35 95 90
f 35 94 93
f 35 95 94
f 1 74 26
f 1 27 12
f 1 26 12
f 65 67 17
f 65 59 17
f 65 59 67
f 68 70 60
f 63 41 17
f 63 62 17
f 64 9 17
f 117 121 99
f 118 122 123
f 118 121 122
f 129 2 98
f 129 120 2
f 29 30 16
f 29 86 80
f 29 86 30
f 23 83 82
f 23 83 84
f 112 113 72
f 112 113 103
f 112 109 72
f 107 113 103
f 107 108 114
f 107 113 114
f 111 110 72
f 111 109 72
f 111 112 103
f 111 112 109
f 104 110 72
f 104 102 72
f 131 2 98
f 131 2 130
f 38 96 91
f 38 96 92
f 38 97 92
f 38 97 89
f 37 78 79
f 37 78 77
f 37 77 75
f 37 76 75
f 11 76 75
f 87 1 27
f 87 1 74
f 105 116 106
f 66 59 67
f 66 68 67
f 69 67 17
f 69 68 67
f 69 70 17
f 69 68 70
f 57 45 91
f 42 96 91
f 42 96 25
f 125 118 123
f 125 127 16
f 125 123 16
f 126 128 127
f 126 128 119
f 126 125 127
f 28 29 80
f 28 16 18
f 28 29 16
f 28 81 18
f 101 100 72
f 101 102 72
f 36 83 84
f 36 83 82
f 36 85 82
f 36 85 72
f 13 74 26
f 13 26 12
f 58 55 91
f 44 45 91
f 124 125 118
f 124 126 125
f 56 55 54
f 56 55 91
f 52 51 91
f 46 55 54
f 46 58 55
f 46 57 91
f 46 58 91
f 43 42 91
f 43 44 91
f 47 56 54
f 53 56 91
f 53 52 91
f 53 52 48
f 53 47 48
f 53 47 56
f 50 51 49
f 50 52 51
f 50 52 48
f 71 41 17
f 71 64 17
f 16 34 12
f 16 34 17
f 39 16 17
f 39 16 99
f 14 89 90
f 14 32 89
f 7 14 22
f 7 14 6
f 7 4 21
f 7 22 21
f 15 34 17
f 15 34 6
f 15 14 32
f 15 14 6
f 3 34 10
f 3 31 10
f 3 4 21
f 3 31 21
f 19 16 12
f 19 16 18
f 86 85 82
f 86 80 82
f 100 86 85
f 100 86 130
f 8 15 32
f 8 33 32
f 24 8 33
f 24 8 5
f 73 84 79
f 73 81 84
f 73 19 18
f 73 81 18
f 9 24 5
f 9 24 25
f 20 73 79
f 20 73 27
f 117 39 99
f 117 40 39
f 38 89 90
f 38 35 90
f 37 76 88
f 37 35 88
f 87 20 27
f 87 20 77
f 87 77 75
f 87 74 75
f 42 9 25
f 42 64 9
f 28 80 82
f 28 23 82
f 28 81 84
f 28 23 84
f 101 100 130
f 101 131 130
f 101 102 98
f 101 131 98
f 36 84 79
f 36 37 79
f 36 91 72
f 36 38 91
f 36 38 35
f 36 37 35
f 13 74 75
f 13 11 75
f 13 76 88
f 13 34 12
f 13 88 10
f 13 34 10
f 13 11 76
f 51 105 49
f 51 105 116
f 51 91 72
f 51 116 72
f 50 62 61
f 50 102 98
f 50 63 41
f 50 117 40
f 50 105 49
f 50 108 106
f 50 46 54
f 50 59 61
f 50 124 118
f 50 40 60
f 50 107 103
f 50 104 102
f 50 68 60
f 50 126 119
f 50 117 121
f 50 120 119
f 50 129 98
f 50 111 110
f 50 105 106
f 50 63 62
f 50 104 110
f 50 66 59
f 50 118 121
f 50 129 120
f 50 107 108
f 50 111 103
f 50 66 68
f 50 57 45
f 50 44 41
f 50 47 54
f 50 44 45
f 50 124 126
f 50 46 57
f 50 47 48
f 71 44 41
f 71 43 44
f 71 42 64
f 71 43 42
