v 0.031500 0.000000 0.025000
v 0.031348 -0.003088 0.025000
v 0.031348 -0.003088 0.000000
v 0.030895 -0.006145 0.025000
v 0.030144 -0.009144 0.025000
v 0.030144 -0.009144 0.000000
v 0.030895 -0.006145 0.000000
v 0.029102 -0.012055 0.025000
v 0.027781 -0.014849 0.025000
v 0.027781 -0.014849 0.000000
v 0.026191 -0.017500 0.025000
v 0.024350 -0.019983 0.025000
v 0.024350 -0.019983 0.000000
v 0.026191 -0.017500 0.000000
v 0.029102 -0.012055 0.000000
v 0.022274 -0.022274 0.025000
v 0.019983 -0.024350 0.025000
v 0.019983 -0.024350 0.000000
v 0.017500 -0.026191 0.025000
v 0.014849 -0.027781 0.025000
v 0.014849 -0.027781 0.000000
v 0.017500 -0.026191 0.000000
v 0.012055 -0.029102 0.025000
v 0.009144 -0.030144 0.025000
v 0.009144 -0.030144 0.000000
v 0.006145 -0.030895 0.025000
v 0.003088 -0.031348 0.025000
v 0.003088 -0.031348 0.000000
v 0.006145 -0.030895 0.000000
v 0.012055 -0.029102 0.000000
v 0.022274 -0.022274 0.000000
v -0.000000 -0.031500 0.025000
v -0.003088 -0.031348 0.025000
v -0.003088 -0.031348 0.000000
v -0.006145 -0.030895 0.025000
v -0.009144 -0.030144 0.025000
v -0.009144 -0.030144 0.000000
v -0.006145 -0.030895 0.000000
v -0.012055 -0.029102 0.025000
v -0.014849 -0.027781 0.025000
v -0.014849 -0.027781 0.000000
v -0.017500 -0.026191 0.025000
v -0.019983 -0.024350 0.025000
v -0.019983 -0.024350 0.000000
v -0.017500 -0.026191 0.000000
v -0.012055 -0.029102 0.000000
v -0.022274 -0.022274 0.025000
v -0.024350 -0.019983 0.025000
v -0.024350 -0.019983 0.000000
v -0.026191 -0.017500 0.025000
v -0.027781 -0.014849 0.025000
v -0.027781 -0.014849 0.000000
v -0.026191 -0.017500 0.000000
v -0.029102 -0.012055 0.025000
v -0.030144 -0.009144 0.025000
v -0.030144 -0.009144 0.000000
v -0.030895 -0.006145 0.025000
v -0.031348 -0.003088 0.025000
v -0.031348 -0.003088 0.000000
v -0.030895 -0.006145 0.000000
v -0.029102 -0.012055 0.000000
v -0.022274 -0.022274 0.000000
v -0.000000 -0.031500 0.000000
v 0.031500 0.000000 0.000000
v -0.031500 0.000000 0.025000
v -0.031500 0.000000 0.000000
v 0.031348 0.003088 0.000000
v -0.031348 0.003088 0.025000
v -0.031348 0.003088 0.000000
v -0.030895 0.006145 0.025000
v -0.030144 0.009144 0.025000
v -0.030144 0.009144 0.000000
v -0.030895 0.006145 0.000000
v -0.029102 0.012055 0.025000
v -0.027781 0.014849 0.025000
v -0.027781 0.014849 0.000000
v -0.026191 0.017500 0.025000
v -0.024350 0.019983 0.025000
v -0.024350 0.019983 0.000000
v -0.026191 0.017500 0.000000
v -0.029102 0.012055 0.000000
v -0.022274 0.022274 0.025000
v -0.019983 0.024350 0.025000
v -0.019983 0.024350 0.000000
v -0.017500 0.026191 0.025000
v -0.014849 0.027781 0.025000
v -0.014849 0.027781 0.000000
v -0.017500 0.026191 0.000000
v -0.012055 0.029102 0.025000
v -0.009144 0.030144 0.025000
v -0.009144 0.030144 0.000000
v -0.006145 0.030895 0.025000
v -0.003088 0.031348 0.025000
v -0.003088 0.031348 0.000000
v -0.006145 0.030895 0.000000
v -0.012055 0.029102 0.000000
v -0.022274 0.022274 0.000000
v 0.000000 0.031500 0.025000
v 0.003088 0.031348 0.025000
v 0.003088 0.031348 0.000000
v 0.006145 0.030895 0.025000
v 0.009144 0.030144 0.025000
v 0.009144 0.030144 0.000000
v 0.006145 0.030895 0.000000
v 0.012055 0.029102 0.025000
v 0.014849 0.027781 0.025000
v 0.014849 0.027781 0.000000
v 0.017500 0.026191 0.025000
v 0.019983 0.024350 0.025000
v 0.019983 0.024350 0.000000
v 0.017500 0.026191 0.000000
v 0.012055 0.029102 0.000000
v 0.022274 0.022274 0.025000
v 0.024350 0.019983 0.025000
v 0.024350 0.019983 0.000000
v 0.026191 0.017500 0.025000
v 0.027781 0.014849 0.025000
v 0.027781 0.014849 0.000000
v 0.026191 0.017500 0.000000
v 0.029102 0.012055 0.025000
v 0.030144 0.009144 0.025000
v 0.030144 0.009144 0.000000
v 0.030895 0.006145 0.025000
v 0.031348 0.003088 0.025000
v 0.030895 0.006145 0.000000
v 0.029102 0.012055 0.000000
v 0.022274 0.022274 0.000000
v 0.000000 0.031500 0.000000
v -0.026191 -0.017500 0.000000
v -0.027781 -0.014849 0.000000
v -0.030895 -0.006145 0.000000
v -0.031348 0.003088 0.000000
v -0.024350 -0.019983 0.000000
v -0.030144 -0.009144 0.000000
v -0.029102 -0.012055 0.000000
v -0.031348 -0.003088 0.000000
v -0.019983 -0.024350 0.000000
v -0.022274 -0.022274 0.000000
v -0.006145 -0.030895 0.000000
v -0.009144 -0.030144 0.000000
v -0.012055 -0.029102 0.000000
v 0.003088 -0.031348 0.000000
v -0.003088 -0.031348 0.000000
v -0.017500 -0.026191 0.000000
v -0.014849 -0.027781 0.000000
v -0.017500 0.026191 0.000000
v 0.030895 0.006145 0.000000
v -0.030895 0.006145 0.000000
v -0.027781 0.014849 0.000000
v -0.030144 0.009144 0.000000
v -0.029102 0.012055 0.000000
v -0.026191 0.017500 0.000000
v -0.024350 0.019983 0.000000
v -0.022274 0.022274 0.000000
v -0.031500 0.000000 0.000000
v -0.019983 0.024350 0.000000
v -0.014849 0.027781 0.000000
v -0.012055 0.029102 0.000000
v -0.006145 0.030895 0.000000
v -0.009144 0.030144 0.000000
v 0.026191 0.017500 0.000000
v -0.003088 0.031348 0.000000
v 0.000000 0.031500 0.000000
v -0.000000 -0.031500 0.000000
v 0.006145 -0.030895 0.000000
v 0.017500 -0.026191 0.000000
v 0.012055 -0.029102 0.000000
v 0.009144 -0.030144 0.000000
v 0.026191 -0.017500 0.000000
v 0.022274 -0.022274 0.000000
v 0.019983 -0.024350 0.000000
v 0.014849 -0.027781 0.000000
v 0.030895 -0.006145 0.000000
v 0.027781 -0.014849 0.000000
v 0.029102 -0.012055 0.000000
v 0.031500 0.000000 0.000000
v 0.031348 -0.003088 0.000000
v 0.030144 -0.009144 0.000000
v 0.024350 -0.019983 0.000000
v 0.017500 0.026191 0.000000
v 0.014849 0.027781 0.000000
v 0.019983 0.024350 0.000000
v 0.022274 0.022274 0.000000
v 0.006145 0.030895 0.000000
v 0.012055 0.029102 0.000000
v 0.003088 0.031348 0.000000
v 0.009144 0.030144 0.000000
v 0.029102 0.012055 0.000000
v 0.030144 0.009144 0.000000
v 0.024350 0.019983 0.000000
v 0.027781 0.014849 0.000000
v 0.031348 0.003088 0.000000
v -0.030895 -0.006145 0.025000
v -0.027781 -0.014849 0.025000
v -0.026191 -0.017500 0.025000
v -0.031348 0.003088 0.025000
v -0.024350 -0.019983 0.025000
v -0.030144 -0.009144 0.025000
v -0.029102 -0.012055 0.025000
v -0.031348 -0.003088 0.025000
v -0.022274 -0.022274 0.025000
v -0.019983 -0.024350 0.025000
v -0.012055 -0.029102 0.025000
v -0.009144 -0.030144 0.025000
v -0.006145 -0.030895 0.025000
v -0.003088 -0.031348 0.025000
v 0.003088 -0.031348 0.025000
v -0.017500 -0.026191 0.025000
v -0.014849 -0.027781 0.025000
v 0.030895 0.006145 0.025000
v -0.017500 0.026191 0.025000
v -0.027781 0.014849 0.025000
v -0.030895 0.006145 0.025000
v -0.029102 0.012055 0.025000
v -0.030144 0.009144 0.025000
v -0.024350 0.019983 0.025000
v -0.026191 0.017500 0.025000
v -0.022274 0.022274 0.025000
v -0.031500 0.000000 0.025000
v -0.019983 0.024350 0.025000
v -0.012055 0.029102 0.025000
v -0.014849 0.027781 0.025000
v -0.009144 0.030144 0.025000
v -0.006145 0.030895 0.025000
v 0.026191 0.017500 0.025000
v 0.000000 0.031500 0.025000
v -0.003088 0.031348 0.025000
v -0.000000 -0.031500 0.025000
v 0.017500 -0.026191 0.025000
v 0.006145 -0.030895 0.025000
v 0.009144 -0.030144 0.025000
v 0.012055 -0.029102 0.025000
v 0.026191 -0.017500 0.025000
v 0.019983 -0.024350 0.025000
v 0.022274 -0.022274 0.025000
v 0.014849 -0.027781 0.025000
v 0.027781 -0.014849 0.025000
v 0.030895 -0.006145 0.025000
v 0.029102 -0.012055 0.025000
v 0.031348 -0.003088 0.025000
v 0.031500 0.000000 0.025000
v 0.030144 -0.009144 0.025000
v 0.024350 -0.019983 0.025000
v 0.014849 0.027781 0.025000
v 0.017500 0.026191 0.025000
v 0.022274 0.022274 0.025000
v 0.019983 0.024350 0.025000
v 0.012055 0.029102 0.025000
v 0.006145 0.030895 0.025000
v 0.003088 0.031348 0.025000
v 0.009144 0.030144 0.025000
v 0.030144 0.009144 0.025000
v 0.029102 0.012055 0.025000
v 0.024350 0.019983 0.025000
v 0.027781 0.014849 0.025000
v 0.031348 0.003088 0.025000
f 1 2 3
f 4 5 6
f 2 4 7
f 8 9 10
f 11 12 13
f 9 11 14
f 5 8 15
f 16 17 18
f 19 20 21
f 17 19 22
f 23 24 25
f 26 27 28
f 24 26 29
f 20 23 30
f 12 16 31
f 32 33 34
f 35 36 37
f 33 35 38
f 39 40 41
f 42 43 44
f 40 42 45
f 36 39 46
f 47 48 49
f 50 51 52
f 48 50 53
f 54 55 56
f 57 58 59
f 55 57 60
f 51 54 61
f 43 47 62
f 27 32 63
f 3 64 1
f 6 7 4
f 3 2 7
f 10 15 8
f 13 14 11
f 10 9 14
f 6 5 15
f 18 31 16
f 21 22 19
f 18 17 22
f 25 30 23
f 28 29 26
f 25 24 29
f 21 20 30
f 13 12 31
f 34 63 32
f 37 38 35
f 34 33 38
f 41 46 39
f 44 45 42
f 41 40 45
f 37 36 46
f 49 62 47
f 52 53 50
f 49 48 53
f 56 61 54
f 59 60 57
f 56 55 60
f 52 51 61
f 44 43 62
f 28 27 63
f 65 66 58
f 1 64 67
f 65 68 69
f 70 71 72
f 68 70 73
f 74 75 76
f 77 78 79
f 75 77 80
f 71 74 81
f 82 83 84
f 85 86 87
f 83 85 88
f 89 90 91
f 92 93 94
f 90 92 95
f 86 89 96
f 78 82 97
f 98 99 100
f 101 102 103
f 99 101 104
f 105 106 107
f 108 109 110
f 106 108 111
f 102 105 112
f 113 114 115
f 116 117 118
f 114 116 119
f 120 121 122
f 123 124 67
f 121 123 125
f 117 120 126
f 109 113 127
f 93 98 128
f 69 66 65
f 72 73 70
f 69 68 73
f 76 81 74
f 79 80 77
f 76 75 80
f 72 71 81
f 84 97 82
f 87 88 85
f 84 83 88
f 91 96 89
f 94 95 92
f 91 90 95
f 87 86 96
f 79 78 97
f 100 128 98
f 103 104 101
f 100 99 104
f 107 112 105
f 110 111 108
f 107 106 111
f 103 102 112
f 115 127 113
f 118 119 116
f 115 114 119
f 122 126 120
f 67 125 123
f 122 121 125
f 118 117 126
f 110 109 127
f 94 93 128
f 124 1 67
f 66 59 58
f 129 130 131
f 129 131 132
f 133 129 132
f 131 130 134
f 134 130 135
f 131 136 132
f 137 138 133
f 139 140 141
f 142 143 139
f 144 132 139
f 144 139 145
f 145 139 141
f 133 132 144
f 144 137 133
f 146 147 139
f 148 149 146
f 148 150 151
f 148 146 132
f 149 148 151
f 149 152 153
f 153 154 149
f 132 136 155
f 146 154 156
f 146 157 158
f 146 149 154
f 159 158 160
f 146 158 159
f 139 132 146
f 146 159 161
f 159 162 163
f 143 142 164
f 165 142 166
f 165 167 168
f 167 165 166
f 139 169 166
f 166 170 171
f 172 167 166
f 170 166 169
f 169 139 147
f 173 174 169
f 174 173 175
f 173 169 147
f 173 176 177
f 178 175 173
f 179 170 169
f 176 173 147
f 180 161 181
f 182 183 180
f 184 185 181
f 186 159 163
f 184 181 161
f 184 187 185
f 184 159 186
f 147 188 189
f 161 159 184
f 161 188 147
f 161 183 190
f 161 180 183
f 161 191 188
f 147 146 161
f 147 192 176
f 139 166 142
f 193 194 195
f 196 193 195
f 196 195 197
f 198 194 193
f 199 194 198
f 196 200 193
f 197 201 202
f 203 204 205
f 205 206 207
f 205 196 208
f 209 205 208
f 203 205 209
f 208 196 197
f 197 202 208
f 205 210 211
f 211 212 213
f 214 215 213
f 196 211 213
f 214 213 212
f 216 217 212
f 212 218 216
f 219 200 196
f 220 218 211
f 221 222 211
f 218 212 211
f 223 221 224
f 224 221 211
f 211 196 205
f 225 224 211
f 226 227 224
f 228 207 206
f 229 207 230
f 231 232 230
f 229 230 232
f 229 233 205
f 234 235 229
f 229 232 236
f 233 229 235
f 210 205 233
f 233 237 238
f 239 238 237
f 210 233 238
f 240 241 238
f 238 239 242
f 233 235 243
f 210 238 241
f 244 225 245
f 245 246 247
f 244 248 249
f 226 224 250
f 225 244 249
f 248 251 249
f 250 224 249
f 252 253 210
f 249 224 225
f 210 253 225
f 254 246 225
f 246 245 225
f 253 255 225
f 225 211 210
f 241 256 210
f 207 229 205
