v 0.031500 0.000000 0.025000
v 0.031348 -0.003088 0.025000
v 0.031348 -0.003088 0.000000
v 0.030895 -0.006145 0.025000
v 0.030144 -0.009144 0.000000
v 0.029102 -0.012055 0.025000
v 0.027781 -0.014849 0.025000
v 0.027781 -0.014849 0.000000
v 0.024350 -0.019983 0.025000
v 0.024350 -0.019983 0.000000
v 0.029102 -0.012055 0.000000
v 0.022274 -0.022274 0.025000
v 0.019983 -0.024350 0.000000
v 0.017500 -0.026191 0.025000
v 0.014849 -0.027781 0.025000
v 0.009144 -0.030144 0.000000
v 0.006145 -0.030895 0.025000
v 0.003088 -0.031348 0.000000
v 0.022274 -0.022274 0.000000
v -0.000000 -0.031500 0.025000
v -0.003088 -0.031348 0.000000
v -0.006145 -0.030895 0.025000
v -0.012055 -0.029102 0.025000
v -0.014849 -0.027781 0.000000
v -0.017500 -0.026191 0.025000
v -0.019983 -0.024350 0.025000
v -0.017500 -0.026191 0.000000
v -0.012055 -0.029102 0.000000
v -0.022274 -0.022274 0.025000
v -0.024350 -0.019983 0.025000
v -0.024350 -0.019983 0.000000
v -0.026191 -0.017500 0.025000
v -0.029102 -0.012055 0.025000
v -0.030144 -0.009144 0.025000
v -0.031348 -0.003088 0.025000
v -0.030895 -0.006145 0.000000
v -0.029102 -0.012055 0.000000
v -0.022274 -0.022274 0.000000
v -0.000000 -0.031500 0.000000
v 0.031500 0.000000 0.000000
v -0.031500 0.000000 0.025000
v 0.031348 0.003088 0.000000
v -0.031348 0.003088 0.000000
v -0.030895 0.006145 0.025000
v -0.030144 0.009144 0.025000
v -0.030895 0.006145 0.000000
v -0.029102 0.012055 0.025000
v -0.027781 0.014849 0.025000
v -0.026191 0.017500 0.025000
v -0.024350 0.019983 0.025000
v -0.029102 0.012055 0.000000
v -0.019983 0.024350 0.000000
v -0.017500 0.026191 0.025000
v -0.014849 0.027781 0.025000
v -0.017500 0.026191 0.000000
v -0.012055 0.029102 0.025000
v -0.009144 0.030144 0.000000
v -0.006145 0.030895 0.025000
v 0.000000 0.031500 0.025000
v 0.006145 0.030895 0.025000
v 0.009144 0.030144 0.000000
v 0.012055 0.029102 0.025000
v 0.014849 0.027781 0.025000
v 0.019983 0.024350 0.025000
v 0.019983 0.024350 0.000000
v 0.017500 0.026191 0.000000
v 0.012055 0.029102 0.000000
v 0.022274 0.022274 0.025000
v 0.024350 0.019983 0.025000
v 0.024350 0.019983 0.000000
v 0.027781 0.014849 0.000000
v 0.029102 0.012055 0.025000
v 0.030144 0.009144 0.000000
v 0.031348 0.003088 0.025000
v 0.030895 0.006145 0.000000
v 0.029102 0.012055 0.000000
v 0.000000 0.031500 0.000000
v -0.026191 -0.017500 0.000000
v -0.027781 -0.014849 0.000000
v -0.030144 -0.009144 0.000000
v -0.031348 -0.003088 0.000000
v -0.019983 -0.024350 0.000000
v -0.006145 -0.030895 0.000000
v -0.009144 -0.030144 0.000000
v -0.027781 0.014849 0.000000
v -0.030144 0.009144 0.000000
v -0.026191 0.017500 0.000000
v -0.024350 0.019983 0.000000
v -0.022274 0.022274 0.000000
v -0.031500 0.000000 0.000000
v -0.014849 0.027781 0.000000
v -0.012055 0.029102 0.000000
v -0.006145 0.030895 0.000000
v 0.026191 0.017500 0.000000
v -0.003088 0.031348 0.000000
v 0.006145 -0.030895 0.000000
v 0.017500 -0.026191 0.000000
v 0.012055 -0.029102 0.000000
v 0.026191 -0.017500 0.000000
v 0.014849 -0.027781 0.000000
v 0.030895 -0.006145 0.000000
v 0.014849 0.027781 0.000000
v 0.022274 0.022274 0.000000
v 0.006145 0.030895 0.000000
v 0.003088 0.031348 0.000000
v -0.030895 -0.006145 0.025000
v -0.027781 -0.014849 0.025000
v -0.031348 0.003088 0.025000
v -0.009144 -0.030144 0.025000
v -0.003088 -0.031348 0.025000
v 0.003088 -0.031348 0.025000
v -0.014849 -0.027781 0.025000
v 0.030895 0.006145 0.025000
v -0.022274 0.022274 0.025000
v -0.019983 0.024350 0.025000
v -0.009144 0.030144 0.025000
v 0.026191 0.017500 0.025000
v -0.003088 0.031348 0.025000
v 0.009144 -0.030144 0.025000
v 0.012055 -0.029102 0.025000
v 0.026191 -0.017500 0.025000
v 0.019983 -0.024350 0.025000
v 0.030144 -0.009144 0.025000
v 0.017500 0.026191 0.025000
v 0.003088 0.031348 0.025000
v 0.009144 0.030144 0.025000
v 0.030144 0.009144 0.025000
v 0.027781 0.014849 0.025000
f 40 2 1
f 40 2 3
f 74 40 42
f 74 40 1
f 119 98 16
f 119 98 120
f 94 69 117
f 94 69 70
f 94 117 128
f 94 71 128
f 103 69 68
f 103 69 70
f 107 78 79
f 107 78 32
f 28 112 23
f 28 112 24
f 27 112 25
f 27 112 24
f 109 28 84
f 109 28 23
f 123 5 11
f 123 11 6
f 101 2 4
f 101 2 3
f 101 123 4
f 101 123 5
f 7 8 11
f 7 11 6
f 99 9 121
f 99 9 10
f 99 7 121
f 99 7 8
f 80 34 106
f 80 106 36
f 86 45 47
f 86 47 51
f 113 74 42
f 113 75 42
f 113 75 73
f 113 127 73
f 63 67 102
f 63 67 62
f 63 66 102
f 63 66 124
f 64 103 65
f 64 103 68
f 64 66 65
f 64 66 124
f 31 30 29
f 31 29 38
f 31 30 32
f 31 78 32
f 82 26 29
f 82 29 38
f 82 26 25
f 82 27 25
f 111 18 39
f 111 39 20
f 96 119 17
f 96 119 16
f 96 111 17
f 96 111 18
f 110 21 39
f 110 39 20
f 83 109 22
f 83 109 84
f 83 110 22
f 83 110 21
f 100 98 120
f 100 15 120
f 100 15 14
f 100 97 14
f 81 35 106
f 81 106 36
f 81 35 41
f 81 90 41
f 37 107 33
f 37 107 79
f 37 34 33
f 37 80 34
f 50 87 88
f 50 87 49
f 108 90 43
f 108 90 41
f 46 108 44
f 46 108 43
f 46 86 45
f 46 44 45
f 72 71 128
f 72 76 71
f 72 127 73
f 72 76 73
f 126 67 61
f 126 67 62
f 104 126 60
f 104 126 61
f 122 13 97
f 122 97 14
f 19 9 12
f 19 9 10
f 19 122 12
f 19 122 13
f 85 48 47
f 85 47 51
f 85 48 49
f 85 87 49
f 89 50 114
f 89 50 88
f 115 89 52
f 115 89 114
f 115 52 55
f 115 53 55
f 91 54 53
f 91 53 55
f 93 116 58
f 93 116 57
f 92 116 56
f 92 116 57
f 92 54 56
f 92 91 54
f 118 30 29
f 118 110 20
f 118 26 29
f 118 7 6
f 118 126 62
f 118 64 68
f 118 125 59
f 118 2 1
f 118 113 74
f 118 119 120
f 118 48 47
f 118 15 120
f 118 74 1
f 118 63 62
f 118 107 33
f 118 111 20
f 118 123 6
f 118 9 12
f 118 34 33
f 118 2 4
f 118 54 56
f 118 117 128
f 118 69 68
f 118 30 32
f 118 26 25
f 118 112 23
f 118 119 17
f 118 109 23
f 118 9 121
f 118 34 106
f 118 35 41
f 118 45 47
f 118 50 114
f 118 122 12
f 118 69 117
f 118 116 56
f 118 107 32
f 118 112 25
f 118 109 22
f 118 15 14
f 118 123 4
f 118 7 121
f 118 35 106
f 118 48 49
f 118 44 45
f 118 108 41
f 118 113 127
f 118 72 128
f 118 63 124
f 118 64 124
f 118 111 17
f 118 110 22
f 118 50 49
f 118 108 44
f 118 54 53
f 118 115 114
f 118 72 127
f 118 126 60
f 118 122 14
f 118 115 53
f 118 116 58
f 118 125 60
f 105 125 59
f 105 59 77
f 105 104 60
f 105 125 60
f 95 94 70
f 95 37 79
f 95 86 51
f 95 103 70
f 95 98 16
f 95 40 3
f 95 46 43
f 95 31 38
f 95 100 98
f 95 75 73
f 95 28 84
f 95 96 16
f 95 83 84
f 95 101 3
f 95 80 36
f 95 40 42
f 95 91 55
f 95 67 102
f 95 99 10
f 95 66 102
f 95 82 38
f 95 5 11
f 95 8 11
f 95 90 43
f 95 75 42
f 95 94 71
f 95 103 65
f 95 76 73
f 95 78 79
f 95 28 24
f 95 27 24
f 95 18 39
f 95 21 39
f 95 92 57
f 95 101 5
f 95 99 8
f 95 81 36
f 95 19 10
f 95 52 55
f 95 89 88
f 95 76 71
f 95 67 61
f 95 66 65
f 95 31 78
f 95 82 27
f 95 96 18
f 95 83 21
f 95 13 97
f 95 100 97
f 95 81 90
f 95 37 80
f 95 87 88
f 95 85 51
f 95 46 86
f 95 104 61
f 95 19 13
f 95 85 87
f 95 89 52
f 95 105 77
f 95 93 57
f 95 92 91
f 95 105 104
f 95 118 59
f 95 59 77
f 95 93 58
f 95 118 58
