v 0.006926 0.046525 0.000682
v 0.003284 0.048525 0.002161
v 0.006536 0.048525 0.002644
v 0.009725 0.048525 0.003442
v 0.012820 0.048525 0.004550
v 0.015792 0.048525 0.005956
v 0.021252 0.048525 0.009604
v 0.023688 0.048525 0.011812
v 0.016735 0.046525 0.004192
v 0.025896 0.048525 0.014248
v 0.027854 0.048525 0.016888
v 0.029517 0.046525 0.015777
v 0.032798 0.046525 0.021915
v 0.030950 0.048525 0.022680
v 0.029544 0.048525 0.019708
v 0.033500 0.048525 0.035500
v 0.035500 0.046525 0.035500
v 0.034818 0.046525 0.028574
v 0.027442 0.046525 0.012979
v 0.000000 0.048525 0.002000
v 0.003480 0.046525 0.000171
v 0.033971 0.046525 0.025195
v 0.032856 0.048525 0.042036
v 0.034818 0.046525 0.042426
v 0.033339 0.048525 0.038784
v 0.032798 0.046525 0.049085
v 0.030950 0.048525 0.048320
v 0.029544 0.048525 0.051292
v 0.025896 0.048525 0.056752
v 0.023688 0.048525 0.059188
v 0.012820 0.048525 0.066450
v 0.016735 0.046525 0.066808
v 0.022521 0.046525 0.062942
v 0.000000 0.046525 0.071000
v 0.000000 0.048525 0.069000
v 0.019723 0.046525 0.065017
v 0.000000 0.046525 0.000000
v 0.010305 0.046525 0.001529
v 0.013585 0.046525 0.002702
v 0.019723 0.046525 0.005983
v 0.022521 0.046525 0.008058
v 0.025102 0.046525 0.010398
v 0.031308 0.046525 0.018765
v 0.035329 0.046525 0.032020
v 0.035329 0.046525 0.038980
v 0.033971 0.046525 0.045805
v 0.031308 0.046525 0.052235
v 0.029517 0.046525 0.055223
v 0.025102 0.046525 0.060602
v 0.027442 0.046525 0.058021
v 0.013585 0.046525 0.068298
v 0.010305 0.046525 0.069471
v 0.006926 0.046525 0.070318
v 0.003480 0.046525 0.070829
v -0.003480 0.046525 0.070829
v -0.019723 0.046525 0.065017
v -0.006926 0.046525 0.000682
v -0.003480 0.046525 0.000171
v -0.015792 0.048525 0.005956
v -0.018612 0.048525 0.007646
v -0.012820 0.048525 0.004550
v -0.006536 0.048525 0.002644
v -0.009725 0.048525 0.003442
v -0.030950 0.048525 0.022680
v -0.033500 0.048525 0.035500
v -0.025896 0.048525 0.014248
v -0.027854 0.048525 0.016888
v -0.029544 0.048525 0.019708
v 0.018612 0.048525 0.007646
v 0.032058 0.048525 0.025775
v 0.032856 0.048525 0.028964
v 0.033339 0.048525 0.032216
v -0.033339 0.048525 0.038784
v -0.032856 0.048525 0.042036
v -0.032058 0.048525 0.045225
v -0.027854 0.048525 0.054112
v -0.025896 0.048525 0.056752
v -0.021252 0.048525 0.061396
v -0.015792 0.048525 0.065044
v -0.012820 0.048525 0.066450
v -0.003284 0.048525 0.068839
v -0.006536 0.048525 0.068356
v -0.009725 0.048525 0.067558
v 0.027854 0.048525 0.054112
v 0.032058 0.048525 0.045225
v 0.006536 0.048525 0.068356
v 0.009725 0.048525 0.067558
v 0.003284 0.048525 0.068839
v 0.021252 0.048525 0.061396
v 0.018612 0.048525 0.063354
v 0.015792 0.048525 0.065044
v -0.006926 0.046525 0.070318
v -0.016735 0.046525 0.066808
v -0.018612 0.048525 0.063354
v -0.010305 0.046525 0.069471
v -0.029544 0.048525 0.051292
v -0.030950 0.048525 0.048320
v -0.023688 0.048525 0.059188
v -0.022521 0.046525 0.062942
v -0.013585 0.046525 0.068298
v -0.003284 0.048525 0.002161
v -0.033339 0.048525 0.032216
v -0.032856 0.048525 0.028964
v -0.032058 0.048525 0.025775
v -0.022521 0.046525 0.008058
v -0.023688 0.048525 0.011812
v -0.021252 0.048525 0.009604
v -0.016735 0.046525 0.004192
v -0.013585 0.046525 0.002702
v -0.010305 0.046525 0.001529
v -0.019723 0.046525 0.005983
v -0.048138 0.042106 0.035500
v -0.047572 0.043013 0.035500
v -0.047796 0.042573 0.032801
v -0.047876 0.042573 0.035500
v -0.047492 0.043013 0.032819
v -0.047227 0.043423 0.035500
v -0.046847 0.043799 0.035500
v -0.046433 0.044138 0.035500
v -0.046769 0.043799 0.032862
v -0.047149 0.043423 0.032839
v -0.048058 0.042106 0.032785
v -0.045913 0.044437 0.032912
v -0.045989 0.044437 0.035500
v -0.045520 0.044694 0.035500
v -0.045444 0.044694 0.032940
v -0.045028 0.044905 0.035500
v -0.044519 0.045071 0.035500
v -0.044445 0.045071 0.032999
v -0.044953 0.044905 0.032969
v -0.046355 0.044138 0.032886
v -0.047874 0.042316 0.031764
v -0.047796 0.042573 0.038199
v -0.048058 0.042106 0.038215
v -0.047492 0.043013 0.038181
v -0.047149 0.043423 0.038161
v -0.046355 0.044138 0.038114
v -0.046769 0.043799 0.038138
v -0.045444 0.044694 0.038060
v -0.044445 0.045071 0.038001
v -0.044953 0.044905 0.038031
v -0.045913 0.044437 0.038088
v -0.046463 0.043992 0.039239
v -0.044597 0.044987 0.039623
v -0.045563 0.044583 0.039352
v -0.047247 0.043225 0.039232
v -0.047728 0.042551 0.039235
v -0.047415 0.043005 0.039233
v -0.046245 0.044151 0.039259
v -0.047058 0.043428 0.039230
v -0.039196 0.045337 0.020431
v -0.039329 0.045224 0.020357
v -0.038884 0.045346 0.019935
v -0.038510 0.045361 0.019478
v -0.039007 0.045232 0.019844
v -0.038084 0.045381 0.019074
v -0.038179 0.045268 0.018953
v -0.038620 0.045247 0.019371
v -0.038689 0.045085 0.019299
v -0.038238 0.045105 0.018872
v -0.037691 0.045294 0.018593
v -0.037738 0.045131 0.018504
v -0.039449 0.045331 0.020964
v -0.046869 0.043632 0.031771
v -0.046463 0.043992 0.031761
v -0.046439 0.043959 0.031589
v -0.046837 0.043599 0.031589
v -0.046011 0.044274 0.031552
v -0.046027 0.044309 0.031722
v -0.045563 0.044583 0.031648
v -0.045558 0.044545 0.031480
v -0.045092 0.044768 0.031367
v -0.045083 0.044810 0.031534
v -0.044597 0.044987 0.031377
v -0.047214 0.043196 0.031593
v -0.047247 0.043225 0.031768
v -0.047582 0.042786 0.031766
v -0.047836 0.042294 0.031590
v -0.047546 0.042760 0.031592
v -0.044891 0.037701 0.019416
v -0.045355 0.037716 0.019846
v -0.045674 0.037716 0.020207
v -0.045590 0.037879 0.020275
v -0.045710 0.037783 0.020331
v -0.039329 0.045224 0.050643
v -0.039007 0.045232 0.051156
v -0.038689 0.045085 0.051701
v -0.038620 0.045247 0.051629
v -0.038238 0.045105 0.052128
v -0.038179 0.045268 0.052047
v -0.039449 0.045331 0.050036
v -0.039196 0.045337 0.050569
v -0.038884 0.045346 0.051065
v -0.038510 0.045361 0.051522
v -0.038084 0.045381 0.051926
v -0.037738 0.045131 0.052496
v -0.037691 0.045294 0.052407
v -0.046439 0.043959 0.039411
v -0.046027 0.044309 0.039278
v -0.045558 0.044545 0.039520
v -0.046011 0.044274 0.039448
v -0.045083 0.044810 0.039466
v -0.045092 0.044768 0.039633
v -0.046869 0.043632 0.039229
v -0.046838 0.043600 0.039405
v -0.047214 0.043196 0.039407
v -0.046837 0.043599 0.039411
v -0.047546 0.042760 0.039408
v -0.047582 0.042786 0.039234
v -0.047874 0.042316 0.039236
v -0.047836 0.042294 0.039410
v -0.044891 0.037701 0.051584
v -0.045355 0.037716 0.051154
v -0.045590 0.037879 0.050725
v -0.045674 0.037716 0.050793
v -0.045710 0.037783 0.050669
v -0.034066 -0.039207 0.010320
v -0.037982 -0.032024 0.004100
v -0.046263 -0.017681 0.000000
v -0.044726 -0.020744 0.000366
v -0.039754 -0.029356 0.002828
v -0.041369 -0.026559 0.001686
v -0.042839 -0.023613 0.000667
v -0.044543 -0.020661 0.000167
v -0.047712 -0.015172 0.070882
v -0.050570 -0.010221 0.069939
v -0.049151 -0.012680 0.070527
v -0.055870 -0.001042 0.065352
v -0.058170 0.002941 0.061829
v -0.059204 0.004733 0.059798
v -0.061765 0.009169 0.052792
v -0.060153 0.006376 0.057605
v -0.046263 -0.017681 0.071000
v -0.063342 0.012272 0.043952
v -0.061008 0.007858 0.055264
v -0.063400 0.012000 0.044752
v -0.061765 0.009169 0.018208
v -0.060153 0.006376 0.013395
v -0.058170 0.002941 0.009171
v -0.057056 0.001012 0.007316
v -0.053314 -0.005469 0.002921
v -0.050570 -0.010221 0.001061
v -0.049151 -0.012680 0.000473
v -0.047712 -0.015172 0.000118
v -0.063343 0.012271 0.027047
v -0.061008 0.007858 0.015736
v -0.063477 0.011733 0.044700
v -0.043031 -0.023679 0.000863
v -0.046437 -0.017781 0.000200
v -0.038202 -0.032044 0.004277
v -0.036728 -0.034597 0.006020
v -0.047877 -0.015286 0.000318
v -0.049308 -0.012808 0.000670
v -0.052102 -0.007968 0.002068
v -0.053447 -0.005638 0.003104
v -0.035345 -0.036992 0.008041
v -0.057168 0.000806 0.007475
v -0.058276 0.002725 0.009320
v -0.059305 0.004507 0.011339
v -0.060247 0.006140 0.013520
v -0.061098 0.007614 0.015847
v -0.061851 0.008918 0.018306
v -0.063044 0.010984 0.023550
v -0.034912 -0.037742 0.062236
v -0.058927 0.003853 0.060441
v -0.058089 0.002402 0.062014
v -0.035806 -0.036193 0.063679
v -0.062735 0.010448 0.049048
v -0.062260 0.009625 0.051140
v -0.060441 0.006475 0.056986
v -0.061717 0.008686 0.053166
v -0.039793 -0.029288 0.068204
v -0.040871 -0.027420 0.068999
v -0.043094 -0.023571 0.070161
v -0.044228 -0.021606 0.070523
v -0.053237 -0.006003 0.068075
v -0.052162 -0.007864 0.068891
v -0.046521 -0.017634 0.070800
v -0.049946 -0.011703 0.070095
v -0.041167 -0.026508 0.001495
v -0.039543 -0.029321 0.002643
v -0.035109 -0.037001 0.007886
v -0.036500 -0.034592 0.005853
v -0.029947 -0.043816 0.017833
v -0.029020 -0.044699 0.020171
v -0.028226 -0.045455 0.022594
v -0.033823 -0.039228 0.010178
v -0.033163 -0.040275 0.011455
v -0.031003 -0.042811 0.015593
v -0.031743 -0.042059 0.014163
v -0.027571 -0.046078 0.025089
v -0.044543 -0.020661 0.070833
v -0.026466 -0.047130 0.038139
v -0.028226 -0.045455 0.048406
v -0.029947 -0.043816 0.053167
v -0.031003 -0.042811 0.055407
v -0.035109 -0.037001 0.063114
v -0.039543 -0.029321 0.068357
v -0.037982 -0.032024 0.066900
v -0.042839 -0.023613 0.070333
v -0.026392 -0.047200 0.035500
v -0.027571 -0.046078 0.045911
v -0.033163 -0.040275 0.059545
v -0.063485 0.011852 0.026751
v -0.063477 0.011733 0.026300
v -0.032676 -0.041237 0.055446
v -0.033402 -0.040261 0.059409
v -0.033386 -0.040284 0.056943
v -0.032676 -0.041237 0.015554
v -0.032699 -0.041208 0.012911
v -0.030171 -0.043811 0.053066
v -0.029248 -0.044688 0.050742
v -0.028457 -0.045438 0.048333
v -0.028457 -0.045438 0.022667
v -0.029248 -0.044688 0.020258
v -0.027804 -0.046058 0.045853
v -0.027293 -0.046543 0.043315
v -0.026704 -0.047102 0.038124
v -0.027804 -0.046058 0.025147
v -0.026704 -0.047102 0.032876
v -0.026630 -0.047172 0.035500
v -0.063485 0.011852 0.044246
v -0.063141 0.011152 0.046898
v -0.062965 0.011247 0.047518
v -0.061110 0.007634 0.055118
v -0.062419 0.010302 0.050204
v -0.059712 0.005213 0.058763
v -0.057202 0.000865 0.063474
v -0.056269 -0.000751 0.064816
v -0.057056 0.001012 0.063684
v -0.055294 -0.002439 0.066033
v -0.054282 -0.004192 0.067121
v -0.054620 -0.003208 0.066820
v -0.051961 -0.007812 0.069121
v -0.053314 -0.005469 0.068079
v -0.051064 -0.009767 0.069565
v -0.048813 -0.013666 0.070479
v -0.047670 -0.015645 0.070714
v -0.045373 -0.019624 0.070736
v -0.041973 -0.025512 0.069653
v -0.041167 -0.026508 0.069505
v -0.038743 -0.031106 0.067270
v -0.037726 -0.032868 0.066202
v -0.036746 -0.034566 0.065003
v -0.036500 -0.034592 0.065147
v -0.034066 -0.039207 0.060680
v -0.031743 -0.042059 0.056837
v -0.032699 -0.041208 0.058089
v -0.031970 -0.042056 0.056717
v -0.032466 -0.041216 0.058217
v -0.033823 -0.039228 0.060822
v -0.031224 -0.042813 0.055295
v -0.026688 -0.046918 0.040764
v -0.026925 -0.046892 0.040734
v -0.027057 -0.046567 0.043359
v -0.029020 -0.044699 0.050829
v -0.026688 -0.046918 0.030236
v -0.026466 -0.047130 0.032861
v -0.030172 -0.043811 0.017933
v -0.026925 -0.046892 0.030266
v -0.027057 -0.046567 0.027641
v -0.027293 -0.046543 0.027685
v -0.031224 -0.042813 0.015705
v -0.032466 -0.041216 0.012783
v -0.033402 -0.040261 0.011591
v -0.031970 -0.042056 0.014283
v -0.050719 -0.010363 0.001255
v -0.055870 -0.001042 0.005648
v -0.055989 -0.001236 0.005817
v -0.051961 -0.007812 0.001879
v -0.054620 -0.003208 0.004180
v -0.054746 -0.003389 0.004357
v -0.062965 0.011247 0.023482
v -0.062501 0.010044 0.020879
v -0.062419 0.010302 0.020796
v -0.059204 0.004733 0.011202
v -0.063400 0.012000 0.026248
v -0.031951 -0.042077 0.017109
v -0.033386 -0.040284 0.014057
v -0.030445 -0.043552 0.050338
v -0.031951 -0.042077 0.053891
v 0.035345 -0.036992 0.062959
v 0.036728 -0.034597 0.064980
v 0.035109 -0.037001 0.063114
v 0.034066 -0.039207 0.060680
v 0.036500 -0.034592 0.065147
v 0.038202 -0.032044 0.066723
v 0.037982 -0.032024 0.066900
v 0.039754 -0.029356 0.068172
v 0.042839 -0.023613 0.070333
v 0.044543 -0.020661 0.070833
v 0.047712 -0.015172 0.000118
v 0.050570 -0.010221 0.001061
v 0.051961 -0.007812 0.001879
v 0.049151 -0.012680 0.000473
v 0.055870 -0.001042 0.005648
v 0.058170 0.002941 0.009171
v 0.059204 0.004733 0.011202
v 0.057056 0.001012 0.007316
v 0.053314 -0.005469 0.002921
v 0.061765 0.009169 0.018208
v 0.060153 0.006376 0.013395
v 0.046263 -0.017681 0.000000
v 0.063342 0.012272 0.027048
v 0.063400 0.012000 0.026248
v 0.062965 0.011247 0.047518
v 0.062419 0.010302 0.050204
v 0.060153 0.006376 0.057605
v 0.058170 0.002941 0.061829
v 0.057056 0.001012 0.063684
v 0.059204 0.004733 0.059798
v 0.053314 -0.005469 0.068079
v 0.050570 -0.010221 0.069939
v 0.051961 -0.007812 0.069121
v 0.063343 0.012271 0.043953
v 0.063400 0.012000 0.044752
v 0.061008 0.007858 0.055264
v 0.054620 -0.003208 0.066820
v 0.046263 -0.017681 0.071000
v 0.063485 0.011852 0.026754
v 0.043031 -0.023679 0.070137
v 0.041369 -0.026559 0.069314
v 0.044726 -0.020744 0.070634
v 0.046437 -0.017781 0.070800
v 0.047877 -0.015286 0.070682
v 0.052102 -0.007968 0.068932
v 0.054746 -0.003389 0.066643
v 0.055989 -0.001236 0.065183
v 0.057168 0.000806 0.063525
v 0.058276 0.002725 0.061680
v 0.059305 0.004507 0.059661
v 0.063044 0.010984 0.047450
v 0.062501 0.010044 0.050121
v 0.063477 0.011733 0.044700
v 0.034912 -0.037742 0.008764
v 0.059712 0.005213 0.012237
v 0.058927 0.003853 0.010559
v 0.057202 0.000865 0.007526
v 0.056269 -0.000751 0.006184
v 0.036746 -0.034566 0.005997
v 0.063141 0.011152 0.024102
v 0.063477 0.011733 0.026300
v 0.062260 0.009625 0.019860
v 0.060441 0.006475 0.014014
v 0.037726 -0.032868 0.004798
v 0.038743 -0.031106 0.003730
v 0.039793 -0.029288 0.002796
v 0.040871 -0.027420 0.002001
v 0.041973 -0.025512 0.001347
v 0.043094 -0.023571 0.000839
v 0.044228 -0.021606 0.000477
v 0.045373 -0.019624 0.000264
v 0.053237 -0.006003 0.002925
v 0.052162 -0.007864 0.002109
v 0.055294 -0.002439 0.004967
v 0.047670 -0.015645 0.000286
v 0.046521 -0.017634 0.000200
v 0.048813 -0.013666 0.000521
v 0.049946 -0.011703 0.000905
v 0.041167 -0.026508 0.069505
v 0.039543 -0.029321 0.068357
v 0.029947 -0.043816 0.053167
v 0.029020 -0.044699 0.050829
v 0.027057 -0.046567 0.043359
v 0.026688 -0.046918 0.040764
v 0.033823 -0.039228 0.060822
v 0.031743 -0.042059 0.056837
v 0.027571 -0.046078 0.045911
v 0.026466 -0.047130 0.038139
v 0.044543 -0.020661 0.000167
v 0.026466 -0.047130 0.032861
v 0.026688 -0.046918 0.030236
v 0.027057 -0.046567 0.027641
v 0.037982 -0.032024 0.004100
v 0.026392 -0.047200 0.035500
v 0.031743 -0.042059 0.014163
v 0.033163 -0.040275 0.011455
v 0.033823 -0.039228 0.010178
v 0.063485 0.011852 0.044249
v 0.031970 -0.042056 0.014283
v 0.031951 -0.042077 0.017109
v 0.031224 -0.042813 0.015705
v 0.033402 -0.040261 0.011591
v 0.033386 -0.040284 0.014057
v 0.031951 -0.042077 0.053891
v 0.032676 -0.041237 0.055446
v 0.030171 -0.043811 0.017934
v 0.030172 -0.043811 0.053067
v 0.027804 -0.046058 0.025147
v 0.026925 -0.046892 0.030266
v 0.026704 -0.047102 0.032876
v 0.026925 -0.046892 0.040734
v 0.027804 -0.046058 0.045853
v 0.026630 -0.047172 0.035500
v 0.062735 0.010448 0.021952
v 0.062965 0.011247 0.023482
v 0.061717 0.008686 0.017834
v 0.061110 0.007634 0.015882
v 0.061008 0.007858 0.015736
v 0.062419 0.010302 0.020796
v 0.058089 0.002402 0.008986
v 0.054282 -0.004192 0.003879
v 0.054620 -0.003208 0.004180
v 0.051064 -0.009767 0.001435
v 0.041167 -0.026508 0.001495
v 0.042839 -0.023613 0.000667
v 0.039543 -0.029321 0.002643
v 0.036500 -0.034592 0.005853
v 0.035109 -0.037001 0.007886
v 0.035806 -0.036193 0.007321
v 0.034066 -0.039207 0.010320
v 0.032699 -0.041208 0.012911
v 0.032466 -0.041216 0.012783
v 0.031003 -0.042811 0.015593
v 0.027571 -0.046078 0.025089
v 0.028226 -0.045455 0.022594
v 0.029020 -0.044699 0.020171
v 0.029248 -0.044688 0.020258
v 0.027293 -0.046543 0.027685
v 0.029947 -0.043816 0.017833
v 0.026704 -0.047102 0.038124
v 0.031003 -0.042811 0.055407
v 0.027293 -0.046543 0.043315
v 0.028226 -0.045455 0.048406
v 0.028457 -0.045438 0.048333
v 0.028457 -0.045438 0.022667
v 0.029248 -0.044688 0.050742
v 0.031224 -0.042813 0.055295
v 0.032466 -0.041216 0.058217
v 0.032699 -0.041208 0.058089
v 0.033402 -0.040261 0.059409
v 0.031970 -0.042056 0.056717
v 0.033163 -0.040275 0.059545
v 0.049308 -0.012808 0.070330
v 0.050719 -0.010363 0.069745
v 0.049151 -0.012680 0.070527
v 0.047712 -0.015172 0.070882
v 0.055870 -0.001042 0.065352
v 0.053447 -0.005638 0.067896
v 0.060247 0.006140 0.057480
v 0.061098 0.007614 0.055153
v 0.061851 0.008918 0.052694
v 0.061765 0.009169 0.052792
v 0.033386 -0.040284 0.056943
v 0.030445 -0.043552 0.020662
v 0.032676 -0.041237 0.015554
f 219 220 224
f 249 219 220
f 249 219 252
f 421 391 390
f 461 387 388
f 452 457 403
f 95 100 335
f 80 95 100
f 37 21 20
f 239 111 240
f 416 406 26
f 23 45 24
f 46 27 26
f 46 416 26
f 46 416 24
f 49 30 33
f 49 50 30
f 49 50 408
f 423 421 391
f 423 419 391
f 423 419 424
f 434 416 479
f 417 50 408
f 418 538 32
f 36 538 32
f 36 409 33
f 410 36 409
f 410 36 538
f 337 279 227
f 383 387 388
f 383 386 388
f 422 421 390
f 470 452 451
f 470 452 403
f 531 466 385
f 322 247 236
f 322 234 236
f 322 247 304
f 322 245 304
f 322 245 234
f 305 247 304
f 228 56 330
f 93 80 100
f 93 228 56
f 210 234 236
f 244 37 219
f 244 219 252
f 2 21 20
f 2 3 21
f 1 3 21
f 395 1 21
f 515 489 473
f 51 52 412
f 51 418 412
f 51 418 32
f 413 52 53
f 31 51 52
f 31 51 32
f 225 34 233
f 225 337 227
f 25 45 16
f 25 23 45
f 85 46 27
f 85 23 24
f 85 46 24
f 29 50 30
f 47 27 26
f 47 406 26
f 537 419 34
f 411 409 33
f 411 49 33
f 411 49 408
f 430 410 429
f 430 410 409
f 430 411 409
f 430 411 431
f 540 417 408
f 540 417 541
f 540 411 408
f 540 411 431
f 427 418 538
f 427 418 412
f 334 277 276
f 334 276 335
f 334 95 335
f 382 466 384
f 382 466 385
f 382 386 384
f 382 383 386
f 389 461 387
f 389 422 461
f 275 300 292
f 275 274 300
f 248 220 224
f 248 223 224
f 281 221 250
f 281 250 218
f 506 470 451
f 251 250 218
f 251 283 218
f 365 287 288
f 365 287 217
f 482 520 487
f 482 480 481
f 530 529 532
f 377 245 304
f 377 305 304
f 377 245 132
f 377 305 263
f 259 260 376
f 262 237 246
f 333 100 335
f 333 93 100
f 333 93 228
f 329 228 330
f 213 212 189
f 83 80 95
f 83 92 95
f 83 92 82
f 196 99 56
f 196 212 189
f 196 212 56
f 78 99 56
f 78 94 56
f 79 93 80
f 79 94 56
f 79 93 56
f 128 140 65
f 128 140 127
f 141 140 144
f 141 140 127
f 112 245 234
f 206 208 216
f 73 74 144
f 73 140 65
f 73 140 144
f 75 97 144
f 75 74 144
f 59 60 111
f 63 62 57
f 58 37 20
f 58 62 57
f 58 244 37
f 108 59 111
f 108 59 61
f 108 109 61
f 238 260 246
f 238 260 376
f 184 237 375
f 242 254 370
f 371 108 109
f 392 395 21
f 392 37 403
f 392 37 21
f 415 416 479
f 415 45 24
f 415 416 24
f 469 492 465
f 526 515 489
f 526 515 516
f 523 492 465
f 517 520 487
f 346 307 351
f 352 296 295
f 352 311 295
f 352 296 347
f 352 349 347
f 414 426 412
f 414 413 426
f 414 52 412
f 414 413 52
f 91 36 32
f 91 31 32
f 338 225 337
f 338 233 278
f 338 225 233
f 55 225 34
f 55 225 227
f 55 92 227
f 55 82 81
f 55 92 82
f 28 47 27
f 48 29 84
f 48 29 50
f 48 417 50
f 48 28 84
f 48 28 47
f 54 537 34
f 54 86 53
f 500 495 443
f 500 443 401
f 432 433 406
f 432 416 406
f 432 434 416
f 543 48 417
f 428 427 538
f 428 410 429
f 428 410 538
f 539 426 412
f 539 427 412
f 336 334 277
f 273 341 298
f 340 274 300
f 340 341 300
f 340 273 341
f 460 422 461
f 460 422 390
f 339 275 292
f 339 233 292
f 339 233 278
f 474 445 508
f 222 223 280
f 222 248 223
f 222 281 280
f 222 281 221
f 505 448 507
f 256 283 282
f 256 251 283
f 256 287 282
f 256 287 217
f 476 482 480
f 476 513 480
f 477 478 483
f 509 435 478
f 440 445 508
f 511 478 483
f 511 435 478
f 350 349 347
f 533 531 466
f 533 530 531
f 533 530 529
f 512 513 480
f 512 484 483
f 512 477 513
f 512 477 483
f 373 377 263
f 258 257 240
f 258 239 240
f 258 239 376
f 258 259 376
f 261 260 246
f 261 262 246
f 374 373 375
f 374 373 263
f 374 237 375
f 374 262 237
f 332 276 335
f 332 333 335
f 328 266 330
f 328 329 330
f 235 270 325
f 235 270 232
f 271 235 231
f 271 235 325
f 215 213 232
f 215 235 232
f 215 214 216
f 215 231 216
f 215 235 231
f 230 213 212
f 230 213 232
f 202 141 144
f 139 141 127
f 139 125 127
f 139 202 141
f 139 124 142
f 139 124 125
f 326 231 216
f 122 245 132
f 122 112 245
f 134 210 234
f 134 112 234
f 209 206 208
f 77 194 98
f 77 194 76
f 185 207 206
f 185 206 216
f 107 60 111
f 107 105 111
f 110 63 57
f 110 63 61
f 110 109 61
f 110 242 57
f 110 242 370
f 101 58 20
f 101 58 62
f 129 128 127
f 129 130 127
f 129 128 65
f 129 174 130
f 68 67 153
f 180 239 376
f 180 239 111
f 367 242 254
f 241 254 370
f 241 371 109
f 241 372 371
f 241 110 370
f 241 110 109
f 4 38 5
f 4 1 3
f 4 38 1
f 7 41 8
f 458 392 395
f 394 38 400
f 394 453 400
f 42 41 8
f 42 19 8
f 17 45 16
f 17 415 45
f 475 491 471
f 490 472 471
f 490 491 471
f 545 482 487
f 313 312 294
f 313 311 312
f 302 316 355
f 302 313 294
f 302 313 316
f 317 353 355
f 317 316 355
f 317 313 311
f 317 313 316
f 464 523 465
f 356 311 295
f 356 311 312
f 356 312 294
f 518 526 487
f 518 517 487
f 518 517 516
f 518 526 516
f 381 352 349
f 35 55 81
f 35 55 34
f 35 54 34
f 87 52 53
f 87 86 53
f 87 31 52
f 90 91 36
f 425 534 537
f 425 419 424
f 425 537 419
f 535 413 426
f 536 534 537
f 536 54 537
f 536 535 534
f 536 535 413
f 536 413 53
f 536 54 53
f 442 434 479
f 12 500 401
f 496 441 495
f 496 500 495
f 542 543 433
f 542 417 541
f 542 543 417
f 407 48 47
f 407 543 48
f 407 47 406
f 407 433 406
f 407 543 433
f 226 336 279
f 226 279 227
f 226 336 334
f 226 92 227
f 226 92 95
f 226 334 95
f 342 299 298
f 446 474 507
f 446 474 445
f 449 505 506
f 449 505 448
f 514 476 482
f 514 482 520
f 510 509 508
f 510 440 508
f 510 509 435
f 348 350 349
f 348 306 349
f 348 307 308
f 303 307 351
f 303 348 307
f 303 348 350
f 544 530 531
f 546 512 480
f 331 332 333
f 331 333 228
f 331 329 228
f 229 266 330
f 229 230 212
f 229 56 330
f 229 212 56
f 327 270 232
f 327 230 232
f 145 139 142
f 145 139 202
f 116 176 121
f 119 124 123
f 119 138 118
f 119 124 142
f 120 119 118
f 211 208 216
f 211 326 216
f 211 208 210
f 211 210 236
f 324 211 236
f 324 211 326
f 269 271 231
f 269 326 231
f 148 209 206
f 147 208 210
f 147 209 208
f 205 207 206
f 195 78 98
f 195 190 78
f 195 194 98
f 197 78 99
f 197 190 78
f 197 196 99
f 197 196 189
f 197 190 189
f 188 215 213
f 188 195 194
f 188 195 190
f 192 96 97
f 186 214 216
f 186 185 216
f 186 215 214
f 186 188 215
f 186 188 194
f 104 174 64
f 104 174 103
f 102 174 103
f 102 129 65
f 102 129 174
f 243 367 242
f 243 58 244
f 243 58 57
f 243 242 57
f 368 372 371
f 368 371 108
f 368 111 240
f 368 108 111
f 255 241 254
f 255 241 372
f 39 38 5
f 39 9 5
f 39 38 400
f 6 9 5
f 40 7 69
f 40 7 41
f 40 6 69
f 40 6 9
f 503 39 400
f 503 39 9
f 459 458 395
f 456 458 392
f 456 457 403
f 456 392 403
f 454 394 504
f 454 394 453
f 393 38 1
f 393 394 38
f 393 395 1
f 393 394 504
f 393 459 504
f 393 459 395
f 497 443 401
f 499 12 401
f 499 12 19
f 499 497 498
f 499 497 401
f 10 19 8
f 10 12 19
f 10 12 11
f 70 71 18
f 44 17 16
f 44 71 18
f 494 475 491
f 519 490 491
f 519 494 491
f 519 489 473
f 519 526 489
f 519 472 473
f 519 490 472
f 519 526 487
f 519 545 487
f 354 293 353
f 354 317 353
f 467 529 532
f 493 464 468
f 493 464 523
f 528 522 462
f 528 467 522
f 528 467 532
f 528 485 532
f 88 54 86
f 88 35 54
f 89 30 33
f 89 36 33
f 89 90 36
f 420 415 479
f 420 442 479
f 22 70 18
f 22 70 14
f 22 14 13
f 43 12 500
f 43 496 13
f 43 496 500
f 43 14 13
f 272 273 298
f 272 342 298
f 343 345 299
f 343 342 299
f 447 448 507
f 447 446 507
f 450 506 451
f 450 449 506
f 486 530 532
f 265 327 230
f 265 229 266
f 265 229 230
f 199 145 142
f 204 138 143
f 204 206 150
f 204 205 206
f 114 122 132
f 114 122 112
f 114 115 112
f 137 138 143
f 137 119 138
f 137 119 142
f 137 199 142
f 164 176 121
f 164 120 121
f 131 119 123
f 131 120 119
f 323 247 236
f 323 324 236
f 117 138 118
f 117 120 121
f 117 120 118
f 117 116 121
f 135 148 209
f 133 147 209
f 133 135 209
f 133 134 210
f 133 147 210
f 133 134 112
f 133 115 112
f 187 213 189
f 187 188 213
f 187 190 189
f 187 188 190
f 191 97 144
f 191 192 97
f 191 202 144
f 193 192 185
f 193 186 185
f 193 186 194
f 193 194 76
f 193 96 76
f 193 192 96
f 156 107 106
f 156 157 107
f 161 107 105
f 161 157 107
f 181 180 376
f 181 238 376
f 163 174 64
f 126 124 123
f 126 124 125
f 126 125 127
f 126 130 127
f 175 179 184
f 175 164 176
f 178 184 375
f 178 179 184
f 178 373 375
f 178 179 132
f 178 377 132
f 178 373 377
f 253 243 367
f 253 244 252
f 253 243 244
f 369 368 372
f 369 257 240
f 369 368 240
f 502 503 455
f 502 453 400
f 502 503 400
f 396 503 455
f 396 503 9
f 396 40 9
f 396 40 399
f 402 42 19
f 402 499 19
f 438 501 399
f 398 402 436
f 398 42 41
f 398 402 42
f 72 44 16
f 72 44 71
f 521 523 492
f 521 494 523
f 521 469 492
f 521 475 469
f 521 494 475
f 318 293 301
f 318 354 293
f 318 354 317
f 525 493 523
f 525 524 527
f 525 524 468
f 525 493 468
f 463 524 527
f 488 528 462
f 488 463 462
f 488 463 527
f 488 525 527
f 488 525 523
f 488 494 523
f 488 519 494
f 488 528 482
f 488 519 545
f 488 545 482
f 404 17 415
f 404 420 415
f 404 44 17
f 404 44 18
f 15 43 14
f 15 12 11
f 15 43 12
f 267 297 345
f 201 192 185
f 177 114 132
f 177 179 132
f 177 116 176
f 177 114 116
f 177 175 176
f 177 175 179
f 169 131 123
f 165 164 120
f 165 131 120
f 165 169 131
f 165 164 166
f 268 324 326
f 268 323 324
f 268 269 326
f 113 135 117
f 113 117 116
f 113 133 115
f 113 133 135
f 113 114 116
f 113 114 115
f 146 135 148
f 146 206 150
f 146 148 206
f 203 145 202
f 203 191 202
f 203 191 145
f 162 161 105
f 162 105 111
f 162 180 111
f 158 156 157
f 160 181 180
f 160 162 180
f 160 161 157
f 160 162 161
f 182 181 238
f 182 238 246
f 182 158 181
f 182 237 246
f 182 184 237
f 182 158 155
f 173 163 174
f 173 174 130
f 173 126 130
f 152 155 153
f 152 155 184
f 152 175 184
f 444 402 436
f 444 499 498
f 444 402 499
f 439 396 455
f 439 396 399
f 439 438 399
f 437 398 436
f 397 398 41
f 397 40 41
f 397 40 399
f 397 501 399
f 397 437 501
f 397 437 398
f 320 358 301
f 405 420 442
f 405 404 420
f 405 442 441
f 405 496 441
f 405 496 13
f 405 22 13
f 405 22 18
f 405 404 18
f 344 343 345
f 344 267 345
f 264 267 297
f 264 297 351
f 264 346 351
f 198 201 143
f 198 201 185
f 198 185 207
f 198 205 207
f 198 204 143
f 198 204 205
f 149 201 143
f 149 201 199
f 149 137 143
f 149 137 199
f 200 199 145
f 200 201 199
f 200 201 192
f 200 191 145
f 200 191 192
f 136 146 150
f 136 204 150
f 136 204 138
f 136 146 135
f 136 117 138
f 136 135 117
f 154 158 156
f 154 155 153
f 154 158 155
f 154 66 67
f 154 67 153
f 154 66 106
f 154 156 106
f 159 158 181
f 159 160 181
f 159 158 157
f 159 160 157
f 183 155 184
f 183 182 184
f 183 182 155
f 170 163 171
f 170 169 171
f 170 173 126
f 170 126 123
f 170 169 123
f 151 152 153
f 151 68 153
f 151 163 171
f 151 68 64
f 151 163 64
f 168 152 166
f 168 165 166
f 168 165 169
f 168 151 152
f 168 169 171
f 168 151 171
f 167 175 164
f 167 152 175
f 167 164 166
f 167 152 166
f 321 318 301
f 321 320 301
f 321 318 317
f 360 320 358
f 172 173 163
f 172 170 163
f 172 170 173
f 357 360 358
f 362 319 361
f 362 357 361
f 362 357 360
f 362 360 320
f 362 321 320
f 291 319 361
f 315 285 286
f 380 317 311
f 380 352 311
f 314 315 286
f 314 291 286
f 314 291 319
f 314 362 319
f 359 285 284
f 359 315 285
f 359 380 352
f 359 314 315
f 359 314 362
f 359 380 317
f 359 321 317
f 359 362 321
f 363 289 284
f 363 359 284
f 363 290 289
f 310 379 365
f 310 364 288
f 310 365 288
f 366 310 309
f 366 378 363
f 366 363 290
f 366 290 364
f 366 310 364
f 300 391 390
f 300 391 292
f 37 219 403
f 419 34 233
f 419 391 292
f 419 233 292
f 299 461 298
f 299 461 388
f 470 219 403
f 470 219 224
f 485 480 532
f 485 480 481
f 506 470 224
f 506 223 224
f 469 293 353
f 469 353 465
f 517 516 286
f 517 285 286
f 517 285 284
f 517 520 284
f 346 365 217
f 346 365 307
f 460 461 298
f 460 341 298
f 460 300 390
f 460 341 300
f 474 283 508
f 474 283 218
f 474 281 218
f 474 281 507
f 505 281 507
f 505 281 280
f 505 506 223
f 505 223 280
f 477 287 478
f 477 287 288
f 477 364 288
f 477 364 513
f 509 283 508
f 509 283 282
f 509 287 478
f 509 287 282
f 511 531 385
f 511 531 483
f 475 358 471
f 475 358 301
f 475 469 293
f 475 293 301
f 464 353 465
f 464 353 355
f 464 302 355
f 464 302 468
f 522 462 295
f 522 296 295
f 345 299 388
f 345 386 388
f 290 364 513
f 290 476 513
f 514 290 476
f 514 290 289
f 514 520 284
f 514 289 284
f 303 533 466
f 303 466 351
f 303 350 529
f 303 533 529
f 544 531 483
f 544 484 483
f 544 512 530
f 544 512 484
f 467 350 529
f 467 350 347
f 467 522 296
f 467 296 347
f 524 302 468
f 524 302 294
f 528 485 481
f 528 482 481
f 297 466 351
f 297 466 384
f 297 345 386
f 297 386 384
f 486 480 532
f 486 546 480
f 486 512 530
f 486 546 512
f 463 524 294
f 463 356 294
f 463 462 295
f 463 356 295
f 379 365 307
f 379 307 308
f 15 2 20
f 15 83 80
f 15 104 64
f 15 4 5
f 15 107 106
f 15 85 27
f 15 96 97
f 15 101 20
f 15 6 5
f 15 82 81
f 15 79 80
f 15 28 27
f 15 63 61
f 15 68 64
f 15 25 16
f 15 87 31
f 15 29 30
f 15 78 98
f 15 73 65
f 15 77 98
f 15 75 97
f 15 59 61
f 15 88 86
f 15 2 3
f 15 89 30
f 15 25 23
f 15 85 23
f 15 29 84
f 15 83 82
f 15 78 94
f 15 79 94
f 15 73 74
f 15 75 74
f 15 59 60
f 15 63 62
f 15 66 106
f 15 102 65
f 15 7 8
f 15 35 81
f 15 91 31
f 15 28 84
f 15 77 76
f 15 96 76
f 15 107 60
f 15 101 62
f 15 66 67
f 15 68 67
f 15 4 3
f 15 7 69
f 15 72 16
f 15 10 8
f 15 70 14
f 15 87 86
f 15 90 91
f 15 104 103
f 15 102 103
f 15 6 69
f 15 10 11
f 15 70 71
f 15 88 35
f 15 89 90
f 15 72 71
f 437 452 457
f 437 450 451
f 437 423 424
f 437 440 445
f 437 382 385
f 437 389 387
f 437 511 385
f 437 383 387
f 437 442 434
f 437 495 443
f 437 452 451
f 437 540 541
f 437 423 421
f 437 430 429
f 437 432 434
f 437 422 421
f 437 511 435
f 437 430 431
f 437 540 431
f 437 454 504
f 437 535 426
f 437 428 429
f 437 382 383
f 437 389 422
f 437 539 426
f 437 446 445
f 437 459 504
f 437 497 443
f 437 425 424
f 437 441 495
f 437 432 433
f 437 428 427
f 437 539 427
f 437 542 541
f 437 447 448
f 437 510 435
f 437 456 457
f 437 444 436
f 437 425 534
f 437 535 534
f 437 442 441
f 437 542 433
f 437 502 455
f 437 449 448
f 437 510 440
f 437 459 458
f 437 456 458
f 437 454 453
f 437 497 498
f 437 439 455
f 437 447 446
f 437 450 449
f 437 502 453
f 437 438 501
f 437 444 498
f 437 439 438
f 264 256 217
f 264 305 247
f 264 374 263
f 264 305 263
f 264 249 220
f 264 277 276
f 264 331 329
f 264 249 252
f 264 251 250
f 264 332 276
f 264 323 247
f 264 336 279
f 264 346 217
f 264 261 260
f 264 337 279
f 264 338 278
f 264 340 274
f 264 221 250
f 264 248 220
f 264 369 257
f 264 275 274
f 264 328 266
f 264 339 278
f 264 222 221
f 264 259 260
f 264 258 257
f 264 338 337
f 264 336 277
f 264 253 252
f 264 340 273
f 264 339 275
f 264 222 248
f 264 256 251
f 264 258 259
f 264 261 262
f 264 374 262
f 264 272 273
f 264 328 329
f 264 270 325
f 264 271 325
f 264 367 254
f 264 265 266
f 264 255 254
f 264 331 332
f 264 327 270
f 264 269 271
f 264 255 372
f 264 272 342
f 264 343 342
f 264 265 327
f 264 344 343
f 264 253 367
f 264 369 372
f 264 268 269
f 264 268 323
f 264 344 267
f 357 472 473
f 357 361 473
f 357 358 471
f 357 472 471
f 291 516 286
f 291 515 516
f 291 361 473
f 291 515 473
f 363 359 352
f 310 309 306
f 310 348 306
f 310 379 308
f 310 348 308
f 378 363 352
f 378 381 352
f 366 309 306
f 366 306 349
f 366 378 381
f 366 381 349
