v -0.035000 -0.054000 0.026000
v -0.035000 -0.044000 0.082000
v -0.035000 -0.044000 0.028000
v -0.035000 0.000000 -0.000000
v -0.035000 0.000000 0.028000
v -0.035000 -0.074000 0.082000
v -0.035000 -0.074000 0.026000
v -0.035000 -0.054000 -0.000000
v 0.035000 0.000000 0.028000
v -0.035000 0.000000 0.028000
v -0.035000 -0.044000 0.028000
v 0.035000 -0.044000 0.028000
v 0.035000 0.000000 -0.000000
v -0.035000 0.000000 -0.000000
v -0.035000 0.000000 0.028000
v 0.035000 0.000000 0.028000
v -0.035000 -0.054000 -0.000000
v -0.035000 0.000000 -0.000000
v 0.035000 0.000000 -0.000000
v 0.035000 -0.054000 -0.000000
v -0.035000 -0.054000 0.026000
v -0.035000 -0.054000 -0.000000
v 0.035000 -0.054000 -0.000000
v 0.035000 -0.054000 0.026000
v -0.035000 -0.074000 0.026000
v -0.035000 -0.054000 0.026000
v 0.035000 -0.054000 0.026000
v 0.035000 -0.074000 0.026000
v -0.035000 -0.074000 0.082000
v -0.035000 -0.074000 0.026000
v 0.035000 -0.074000 0.026000
v 0.035000 -0.074000 0.082000
v 0.035000 -0.044000 0.082000
v -0.035000 -0.044000 0.082000
v -0.035000 -0.074000 0.082000
v 0.035000 -0.074000 0.082000
v 0.035000 -0.044000 0.082000
v -0.025637 -0.044000 0.075500
v -0.035000 -0.044000 0.082000
v -0.025637 -0.044000 0.054500
v 0.025637 -0.044000 0.054500
v 0.025637 -0.044000 0.075500
v 0.035000 -0.044000 0.028000
v -0.035000 -0.044000 0.028000
v 0.035000 -0.044000 0.028000
v 0.035000 -0.044000 0.082000
v 0.035000 -0.054000 0.026000
v 0.035000 0.000000 0.028000
v 0.035000 0.000000 -0.000000
v 0.035000 -0.074000 0.082000
v 0.035000 -0.074000 0.026000
v 0.035000 -0.054000 -0.000000
v 0.016319 -0.047332 0.075500
v -0.019482 -0.046386 0.075500
v 0.019482 -0.046386 0.075500
v 0.013110 -0.048110 0.075500
v -0.016319 -0.047332 0.075500
v 0.022591 -0.045274 0.075500
v -0.022591 -0.045274 0.075500
v 0.009865 -0.048717 0.075500
v 0.006592 -0.049151 0.075500
v -0.009865 -0.048717 0.075500
v 0.003301 -0.049413 0.075500
v -0.006592 -0.049151 0.075500
v -0.013110 -0.048110 0.075500
v -0.025637 -0.044000 0.075500
v 0.025637 -0.044000 0.075500
v -0.003301 -0.049413 0.075500
v 0.000000 -0.049500 0.075500
v 0.022591 -0.045274 0.054500
v 0.022591 -0.045274 0.075500
v 0.025637 -0.044000 0.075500
v 0.016319 -0.047332 0.054500
v 0.016319 -0.047332 0.075500
v 0.019482 -0.046386 0.075500
v 0.019482 -0.046386 0.054500
v 0.009865 -0.048717 0.054500
v 0.009865 -0.048717 0.075500
v 0.013110 -0.048110 0.075500
v 0.003301 -0.049413 0.054500
v 0.003301 -0.049413 0.075500
v 0.006592 -0.049151 0.075500
v 0.006592 -0.049151 0.054500
v 0.013110 -0.048110 0.054500
v 0.025637 -0.044000 0.054500
v 0.000000 -0.049500 0.054500
v 0.000000 -0.049500 0.075500
v -0.006592 -0.049151 0.054500
v -0.006592 -0.049151 0.075500
v -0.003301 -0.049413 0.075500
v -0.013110 -0.048110 0.054500
v -0.013110 -0.048110 0.075500
v -0.009865 -0.048717 0.075500
v -0.009865 -0.048717 0.054500
v -0.019482 -0.046386 0.054500
v -0.019482 -0.046386 0.075500
v -0.016319 -0.047332 0.075500
v -0.025637 -0.044000 0.054500
v -0.025637 -0.044000 0.075500
v -0.022591 -0.045274 0.075500
v -0.022591 -0.045274 0.054500
v -0.016319 -0.047332 0.054500
v -0.003301 -0.049413 0.054500
v 0.019482 -0.046386 0.054500
v -0.019482 -0.046386 0.054500
v 0.016319 -0.047332 0.054500
v -0.016319 -0.047332 0.054500
v 0.013110 -0.048110 0.054500
v -0.022591 -0.045274 0.054500
v 0.022591 -0.045274 0.054500
v -0.009865 -0.048717 0.054500
v 0.006592 -0.049151 0.054500
v 0.009865 -0.048717 0.054500
v -0.006592 -0.049151 0.054500
v 0.003301 -0.049413 0.054500
v -0.013110 -0.048110 0.054500
v 0.025637 -0.044000 0.054500
v -0.025637 -0.044000 0.054500
v 0.000000 -0.049500 0.054500
v -0.003301 -0.049413 0.054500
f 1 2 3
f 4 3 5
f 1 6 2
f 6 1 7
f 8 3 4
f 1 3 8
f 9 10 11
f 11 12 9
f 13 14 15
f 15 16 13
f 17 18 19
f 19 20 17
f 21 22 23
f 23 24 21
f 25 26 27
f 27 28 25
f 29 30 31
f 31 32 29
f 33 34 35
f 35 36 33
f 37 38 39
f 40 39 38
f 41 42 37
f 38 37 42
f 43 44 40
f 39 40 44
f 37 43 41
f 40 41 43
f 45 46 47
f 48 45 49
f 46 50 47
f 51 47 50
f 49 45 52
f 52 45 47
f 53 54 55
f 56 57 53
f 58 55 59
f 60 61 62
f 61 63 64
f 56 60 65
f 66 67 58
f 54 53 57
f 55 54 59
f 56 65 57
f 68 63 69
f 63 68 64
f 64 62 61
f 60 62 65
f 66 58 59
f 70 71 72
f 73 74 75
f 76 75 71
f 77 78 79
f 80 81 82
f 83 82 78
f 84 79 74
f 70 72 85
f 73 75 76
f 70 76 71
f 84 77 79
f 74 73 84
f 83 78 77
f 80 82 83
f 81 80 86
f 81 86 87
f 88 89 90
f 91 92 93
f 94 93 89
f 95 96 97
f 98 99 100
f 101 100 96
f 102 97 92
f 103 87 86
f 89 88 94
f 88 90 103
f 92 91 102
f 96 95 101
f 100 101 98
f 95 97 102
f 91 93 94
f 90 87 103
f 104 105 106
f 106 107 108
f 109 104 110
f 111 112 113
f 114 115 112
f 116 113 108
f 110 117 118
f 107 106 105
f 109 105 104
f 107 116 108
f 119 115 120
f 114 120 115
f 112 111 114
f 116 111 113
f 109 110 118
