v 0.034028 0.000451 0.027470
v 0.034028 0.000175 0.028160
v 0.034847 0.000112 0.028101
v 0.034847 0.000330 0.027470
v 0.034028 0.000451 0.001232
v -0.034028 0.000451 0.027470
v 0.034028 -0.000512 0.028446
v -0.034028 0.000175 0.028160
v 0.034847 -0.000512 0.028324
v 0.035319 0.000003 0.027985
v 0.035354 0.000053 0.027470
v 0.034847 0.000330 0.001232
v 0.034847 0.000317 0.000412
v 0.034028 0.000430 0.000412
v -0.034028 0.000451 0.001232
v -0.034847 0.000330 0.027470
v -0.034847 0.000112 0.028101
v 0.034028 -0.001332 0.028449
v -0.034028 -0.000512 0.028446
v 0.035354 -0.000512 0.028039
v 0.034028 -0.042302 0.028452
v 0.034847 -0.042302 0.028324
v 0.035451 -0.000512 0.027470
v 0.035354 0.000053 0.000412
v 0.035319 0.000003 -0.000086
v 0.034847 0.000104 -0.000177
v 0.034028 0.000154 -0.000225
v -0.034028 0.000430 0.000412
v -0.034847 0.000317 0.000412
v -0.034847 0.000330 0.001232
v -0.035354 0.000053 0.027470
v -0.035319 0.000003 0.027985
v -0.034847 -0.000512 0.028324
v -0.034028 -0.001332 0.028449
v 0.035354 -0.042302 0.028039
v -0.034028 -0.042302 0.028452
v 0.035451 -0.000512 0.000412
v 0.035451 -0.042302 0.027470
v 0.034847 -0.000512 -0.000355
v 0.035354 -0.000512 -0.000128
v 0.034028 -0.000512 -0.000451
v -0.034028 0.000154 -0.000225
v -0.034847 0.000104 -0.000177
v -0.035319 0.000003 -0.000086
v -0.035354 0.000053 0.000412
v -0.035451 -0.000512 0.027470
v -0.035354 -0.000512 0.028039
v -0.034819 -0.042302 0.028330
v -0.034847 -0.042302 0.028324
v 0.035451 -0.042302 0.000412
v 0.034847 -0.042302 -0.000355
v 0.035354 -0.042302 -0.000128
v 0.034028 -0.042302 -0.000451
v -0.034028 -0.000512 -0.000451
v -0.034847 -0.000512 -0.000355
v -0.035354 -0.000512 -0.000128
v -0.035451 -0.000512 0.000412
v -0.035451 -0.042302 0.027470
v -0.035354 -0.042302 0.028039
v -0.034028 -0.042302 -0.000451
v -0.034847 -0.042302 -0.000355
v -0.035354 -0.042302 -0.000128
v -0.035451 -0.042302 0.000412
v -0.033209 -0.056054 0.025542
v -0.034028 -0.072670 0.025553
v -0.034028 -0.056054 0.025548
v 0.033813 -0.056054 0.025542
v -0.034028 -0.073489 0.025564
v -0.034847 -0.072670 0.025687
v 0.034028 -0.072670 0.025553
v -0.034847 -0.056054 0.025687
v 0.034028 -0.056054 0.025548
v -0.034028 -0.074175 0.025910
v -0.034847 -0.074114 0.025971
v -0.034847 -0.073489 0.025698
v 0.034028 -0.073489 0.025564
v -0.035354 -0.073489 0.026032
v 0.034847 -0.072670 0.025687
v -0.035354 -0.056054 0.026032
v 0.034632 -0.056054 0.025648
v -0.034028 -0.074451 0.026651
v 0.034028 -0.074175 0.025910
v -0.034847 -0.074330 0.026651
v -0.035319 -0.074003 0.026105
v 0.034847 -0.073489 0.025698
v 0.034847 -0.074114 0.025971
v -0.035451 -0.073489 0.026651
v 0.034847 -0.056054 0.025687
v 0.035222 -0.056054 0.025937
v 0.035354 -0.073489 0.026032
v -0.035451 -0.056054 0.026651
v -0.034028 -0.074451 0.080769
v 0.034028 -0.074451 0.026651
v -0.034847 -0.074330 0.080769
v -0.035354 -0.074055 0.026651
v 0.035319 -0.074003 0.026105
v 0.034847 -0.074330 0.026651
v -0.035451 -0.073489 0.081588
v 0.035354 -0.056054 0.026032
v 0.035451 -0.073489 0.026651
v -0.035451 -0.056054 0.081588
v -0.034028 -0.074431 0.081588
v -0.034847 -0.074320 0.081588
v 0.034028 -0.074451 0.080769
v -0.035354 -0.074055 0.081588
v 0.035354 -0.074055 0.026651
v 0.034847 -0.074330 0.080769
v -0.035319 -0.074003 0.082083
v -0.035354 -0.073489 0.082128
v 0.035451 -0.056054 0.026651
v 0.035451 -0.073489 0.081588
v -0.035354 -0.056054 0.082128
v -0.034028 -0.074156 0.082223
v -0.034847 -0.074105 0.082172
v 0.034028 -0.074431 0.081588
v 0.034847 -0.074320 0.081588
v 0.035354 -0.074055 0.081588
v -0.034847 -0.073489 0.082351
v -0.035222 -0.056054 0.082189
v 0.035451 -0.056054 0.081588
v 0.035354 -0.073489 0.082128
v 0.035319 -0.074003 0.082083
v -0.034028 -0.073489 0.082451
v 0.034028 -0.074156 0.082223
v 0.034847 -0.074105 0.082172
v -0.034632 -0.056054 0.082379
v -0.034847 -0.056054 0.082351
v 0.035354 -0.056054 0.082128
v 0.034979 -0.056054 0.082295
v 0.034847 -0.073489 0.082351
v -0.034028 -0.056054 0.082451
v 0.034028 -0.073489 0.082451
v 0.034847 -0.056054 0.082351
v 0.034028 -0.056054 0.082451
v 0.035451 -0.042303 0.027470
v 0.035451 -0.042303 0.023225
v 0.035354 -0.042303 0.028040
v 0.035354 -0.044068 0.029940
v 0.035451 -0.044791 0.029940
v 0.035451 -0.052990 0.023225
v -0.035451 -0.042303 0.023225
v 0.034847 -0.042303 0.028326
v 0.034910 -0.043659 0.029940
v 0.035451 -0.056054 0.029940
v 0.035451 -0.056054 0.026650
v 0.035409 -0.053810 0.023225
v -0.035451 -0.052990 0.023225
v -0.035451 -0.042303 0.027470
v 0.034056 -0.042303 0.028447
v 0.034500 -0.043555 0.029940
v 0.034507 -0.043557 0.029940
v -0.035451 -0.056054 0.029940
v 0.035354 -0.056054 0.026032
v 0.035319 -0.054281 0.023225
v -0.035451 -0.056054 0.026650
v -0.035444 -0.053134 0.023225
v -0.035354 -0.044068 0.029940
v -0.035354 -0.042303 0.028040
v -0.035451 -0.044791 0.029940
v 0.034028 -0.042303 0.028451
v 0.034028 -0.043549 0.029940
v 0.035222 -0.056054 0.025937
v 0.034847 -0.056054 0.025683
v 0.034847 -0.054397 0.023225
v -0.035409 -0.053810 0.023225
v -0.035395 -0.053892 0.023225
v -0.035319 -0.054281 0.023225
v -0.035354 -0.056054 0.026032
v -0.034917 -0.043664 0.029940
v -0.034910 -0.043659 0.029940
v -0.034847 -0.042303 0.028326
v -0.034028 -0.042303 0.028451
v -0.034035 -0.043549 0.029940
v 0.034632 -0.056054 0.025643
v 0.034028 -0.056054 0.025542
v 0.034028 -0.054450 0.023225
v -0.034930 -0.054376 0.023225
v -0.034847 -0.056054 0.025683
v -0.034500 -0.043555 0.029940
v -0.034819 -0.042303 0.028331
v -0.034028 -0.056054 0.025542
v -0.034028 -0.054450 0.023225
v -0.034847 -0.054397 0.023225
v -0.034174 -0.054441 0.023225
v -0.034028 -0.052989 -0.000451
v -0.034028 -0.053809 -0.000375
v -0.034847 -0.053809 -0.000293
v -0.034847 -0.052989 -0.000354
v -0.034028 -0.042302 -0.000451
v 0.034028 -0.052989 -0.000451
v -0.034028 -0.054334 -0.000150
v -0.034847 -0.054308 -0.000115
v 0.034028 -0.053809 -0.000375
v -0.035298 -0.054261 -0.000055
v -0.035333 -0.053809 -0.000106
v -0.034847 -0.042302 -0.000354
v -0.035354 -0.052989 -0.000129
v 0.034028 -0.042302 -0.000451
v 0.034819 -0.042302 -0.000358
v 0.034847 -0.052989 -0.000354
v 0.034847 -0.053809 -0.000293
v -0.034028 -0.054451 0.000411
v 0.034028 -0.054334 -0.000150
v -0.034847 -0.054396 0.000411
v 0.034847 -0.054308 -0.000115
v -0.035319 -0.054281 0.000411
v -0.035409 -0.053809 0.000411
v -0.035451 -0.052989 0.000411
v -0.035354 -0.042302 -0.000129
v 0.034847 -0.042302 -0.000354
v 0.035333 -0.042302 -0.000138
v 0.035354 -0.052989 -0.000129
v 0.035333 -0.053809 -0.000106
v 0.035298 -0.054261 -0.000055
v -0.034028 -0.054451 0.023223
v -0.034174 -0.054441 0.023223
v 0.034028 -0.054451 0.000411
v -0.034847 -0.054396 0.023223
v -0.034930 -0.054376 0.023223
v 0.034847 -0.054396 0.000411
v -0.035319 -0.054281 0.023223
v -0.035395 -0.053892 0.023223
v -0.035409 -0.053809 0.023223
v -0.035444 -0.053133 0.023223
v -0.035451 -0.042302 0.000411
v -0.035451 -0.052989 0.023223
v 0.035354 -0.042302 -0.000129
v 0.035451 -0.052989 0.000411
v 0.035409 -0.053809 0.000411
v 0.035319 -0.054281 0.000411
v 0.034028 -0.054451 0.023223
v 0.034847 -0.054396 0.023223
v -0.035451 -0.042302 0.023223
v 0.035451 -0.042302 0.000411
v 0.035451 -0.052989 0.023223
v 0.035409 -0.053809 0.023223
v 0.035319 -0.054281 0.023223
v 0.035451 -0.042302 0.023223
v 0.034028 -0.043549 0.081590
v 0.034028 -0.043555 0.082009
v 0.034479 -0.043556 0.082005
v 0.034500 -0.043555 0.081590
v 0.034028 -0.043549 0.074965
v -0.034028 -0.043549 0.081590
v 0.034028 -0.043970 0.082234
v -0.034028 -0.043555 0.082009
v 0.034792 -0.043928 0.082145
v 0.035319 -0.044173 0.082087
v 0.034910 -0.043659 0.081590
v 0.034500 -0.043555 0.074965
v -0.034028 -0.043549 0.074965
v -0.034500 -0.043555 0.081590
v -0.034479 -0.043556 0.082005
v 0.034028 -0.044790 0.082451
v -0.034028 -0.043970 0.082234
v 0.034847 -0.044790 0.082356
v 0.035354 -0.044790 0.082130
v 0.035451 -0.044790 0.081590
v 0.035354 -0.044069 0.081590
v 0.034944 -0.043691 0.074965
v 0.034910 -0.043659 0.074965
v -0.034500 -0.043555 0.074965
v -0.034535 -0.043564 0.074965
v -0.034910 -0.043659 0.081590
v -0.035319 -0.044173 0.082087
v -0.034792 -0.043928 0.082145
v 0.034028 -0.056054 0.082451
v -0.034028 -0.044790 0.082451
v 0.034847 -0.056054 0.082356
v 0.035354 -0.056054 0.082130
v 0.035451 -0.044790 0.074965
v 0.035451 -0.056054 0.081590
v 0.035354 -0.044069 0.074965
v -0.034910 -0.043659 0.074965
v -0.035319 -0.044036 0.074965
v -0.035354 -0.044069 0.081590
v -0.035451 -0.044790 0.081590
v -0.035354 -0.044790 0.082130
v -0.034847 -0.044790 0.082356
v -0.034028 -0.056054 0.082451
v 0.035451 -0.056054 0.074965
v -0.035354 -0.044069 0.074965
v -0.035451 -0.044790 0.074965
v -0.035451 -0.056054 0.081590
v -0.035354 -0.056054 0.082130
v -0.035222 -0.056054 0.082189
v -0.034847 -0.056054 0.082356
v -0.035451 -0.056054 0.074965
v -0.035451 -0.056054 0.029940
v -0.035451 -0.056054 0.055024
v -0.035451 -0.044791 0.029940
v 0.035451 -0.056054 0.029940
v -0.035451 -0.044791 0.055024
v 0.035451 -0.056054 0.055024
v -0.035354 -0.044069 0.029940
v 0.035451 -0.044791 0.029940
v -0.035354 -0.044069 0.055024
v 0.035451 -0.044791 0.055024
v -0.034917 -0.043663 0.029940
v 0.035354 -0.044069 0.029940
v -0.034910 -0.043658 0.055024
v 0.035354 -0.044069 0.055024
v -0.034910 -0.043658 0.029940
v 0.034910 -0.043658 0.029940
v -0.034500 -0.043556 0.055024
v -0.034500 -0.043554 0.029940
v 0.034910 -0.043658 0.055024
v 0.034507 -0.043556 0.029940
v -0.034313 -0.043553 0.055024
v -0.034028 -0.043550 0.055024
v -0.034035 -0.043550 0.029940
v 0.034750 -0.043618 0.055024
v 0.034500 -0.043554 0.029940
v 0.034500 -0.043556 0.055024
v 0.034028 -0.043550 0.055024
v 0.034028 -0.043550 0.029940
v -0.026647 -0.043549 0.065016
v -0.026542 -0.043550 0.065016
v -0.026039 -0.043555 0.055024
v -0.026355 -0.043551 0.055024
v -0.026647 -0.043549 0.055024
v -0.034028 -0.043549 0.065016
v -0.026147 -0.043555 0.065016
v -0.025675 -0.043577 0.055024
v -0.034028 -0.043549 0.055024
v -0.034313 -0.043553 0.055024
v -0.034500 -0.043555 0.065016
v -0.025824 -0.043576 0.065016
v -0.025737 -0.043582 0.065016
v -0.025422 -0.043598 0.055024
v -0.034500 -0.043555 0.055024
v -0.034913 -0.043659 0.065016
v -0.023853 -0.043835 0.055024
v -0.024672 -0.043701 0.055024
v 0.000003 -0.049039 0.065016
v 0.000003 -0.048086 0.055024
v -0.034913 -0.043659 0.055024
v -0.035354 -0.044069 0.065016
v 0.000003 -0.056054 0.065016
v 0.000003 -0.056054 0.055024
v -0.035354 -0.044069 0.055024
v -0.035375 -0.044221 0.065016
v -0.035451 -0.056054 0.065016
v -0.035451 -0.056054 0.055024
v -0.035451 -0.044790 0.055024
v -0.035451 -0.044790 0.065016
v 0.034028 -0.043549 0.074964
v 0.034500 -0.043555 0.074964
v 0.034129 -0.043550 0.065018
v 0.034028 -0.043549 0.065018
v 0.026649 -0.043549 0.074964
v 0.034500 -0.043555 0.065018
v 0.034913 -0.043659 0.074964
v 0.034826 -0.043637 0.065018
v 0.026649 -0.043549 0.065018
v 0.025982 -0.043554 0.074964
v 0.034913 -0.043659 0.065018
v 0.034948 -0.043691 0.074964
v 0.026149 -0.043555 0.065018
v 0.025913 -0.043555 0.074964
v 0.035354 -0.044069 0.065018
v 0.035354 -0.044069 0.074964
v 0.025736 -0.043582 0.065018
v 0.025500 -0.043571 0.074964
v 0.035451 -0.044790 0.065018
v 0.035451 -0.044790 0.074964
v 0.000006 -0.049039 0.065018
v 0.000006 -0.048279 0.074964
v 0.035451 -0.056054 0.065018
v 0.035451 -0.056054 0.074964
v 0.000006 -0.056054 0.065018
v 0.000006 -0.056054 0.074964
v -0.026649 -0.043549 0.074964
v -0.025910 -0.043555 0.074964
v -0.026649 -0.043549 0.065018
v -0.034028 -0.043549 0.074964
v -0.025750 -0.043565 0.074964
v -0.026146 -0.043555 0.065018
v -0.026542 -0.043550 0.065018
v -0.034028 -0.043549 0.065018
v -0.034500 -0.043555 0.074964
v -0.025632 -0.043575 0.074850
v -0.025737 -0.043582 0.065018
v -0.025823 -0.043576 0.065018
v -0.025133 -0.043647 0.074964
v -0.034500 -0.043555 0.065018
v -0.034535 -0.043564 0.074964
v -0.025008 -0.043669 0.074964
v 0.000006 -0.048279 0.074964
v 0.000006 -0.049039 0.065018
v -0.034913 -0.043659 0.065018
v -0.034913 -0.043659 0.074964
v 0.000006 -0.056054 0.074964
v 0.000006 -0.056054 0.065018
v -0.035354 -0.044069 0.065018
v -0.035319 -0.044036 0.074964
v -0.035451 -0.056054 0.074964
v -0.035451 -0.056054 0.065018
v -0.035375 -0.044221 0.065018
v -0.035354 -0.044069 0.074964
v -0.035451 -0.044790 0.074964
v -0.035451 -0.044790 0.065018
v 0.034028 -0.043549 0.065016
v 0.034129 -0.043550 0.065016
v 0.034028 -0.043549 0.055024
v 0.026648 -0.043549 0.065016
v 0.034500 -0.043555 0.065016
v 0.034500 -0.043555 0.055024
v 0.026648 -0.043549 0.055024
v 0.026041 -0.043555 0.055024
v 0.026148 -0.043555 0.065016
v 0.034826 -0.043637 0.065016
v 0.034750 -0.043618 0.055024
v 0.025871 -0.043565 0.055024
v 0.025676 -0.043577 0.055024
v 0.025739 -0.043582 0.065016
v 0.034913 -0.043659 0.065016
v 0.034913 -0.043659 0.055024
v 0.025007 -0.043681 0.055024
v 0.023390 -0.043946 0.055024
v 0.000006 -0.048086 0.055024
v 0.000006 -0.049039 0.065016
v 0.035354 -0.044069 0.065016
v 0.035354 -0.044069 0.055024
v 0.000006 -0.056054 0.055024
v 0.000006 -0.056054 0.065016
v 0.035413 -0.044504 0.055024
v 0.035451 -0.044790 0.065016
v 0.035451 -0.056054 0.055024
v 0.035451 -0.056054 0.065016
v 0.035451 -0.044790 0.055024
f 1 2 3
f 1 3 4
f 1 4 12
f 1 12 5
f 1 5 15
f 1 15 6
f 1 6 8
f 1 8 2
f 2 7 3
f 2 8 19
f 2 19 7
f 3 9 10
f 3 10 4
f 3 7 9
f 4 10 11
f 4 11 24
f 4 24 12
f 5 12 13
f 5 13 14
f 5 14 28
f 5 28 15
f 6 15 30
f 6 30 16
f 6 16 17
f 6 17 8
f 7 18 9
f 7 19 34
f 7 34 18
f 8 17 19
f 9 20 10
f 9 18 21
f 9 21 22
f 9 22 35
f 9 35 20
f 10 20 23
f 10 23 11
f 11 23 37
f 11 37 24
f 12 24 13
f 13 24 25
f 13 25 26
f 13 26 14
f 14 26 27
f 14 27 42
f 14 42 28
f 15 28 29
f 15 29 30
f 16 30 45
f 16 45 31
f 16 31 32
f 16 32 17
f 17 32 33
f 17 33 19
f 18 34 36
f 18 36 21
f 19 33 34
f 20 35 38
f 20 38 23
f 21 36 48
f 21 48 49
f 21 49 59
f 21 59 58
f 21 58 63
f 21 63 62
f 21 62 61
f 21 61 60
f 21 60 53
f 21 53 51
f 21 51 52
f 21 52 50
f 21 50 38
f 21 38 35
f 21 35 22
f 23 38 50
f 23 50 37
f 24 37 25
f 25 39 26
f 25 37 40
f 25 40 39
f 26 39 41
f 26 41 27
f 27 41 54
f 27 54 42
f 28 42 43
f 28 43 29
f 29 43 44
f 29 44 45
f 29 45 30
f 31 45 57
f 31 57 46
f 31 46 32
f 32 46 47
f 32 47 33
f 33 48 36
f 33 36 34
f 33 47 59
f 33 59 49
f 33 49 48
f 37 50 52
f 37 52 40
f 39 40 52
f 39 52 51
f 39 51 53
f 39 53 41
f 41 53 60
f 41 60 54
f 42 54 43
f 43 55 44
f 43 54 55
f 44 56 57
f 44 57 45
f 44 55 56
f 46 57 63
f 46 63 58
f 46 58 59
f 46 59 47
f 54 60 61
f 54 61 55
f 55 61 62
f 55 62 56
f 56 62 63
f 56 63 57
f 64 65 66
f 64 66 71
f 64 71 79
f 64 79 91
f 64 91 101
f 64 101 112
f 64 112 119
f 64 119 127
f 64 127 126
f 64 126 131
f 64 131 134
f 64 134 133
f 64 133 129
f 64 129 128
f 64 128 120
f 64 120 110
f 64 110 99
f 64 99 89
f 64 89 88
f 64 88 80
f 64 80 72
f 64 72 67
f 64 67 70
f 64 70 65
f 65 68 75
f 65 75 69
f 65 69 66
f 65 70 76
f 65 76 68
f 66 69 71
f 67 72 70
f 68 73 74
f 68 74 75
f 68 76 82
f 68 82 73
f 69 75 77
f 69 77 79
f 69 79 71
f 70 72 78
f 70 78 85
f 70 85 76
f 72 80 78
f 73 81 74
f 73 82 93
f 73 93 81
f 74 81 83
f 74 83 84
f 74 84 75
f 75 84 77
f 76 85 86
f 76 86 82
f 77 87 91
f 77 91 79
f 77 84 87
f 78 88 89
f 78 89 90
f 78 90 85
f 78 80 88
f 81 92 94
f 81 94 83
f 81 93 104
f 81 104 92
f 82 86 93
f 83 94 105
f 83 105 95
f 83 95 84
f 84 95 87
f 85 90 96
f 85 96 86
f 86 96 97
f 86 97 93
f 87 95 105
f 87 105 98
f 87 98 101
f 87 101 91
f 89 99 90
f 90 99 110
f 90 110 100
f 90 100 96
f 92 102 103
f 92 103 94
f 92 104 115
f 92 115 102
f 93 97 107
f 93 107 104
f 94 103 105
f 96 100 106
f 96 106 97
f 97 106 117
f 97 117 107
f 98 105 108
f 98 108 109
f 98 109 112
f 98 112 101
f 100 110 120
f 100 120 111
f 100 111 117
f 100 117 106
f 102 113 114
f 102 114 103
f 102 115 124
f 102 124 113
f 103 114 108
f 103 108 105
f 104 107 116
f 104 116 115
f 107 117 116
f 108 114 118
f 108 118 109
f 109 118 119
f 109 119 112
f 111 121 122
f 111 122 117
f 111 120 128
f 111 128 121
f 113 123 114
f 113 124 132
f 113 132 123
f 114 123 118
f 115 116 125
f 115 125 124
f 116 117 122
f 116 122 125
f 118 123 126
f 118 126 127
f 118 127 119
f 121 129 130
f 121 130 122
f 121 128 129
f 122 130 125
f 123 131 126
f 123 132 134
f 123 134 131
f 124 125 132
f 125 130 132
f 129 133 130
f 130 133 134
f 130 134 132
f 135 136 141
f 135 141 148
f 135 148 158
f 135 158 171
f 135 171 180
f 135 180 172
f 135 172 160
f 135 160 149
f 135 149 142
f 135 142 137
f 135 137 138
f 135 138 139
f 135 139 144
f 135 144 145
f 135 145 140
f 135 140 136
f 136 140 146
f 136 146 154
f 136 154 164
f 136 164 176
f 136 176 182
f 136 182 184
f 136 184 183
f 136 183 177
f 136 177 167
f 136 167 166
f 136 166 165
f 136 165 156
f 136 156 147
f 136 147 141
f 137 142 143
f 137 143 138
f 138 143 151
f 138 151 150
f 138 150 161
f 138 161 173
f 138 173 179
f 138 179 170
f 138 170 169
f 138 169 157
f 138 157 159
f 138 159 152
f 138 152 144
f 138 144 139
f 140 145 146
f 141 147 155
f 141 155 152
f 141 152 159
f 141 159 148
f 142 149 150
f 142 150 151
f 142 151 143
f 144 152 155
f 144 155 168
f 144 168 178
f 144 178 181
f 144 181 175
f 144 175 174
f 144 174 163
f 144 163 162
f 144 162 153
f 144 153 145
f 145 153 154
f 145 154 146
f 147 156 155
f 148 157 158
f 148 159 157
f 149 160 150
f 150 160 161
f 153 162 154
f 154 162 163
f 154 163 164
f 155 156 165
f 155 165 166
f 155 166 167
f 155 167 168
f 157 169 158
f 158 169 170
f 158 170 171
f 160 172 173
f 160 173 161
f 163 174 164
f 164 174 175
f 164 175 176
f 167 177 178
f 167 178 168
f 170 179 171
f 171 179 180
f 172 180 179
f 172 179 173
f 175 181 182
f 175 182 176
f 177 183 178
f 178 183 181
f 181 183 184
f 181 184 182
f 185 186 187
f 185 187 188
f 185 188 196
f 185 196 189
f 185 189 198
f 185 198 190
f 185 190 193
f 185 193 186
f 186 191 192
f 186 192 187
f 186 193 203
f 186 203 191
f 187 192 194
f 187 194 195
f 187 195 188
f 188 195 197
f 188 197 209
f 188 209 196
f 189 196 209
f 189 209 225
f 189 225 233
f 189 233 238
f 189 238 234
f 189 234 227
f 189 227 211
f 189 211 210
f 189 210 199
f 189 199 198
f 190 198 199
f 190 199 200
f 190 200 201
f 190 201 193
f 191 202 192
f 191 203 217
f 191 217 202
f 192 204 194
f 192 202 204
f 193 201 205
f 193 205 203
f 194 206 207
f 194 207 195
f 194 204 206
f 195 207 208
f 195 208 197
f 197 208 225
f 197 225 209
f 199 210 200
f 200 210 211
f 200 211 212
f 200 212 213
f 200 213 201
f 201 213 214
f 201 214 205
f 202 215 216
f 202 216 204
f 202 217 231
f 202 231 215
f 203 205 217
f 204 218 219
f 204 219 206
f 204 216 218
f 205 214 220
f 205 220 217
f 206 219 221
f 206 221 222
f 206 222 207
f 207 222 223
f 207 223 224
f 207 224 208
f 208 224 226
f 208 226 233
f 208 233 225
f 211 227 212
f 212 227 234
f 212 234 228
f 212 228 213
f 213 228 229
f 213 229 214
f 214 229 230
f 214 230 220
f 215 231 232
f 215 232 237
f 215 237 236
f 215 236 235
f 215 235 238
f 215 238 233
f 215 233 226
f 215 226 224
f 215 224 223
f 215 223 222
f 215 222 221
f 215 221 219
f 215 219 218
f 215 218 216
f 217 220 232
f 217 232 231
f 220 230 237
f 220 237 232
f 228 234 238
f 228 238 235
f 228 235 236
f 228 236 229
f 229 236 237
f 229 237 230
f 239 240 241
f 239 241 242
f 239 242 250
f 239 250 243
f 239 243 251
f 239 251 244
f 239 244 246
f 239 246 240
f 240 245 241
f 240 246 255
f 240 255 245
f 241 247 248
f 241 248 249
f 241 249 242
f 241 245 247
f 242 249 261
f 242 261 250
f 243 250 261
f 243 261 260
f 243 260 273
f 243 273 271
f 243 271 281
f 243 281 288
f 243 288 283
f 243 283 282
f 243 282 275
f 243 275 274
f 243 274 263
f 243 263 262
f 243 262 251
f 244 251 262
f 244 262 252
f 244 252 253
f 244 253 246
f 245 254 247
f 245 255 268
f 245 268 254
f 246 253 255
f 247 254 256
f 247 256 248
f 248 256 257
f 248 257 258
f 248 258 259
f 248 259 249
f 249 259 260
f 249 260 261
f 252 262 263
f 252 263 264
f 252 264 253
f 253 264 265
f 253 265 266
f 253 266 255
f 254 267 269
f 254 269 256
f 254 268 280
f 254 280 267
f 255 266 268
f 256 269 270
f 256 270 257
f 257 270 272
f 257 272 258
f 258 271 273
f 258 273 259
f 258 272 281
f 258 281 271
f 259 273 260
f 263 274 264
f 264 274 275
f 264 275 276
f 264 276 265
f 265 276 277
f 265 277 278
f 265 278 279
f 265 279 266
f 266 279 268
f 267 280 287
f 267 287 286
f 267 286 285
f 267 285 284
f 267 284 288
f 267 288 281
f 267 281 272
f 267 272 270
f 267 270 269
f 268 279 287
f 268 287 280
f 275 282 276
f 276 282 283
f 276 283 277
f 277 283 288
f 277 288 284
f 277 284 285
f 277 285 278
f 278 285 286
f 278 286 279
f 279 286 287
f 289 290 293
f 289 293 291
f 289 291 295
f 289 295 299
f 289 299 303
f 289 303 306
f 289 306 311
f 289 311 316
f 289 316 313
f 289 313 308
f 289 308 304
f 289 304 300
f 289 300 296
f 289 296 292
f 289 292 294
f 289 294 290
f 290 294 298
f 290 298 302
f 290 302 307
f 290 307 312
f 290 312 314
f 290 314 315
f 290 315 310
f 290 310 309
f 290 309 305
f 290 305 301
f 290 301 297
f 290 297 293
f 291 293 297
f 291 297 295
f 292 296 298
f 292 298 294
f 295 297 299
f 296 300 302
f 296 302 298
f 297 301 299
f 299 301 303
f 300 304 307
f 300 307 302
f 301 305 306
f 301 306 303
f 304 308 307
f 305 309 306
f 306 309 310
f 306 310 311
f 307 308 312
f 308 313 314
f 308 314 312
f 310 315 316
f 310 316 311
f 313 316 315
f 313 315 314
f 317 318 319
f 317 319 320
f 317 320 321
f 317 321 325
f 317 325 322
f 317 322 327
f 317 327 332
f 317 332 338
f 317 338 342
f 317 342 346
f 317 346 343
f 317 343 339
f 317 339 335
f 317 335 329
f 317 329 328
f 317 328 323
f 317 323 318
f 318 323 319
f 319 323 324
f 319 324 330
f 319 330 334
f 319 334 333
f 319 333 336
f 319 336 340
f 319 340 344
f 319 344 345
f 319 345 341
f 319 341 337
f 319 337 331
f 319 331 326
f 319 326 325
f 319 325 321
f 319 321 320
f 322 325 326
f 322 326 327
f 323 328 324
f 324 329 330
f 324 328 329
f 326 331 327
f 327 331 337
f 327 337 332
f 329 333 334
f 329 334 330
f 329 335 336
f 329 336 333
f 332 337 341
f 332 341 338
f 335 339 340
f 335 340 336
f 338 341 342
f 339 343 344
f 339 344 340
f 341 345 342
f 342 345 346
f 343 346 345
f 343 345 344
f 347 348 349
f 347 349 350
f 347 350 355
f 347 355 351
f 347 351 356
f 347 356 360
f 347 360 364
f 347 364 368
f 347 368 372
f 347 372 370
f 347 370 366
f 347 366 362
f 347 362 358
f 347 358 353
f 347 353 348
f 348 352 349
f 348 353 354
f 348 354 352
f 349 352 354
f 349 354 357
f 349 357 361
f 349 361 365
f 349 365 369
f 349 369 371
f 349 371 367
f 349 367 363
f 349 363 359
f 349 359 355
f 349 355 350
f 351 355 356
f 353 357 354
f 353 358 357
f 355 359 356
f 356 359 360
f 357 358 361
f 358 362 361
f 359 363 364
f 359 364 360
f 361 362 366
f 361 366 365
f 363 367 368
f 363 368 364
f 365 366 370
f 365 370 369
f 367 371 372
f 367 372 368
f 369 370 372
f 369 372 371
f 373 374 375
f 373 375 380
f 373 380 376
f 373 376 381
f 373 381 387
f 373 387 392
f 373 392 396
f 373 396 400
f 373 400 401
f 373 401 397
f 373 397 393
f 373 393 389
f 373 389 388
f 373 388 385
f 373 385 377
f 373 377 374
f 374 377 378
f 374 378 379
f 374 379 375
f 375 379 378
f 375 378 384
f 375 384 383
f 375 383 390
f 375 390 394
f 375 394 398
f 375 398 402
f 375 402 399
f 375 399 395
f 375 395 391
f 375 391 386
f 375 386 380
f 376 380 386
f 376 386 381
f 377 382 383
f 377 383 384
f 377 384 378
f 377 385 382
f 381 386 387
f 382 385 383
f 383 385 388
f 383 388 389
f 383 389 390
f 386 391 387
f 387 391 392
f 389 393 394
f 389 394 390
f 391 395 396
f 391 396 392
f 393 397 398
f 393 398 394
f 395 399 400
f 395 400 396
f 397 401 402
f 397 402 398
f 399 401 400
f 399 402 401
f 403 404 405
f 403 405 409
f 403 409 406
f 403 406 411
f 403 411 416
f 403 416 422
f 403 422 426
f 403 426 430
f 403 430 428
f 403 428 423
f 403 423 417
f 403 417 412
f 403 412 407
f 403 407 404
f 404 407 408
f 404 408 405
f 405 408 413
f 405 413 418
f 405 418 424
f 405 424 427
f 405 427 431
f 405 431 429
f 405 429 425
f 405 425 421
f 405 421 420
f 405 420 419
f 405 419 415
f 405 415 414
f 405 414 410
f 405 410 409
f 406 409 410
f 406 410 411
f 407 412 413
f 407 413 408
f 410 414 411
f 411 414 415
f 411 415 416
f 412 417 413
f 413 417 418
f 415 419 416
f 416 419 420
f 416 420 421
f 416 421 422
f 417 423 424
f 417 424 418
f 421 425 426
f 421 426 422
f 423 427 424
f 423 428 427
f 425 429 430
f 425 430 426
f 427 428 431
f 428 430 429
f 428 429 431
