v 0.035451 0.042294 0.027470
v 0.035451 0.042294 0.000412
v 0.035354 0.042294 0.028039
v 0.035451 0.000511 0.027470
v 0.035451 0.000511 0.000412
v 0.035354 0.042294 -0.000128
v 0.035333 0.042294 0.028053
v 0.035354 0.000511 0.028039
v 0.035319 0.000001 0.027985
v 0.035354 -0.000054 0.027470
v 0.035354 -0.000054 0.000412
v 0.035319 0.000001 -0.000086
v 0.035354 0.000511 -0.000128
v 0.034847 0.042294 -0.000355
v 0.034847 0.042294 0.028324
v 0.034847 0.000511 0.028324
v 0.034847 -0.000112 0.028101
v 0.034847 -0.000330 0.027470
v 0.034847 -0.000330 0.001232
v 0.034847 -0.000317 0.000412
v 0.034847 -0.000104 -0.000177
v 0.034847 0.000511 -0.000355
v 0.034028 0.042294 -0.000451
v 0.034812 0.042294 0.028330
v 0.034028 0.001331 0.028449
v 0.034028 0.000511 0.028446
v 0.034028 -0.000175 0.028160
v 0.034028 -0.000451 0.027470
v 0.034028 -0.000451 0.001232
v 0.034028 -0.000430 0.000412
v 0.034028 -0.000154 -0.000225
v 0.034028 0.000511 -0.000451
v -0.034028 0.042294 -0.000451
v 0.034028 0.042294 0.028449
v -0.034028 0.001331 0.028449
v -0.034028 0.000511 0.028446
v -0.034028 -0.000175 0.028160
v -0.034028 -0.000451 0.027470
v -0.034028 -0.000451 0.001232
v -0.034028 -0.000430 0.000412
v -0.034028 -0.000154 -0.000225
v -0.034028 0.000511 -0.000451
v -0.034847 0.042294 -0.000355
v -0.034028 0.042294 0.028449
v -0.034063 0.042294 0.028446
v -0.034847 0.000511 0.028324
v -0.034847 -0.000112 0.028101
v -0.034847 -0.000330 0.027470
v -0.034847 -0.000330 0.001232
v -0.034847 -0.000317 0.000412
v -0.034847 -0.000104 -0.000177
v -0.034847 0.000511 -0.000355
v -0.035333 0.042294 -0.000140
v -0.034847 0.042294 0.028324
v -0.034868 0.042294 0.028313
v -0.035354 0.000511 0.028039
v -0.035319 0.000001 0.027985
v -0.035354 -0.000054 0.027470
v -0.035354 -0.000054 0.000412
v -0.035319 0.000001 -0.000086
v -0.035354 0.000511 -0.000128
v -0.035354 0.042294 -0.000128
v -0.035354 0.042294 0.028039
v -0.035451 0.000511 0.027470
v -0.035451 0.000511 0.000412
v -0.035451 0.042294 0.000412
v -0.035451 0.042294 0.027470
v -0.034035 0.055458 0.025528
v -0.034847 0.055458 0.025679
v -0.034847 0.072670 0.025690
v -0.034028 0.072670 0.025550
v 0.034028 0.055458 0.025528
v -0.035354 0.055458 0.026035
v -0.035354 0.073490 0.026035
v -0.034847 0.073490 0.025695
v -0.034028 0.073490 0.025567
v 0.034028 0.072670 0.025550
v 0.034847 0.072670 0.025690
v 0.034847 0.055458 0.025673
v -0.035451 0.055458 0.026654
v -0.035451 0.073490 0.026654
v -0.035319 0.074003 0.026102
v -0.034847 0.074114 0.025974
v -0.034028 0.074174 0.025913
v 0.034028 0.073490 0.025567
v 0.034847 0.073490 0.025695
v 0.035354 0.073490 0.026035
v 0.035347 0.055458 0.026030
v -0.035451 0.055458 0.081587
v -0.035451 0.073490 0.081587
v -0.035354 0.074053 0.026654
v -0.034847 0.074330 0.026654
v -0.034028 0.074451 0.026654
v 0.034028 0.074174 0.025913
v 0.034847 0.074114 0.025974
v 0.035319 0.074003 0.026102
v 0.035354 0.056270 0.026035
v 0.035451 0.073490 0.026654
v 0.035451 0.055458 0.026654
v -0.035354 0.055458 0.082128
v -0.035354 0.073490 0.082128
v -0.035319 0.074003 0.082083
v -0.035354 0.074053 0.081587
v -0.034847 0.074330 0.080768
v -0.034028 0.074451 0.080768
v 0.034028 0.074451 0.026654
v 0.034847 0.074330 0.026654
v 0.035354 0.074053 0.026654
v 0.035451 0.073490 0.081587
v 0.035451 0.055458 0.081587
v -0.034840 0.055458 0.082356
v -0.034847 0.073490 0.082351
v -0.034847 0.074105 0.082178
v -0.034847 0.074321 0.081587
v -0.034028 0.074431 0.081587
v 0.034028 0.074451 0.080768
v 0.034847 0.074330 0.080768
v 0.035354 0.074053 0.081587
v 0.035319 0.074003 0.082083
v 0.035354 0.073490 0.082128
v 0.035354 0.056270 0.082128
v 0.035354 0.055458 0.082122
v -0.034028 0.055458 0.082451
v -0.034028 0.073490 0.082451
v -0.034028 0.074155 0.082223
v 0.034028 0.074431 0.081587
v 0.034847 0.074321 0.081587
v 0.034847 0.074105 0.082178
v 0.034847 0.073490 0.082351
v 0.034847 0.055458 0.082351
v 0.034028 0.055458 0.082451
v 0.034028 0.073490 0.082451
v 0.034028 0.074155 0.082223
v -0.034028 0.042294 -0.000448
v -0.034847 0.042294 -0.000356
v -0.034028 0.052989 -0.000448
v 0.034028 0.042294 -0.000448
v -0.035354 0.042294 -0.000130
v -0.034847 0.052989 -0.000356
v -0.034847 0.053810 -0.000293
v -0.034028 0.053810 -0.000374
v 0.034028 0.052989 -0.000448
v 0.034063 0.042294 -0.000445
v -0.035354 0.052989 -0.000130
v -0.035451 0.042294 0.000412
v -0.035333 0.053810 -0.000106
v -0.034847 0.054308 -0.000115
v -0.035298 0.054260 -0.000052
v -0.034028 0.054335 -0.000150
v 0.034028 0.053810 -0.000374
v 0.034847 0.053810 -0.000293
v 0.034847 0.052989 -0.000356
v 0.034847 0.042294 -0.000356
v -0.035451 0.052989 0.000412
v -0.035451 0.042294 0.027468
v -0.035409 0.053810 0.000412
v -0.034847 0.054397 0.000412
v -0.034028 0.054450 0.000412
v -0.035319 0.054281 0.000412
v 0.034028 0.054335 -0.000150
v 0.034847 0.054308 -0.000115
v 0.035298 0.054260 -0.000052
v 0.035333 0.053810 -0.000106
v 0.035354 0.052989 -0.000130
v 0.035354 0.042294 -0.000130
v -0.035451 0.055456 0.026649
v -0.035354 0.042294 0.028039
v -0.035354 0.044068 0.029950
v -0.035451 0.044791 0.029950
v -0.035354 0.055456 0.026031
v -0.034847 0.055456 0.025673
v -0.034035 0.055456 0.025522
v 0.034028 0.054450 0.000412
v 0.034847 0.054397 0.000412
v 0.035319 0.054281 0.000412
v 0.035409 0.053810 0.000412
v 0.035451 0.052989 0.000412
v 0.035451 0.042294 0.000412
v -0.035451 0.055456 0.029950
v -0.034847 0.042294 0.028325
v -0.034910 0.043658 0.029950
v 0.034028 0.055456 0.025522
v 0.034847 0.055456 0.025670
v 0.035347 0.055456 0.026028
v 0.035451 0.055456 0.026649
v 0.035451 0.042294 0.027468
v 0.034729 0.055456 0.029950
v -0.034028 0.042294 0.028450
v -0.034500 0.043555 0.029950
v 0.035451 0.055456 0.029929
v 0.035451 0.044791 0.029950
v 0.035354 0.044068 0.029950
v 0.035354 0.042294 0.028039
v 0.035451 0.055455 0.029950
v -0.034028 0.043549 0.029950
v -0.034486 0.043554 0.029950
v 0.034028 0.042294 0.028450
v 0.034924 0.043669 0.029950
v 0.034910 0.043658 0.029950
v 0.035333 0.042294 0.028051
v 0.034035 0.043549 0.029950
v 0.034812 0.042294 0.028331
v 0.034500 0.043555 0.029950
v 0.034903 0.043656 0.029950
v 0.034847 0.042294 0.028325
v 0.035451 0.055456 0.081589
v 0.035451 0.055456 0.074642
v 0.035354 0.055456 0.082125
v 0.035354 0.055449 0.082129
v 0.035451 0.044790 0.081589
v 0.035451 0.044790 0.074642
v 0.000000 0.055456 0.074642
v 0.034847 0.055456 0.082355
v 0.035354 0.044790 0.082129
v 0.035319 0.044173 0.082086
v 0.035354 0.044069 0.081589
v 0.035354 0.044069 0.074642
v 0.000000 0.048781 0.074642
v -0.035451 0.055454 0.074823
v -0.034854 0.055456 0.074823
v 0.034035 0.055456 0.082449
v 0.034847 0.044790 0.082355
v 0.034792 0.043928 0.082145
v 0.034479 0.043557 0.082005
v 0.034910 0.043659 0.081589
v 0.035146 0.043874 0.074642
v 0.025665 0.043577 0.074642
v -0.034493 0.043555 0.074823
v -0.034910 0.043659 0.074823
v -0.035347 0.044069 0.074823
v -0.035451 0.044790 0.074823
v -0.035451 0.055456 0.075031
v 0.034028 0.044790 0.082449
v 0.000000 0.055456 0.082450
v 0.000000 0.044790 0.082450
v 0.034028 0.043971 0.082234
v 0.034500 0.043555 0.081589
v 0.034028 0.043555 0.082008
v 0.034028 0.043549 0.081589
v 0.034910 0.043659 0.074642
v 0.025797 0.043568 0.074642
v -0.034021 0.043549 0.074823
v -0.034493 0.043555 0.081590
v 0.026012 0.043555 0.074642
v -0.034910 0.043659 0.081590
v -0.035347 0.044069 0.081590
v -0.035451 0.044790 0.081590
v -0.035451 0.055456 0.081590
v 0.000000 0.044386 0.082344
v -0.034021 0.055456 0.082450
v -0.034021 0.044790 0.082450
v -0.034021 0.043971 0.082234
v 0.034500 0.043555 0.074642
v -0.034021 0.043555 0.082008
v 0.000000 0.043549 0.081590
v 0.034028 0.043549 0.074642
v -0.034021 0.043549 0.081590
v 0.026644 0.043549 0.074642
v -0.034472 0.043557 0.082005
v -0.035319 0.044173 0.082086
v -0.035347 0.044790 0.082129
v -0.035347 0.055456 0.082129
v -0.034840 0.055456 0.082355
v -0.034840 0.044790 0.082355
v -0.034785 0.043928 0.082145
v 0.000006 0.043548 0.029950
v 0.000006 0.043550 0.053708
v 0.000006 0.055455 0.029950
v 0.034028 0.043548 0.029950
v 0.026648 0.043550 0.055415
v 0.000006 0.043552 0.053927
v 0.000006 0.055455 0.055415
v 0.035451 0.055455 0.029950
v 0.034500 0.043555 0.029950
v 0.034500 0.043555 0.055415
v 0.034067 0.043550 0.055415
v 0.026183 0.043554 0.055415
v 0.000006 0.043555 0.054144
v 0.000006 0.048743 0.055415
v 0.035451 0.055455 0.055415
v 0.035451 0.044791 0.029950
v 0.034913 0.043659 0.029950
v 0.034913 0.043659 0.055415
v 0.026145 0.043555 0.055415
v 0.000006 0.043752 0.054351
v 0.000006 0.044356 0.054944
v 0.025066 0.043715 0.055415
v 0.035451 0.044791 0.055415
v 0.035354 0.044068 0.029950
v 0.034924 0.043668 0.029950
v 0.035354 0.044068 0.055415
v 0.025735 0.043581 0.055415
v 0.000006 0.044152 0.054750
v 0.000006 0.043946 0.054553
v 0.000006 0.049039 0.059078
v 0.000006 0.048780 0.074641
v 0.000006 0.055456 0.059078
v 0.025736 0.043582 0.059078
v 0.000006 0.055456 0.074641
v 0.025667 0.043577 0.074641
v 0.035451 0.055456 0.059078
v 0.026149 0.043555 0.059078
v 0.025799 0.043568 0.074641
v 0.035451 0.055456 0.074641
v 0.035451 0.044790 0.059078
v 0.026014 0.043555 0.074641
v 0.026649 0.043549 0.059078
v 0.035451 0.044790 0.074641
v 0.035354 0.044069 0.059078
v 0.026649 0.043549 0.074641
v 0.034028 0.043549 0.059078
v 0.035354 0.044069 0.074641
v 0.035146 0.043874 0.074641
v 0.034913 0.043659 0.059078
v 0.034028 0.043549 0.074641
v 0.034500 0.043555 0.059078
v 0.034913 0.043659 0.074641
v 0.034500 0.043555 0.074641
v -0.035451 0.044790 0.056105
v -0.035451 0.055455 0.056105
v -0.035354 0.044069 0.056105
v -0.035427 0.044607 0.074822
v -0.035451 0.044790 0.074822
v -0.035451 0.055456 0.056171
v -0.034854 0.055456 0.056105
v -0.034913 0.043659 0.056105
v -0.035354 0.044069 0.074822
v -0.035451 0.055454 0.074822
v -0.035451 0.055456 0.074213
v 0.000002 0.055456 0.056105
v -0.034500 0.043555 0.056105
v -0.034913 0.043659 0.074822
v -0.034861 0.055456 0.074822
v 0.000006 0.055456 0.059079
v 0.000002 0.049005 0.056105
v -0.034028 0.043549 0.056105
v -0.034500 0.043555 0.074822
v 0.000006 0.055456 0.074822
v 0.000006 0.049040 0.059079
v -0.025737 0.043582 0.056105
v 0.000006 0.048698 0.074822
v -0.026646 0.043549 0.056105
v -0.034028 0.043549 0.074822
v -0.025164 0.043647 0.074822
v -0.025636 0.043575 0.074822
v -0.026146 0.043555 0.056105
v -0.025955 0.043555 0.074822
v -0.026646 0.043549 0.059079
v -0.026649 0.043549 0.074822
v -0.035451 0.044791 0.029950
v -0.035451 0.055455 0.029950
v -0.035357 0.044086 0.029950
v -0.035451 0.044791 0.056103
v -0.035451 0.055455 0.056103
v 0.000003 0.055455 0.029950
v -0.035354 0.044068 0.029950
v -0.035354 0.044068 0.056103
v 0.000003 0.055455 0.056103
v 0.000003 0.043548 0.029950
v -0.034913 0.043659 0.029950
v -0.034913 0.043659 0.056103
v 0.000003 0.049003 0.056103
v 0.000003 0.043550 0.053709
v -0.026647 0.043550 0.056103
v -0.034028 0.043548 0.029950
v -0.034511 0.043558 0.029950
v -0.034878 0.043650 0.056103
v -0.025737 0.043581 0.056103
v 0.000003 0.044356 0.054943
v 0.000003 0.043552 0.053927
v -0.026188 0.043554 0.056103
v -0.034066 0.043550 0.056103
v 0.000003 0.043555 0.054144
v -0.034490 0.043554 0.029950
v -0.034500 0.043555 0.029950
v -0.034500 0.043555 0.056103
v -0.026147 0.043555 0.056103
v 0.000003 0.043946 0.054554
v 0.000003 0.044152 0.054751
v 0.035451 0.055456 0.059078
v 0.035451 0.044790 0.059078
v 0.035451 0.055456 0.056164
v 0.000006 0.055456 0.059078
v 0.035354 0.044069 0.059078
v 0.035451 0.044790 0.055415
v 0.035451 0.055455 0.055415
v 0.035399 0.055456 0.055415
v 0.000006 0.055456 0.055415
v 0.000006 0.049039 0.059078
v 0.035354 0.044069 0.055415
v 0.034913 0.043659 0.059078
v 0.000006 0.048744 0.055415
v 0.025739 0.043582 0.059078
v 0.034913 0.043659 0.055415
v 0.034500 0.043555 0.059078
v 0.025066 0.043715 0.055415
v 0.025735 0.043580 0.055415
v 0.026148 0.043555 0.059078
v 0.034500 0.043555 0.055415
v 0.034028 0.043549 0.059078
v 0.026145 0.043555 0.055415
v 0.026648 0.043549 0.059078
v 0.034028 0.043549 0.055415
v 0.026648 0.043549 0.055415
f 1 2 6
f 1 6 14
f 1 14 23
f 1 23 33
f 1 33 43
f 1 43 53
f 1 53 62
f 1 62 66
f 1 66 67
f 1 67 63
f 1 63 55
f 1 55 54
f 1 54 45
f 1 45 44
f 1 44 34
f 1 34 24
f 1 24 15
f 1 15 7
f 1 7 3
f 1 3 8
f 1 8 4
f 1 4 5
f 1 5 2
f 2 5 13
f 2 13 6
f 3 7 8
f 4 8 9
f 4 9 10
f 4 10 11
f 4 11 5
f 5 11 12
f 5 12 13
f 6 13 22
f 6 22 14
f 7 15 16
f 7 16 8
f 8 16 9
f 9 16 17
f 9 17 18
f 9 18 10
f 10 18 19
f 10 19 11
f 11 19 20
f 11 20 12
f 12 20 21
f 12 21 22
f 12 22 13
f 14 22 32
f 14 32 23
f 15 24 16
f 16 24 25
f 16 25 26
f 16 26 17
f 17 26 27
f 17 27 28
f 17 28 18
f 18 28 29
f 18 29 19
f 19 29 20
f 20 29 30
f 20 30 21
f 21 30 31
f 21 31 32
f 21 32 22
f 23 32 42
f 23 42 33
f 24 34 25
f 25 34 44
f 25 44 35
f 25 35 36
f 25 36 26
f 26 36 37
f 26 37 27
f 27 37 38
f 27 38 28
f 28 38 39
f 28 39 29
f 29 39 40
f 29 40 30
f 30 40 41
f 30 41 31
f 31 41 42
f 31 42 32
f 33 42 52
f 33 52 43
f 35 44 45
f 35 45 46
f 35 46 36
f 36 46 47
f 36 47 37
f 37 47 38
f 38 47 48
f 38 48 49
f 38 49 39
f 39 49 50
f 39 50 40
f 40 50 51
f 40 51 41
f 41 51 42
f 42 51 52
f 43 52 53
f 45 54 46
f 46 55 56
f 46 56 57
f 46 57 47
f 46 54 55
f 47 57 48
f 48 57 58
f 48 58 59
f 48 59 49
f 49 59 50
f 50 59 60
f 50 60 51
f 51 60 52
f 52 60 61
f 52 61 53
f 53 61 62
f 55 63 56
f 56 63 67
f 56 67 64
f 56 64 57
f 57 64 58
f 58 64 65
f 58 65 59
f 59 65 60
f 60 65 61
f 61 65 66
f 61 66 62
f 64 67 66
f 64 66 65
f 68 69 70
f 68 70 71
f 68 71 77
f 68 77 72
f 68 72 79
f 68 79 88
f 68 88 99
f 68 99 110
f 68 110 122
f 68 122 130
f 68 130 131
f 68 131 123
f 68 123 111
f 68 111 100
f 68 100 89
f 68 89 80
f 68 80 73
f 68 73 69
f 69 73 74
f 69 74 70
f 70 75 71
f 70 74 75
f 71 75 76
f 71 76 85
f 71 85 77
f 72 77 78
f 72 78 79
f 73 80 81
f 73 81 74
f 74 81 82
f 74 82 75
f 75 82 83
f 75 83 76
f 76 83 84
f 76 84 94
f 76 94 85
f 77 85 86
f 77 86 78
f 78 86 87
f 78 87 79
f 79 87 88
f 80 89 90
f 80 90 81
f 81 90 103
f 81 103 91
f 81 91 82
f 82 92 83
f 82 91 92
f 83 92 93
f 83 93 84
f 84 93 106
f 84 106 94
f 85 94 95
f 85 95 86
f 86 95 96
f 86 96 87
f 87 97 88
f 87 96 98
f 87 98 99
f 87 99 97
f 88 97 99
f 89 100 101
f 89 101 90
f 90 101 102
f 90 102 103
f 91 103 104
f 91 104 92
f 92 104 105
f 92 105 93
f 93 105 116
f 93 116 106
f 94 106 95
f 95 107 96
f 95 106 107
f 96 108 98
f 96 107 108
f 98 109 110
f 98 110 99
f 98 108 118
f 98 118 109
f 100 111 101
f 101 111 112
f 101 112 102
f 102 112 113
f 102 113 114
f 102 114 103
f 103 114 104
f 104 114 105
f 105 114 115
f 105 115 126
f 105 126 116
f 106 116 117
f 106 117 107
f 107 117 118
f 107 118 108
f 109 118 119
f 109 119 120
f 109 120 121
f 109 121 110
f 110 121 122
f 111 123 124
f 111 124 112
f 112 124 113
f 113 124 125
f 113 125 115
f 113 115 114
f 115 125 133
f 115 133 126
f 116 126 127
f 116 127 117
f 117 127 118
f 118 127 119
f 119 127 128
f 119 128 129
f 119 129 120
f 120 129 130
f 120 130 121
f 121 130 122
f 123 131 132
f 123 132 124
f 124 132 133
f 124 133 125
f 126 133 128
f 126 128 127
f 128 133 132
f 128 132 129
f 129 132 131
f 129 131 130
f 134 135 139
f 134 139 136
f 134 136 142
f 134 142 137
f 134 137 143
f 134 143 153
f 134 153 165
f 134 165 178
f 134 178 186
f 134 186 193
f 134 193 200
f 134 200 205
f 134 205 202
f 134 202 197
f 134 197 188
f 134 188 180
f 134 180 167
f 134 167 155
f 134 155 145
f 134 145 138
f 134 138 135
f 135 138 144
f 135 144 139
f 136 139 140
f 136 140 141
f 136 141 150
f 136 150 142
f 137 142 143
f 138 145 154
f 138 154 144
f 139 144 146
f 139 146 140
f 140 147 141
f 140 146 148
f 140 148 147
f 141 147 149
f 141 149 160
f 141 160 150
f 142 150 151
f 142 151 152
f 142 152 143
f 143 152 153
f 144 154 146
f 145 155 169
f 145 169 179
f 145 179 166
f 145 166 154
f 146 154 156
f 146 156 148
f 147 148 157
f 147 157 158
f 147 158 149
f 148 156 159
f 148 159 157
f 149 158 173
f 149 173 160
f 150 160 161
f 150 161 151
f 151 161 162
f 151 162 163
f 151 163 152
f 152 163 164
f 152 164 165
f 152 165 153
f 154 166 156
f 155 167 168
f 155 168 169
f 156 166 159
f 157 159 170
f 157 170 158
f 158 170 171
f 158 171 172
f 158 172 182
f 158 182 173
f 159 166 170
f 160 173 161
f 161 174 162
f 161 173 174
f 162 175 176
f 162 176 163
f 162 174 175
f 163 176 177
f 163 177 164
f 164 177 178
f 164 178 165
f 166 179 187
f 166 187 190
f 166 190 185
f 166 185 184
f 166 184 183
f 166 183 182
f 166 182 172
f 166 172 171
f 166 171 170
f 167 180 181
f 167 181 168
f 168 181 189
f 168 189 196
f 168 196 195
f 168 195 201
f 168 201 203
f 168 203 204
f 168 204 199
f 168 199 198
f 168 198 192
f 168 192 191
f 168 191 194
f 168 194 187
f 168 187 179
f 168 179 169
f 173 182 183
f 173 183 184
f 173 184 174
f 174 184 175
f 175 184 185
f 175 185 176
f 176 185 177
f 177 185 190
f 177 190 194
f 177 194 191
f 177 191 186
f 177 186 178
f 180 188 189
f 180 189 181
f 186 191 192
f 186 192 193
f 187 194 190
f 188 195 196
f 188 196 189
f 188 197 201
f 188 201 195
f 192 198 193
f 193 198 199
f 193 199 200
f 197 202 203
f 197 203 201
f 199 204 205
f 199 205 200
f 202 205 203
f 203 205 204
f 206 207 212
f 206 212 220
f 206 220 232
f 206 232 248
f 206 248 262
f 206 262 263
f 206 263 250
f 206 250 234
f 206 234 221
f 206 221 213
f 206 213 208
f 206 208 209
f 206 209 214
f 206 214 210
f 206 210 211
f 206 211 207
f 207 211 217
f 207 217 226
f 207 226 240
f 207 240 253
f 207 253 256
f 207 256 258
f 207 258 244
f 207 244 241
f 207 241 227
f 207 227 218
f 207 218 212
f 208 213 209
f 209 213 222
f 209 222 214
f 210 214 215
f 210 215 216
f 210 216 217
f 210 217 211
f 212 218 231
f 212 231 219
f 212 219 220
f 213 221 222
f 214 222 215
f 215 222 223
f 215 223 224
f 215 224 225
f 215 225 216
f 216 225 226
f 216 226 217
f 218 227 228
f 218 228 229
f 218 229 230
f 218 230 231
f 219 231 247
f 219 247 248
f 219 248 232
f 219 232 220
f 221 233 222
f 221 234 235
f 221 235 233
f 222 233 223
f 223 233 236
f 223 236 224
f 224 237 225
f 224 236 238
f 224 238 239
f 224 239 237
f 225 237 253
f 225 253 240
f 225 240 226
f 227 241 228
f 228 242 257
f 228 257 243
f 228 243 245
f 228 245 229
f 228 241 244
f 228 244 242
f 229 245 246
f 229 246 230
f 230 246 247
f 230 247 231
f 233 235 249
f 233 249 236
f 234 250 251
f 234 251 235
f 235 251 249
f 236 249 252
f 236 252 254
f 236 254 238
f 237 239 256
f 237 256 253
f 238 254 257
f 238 257 255
f 238 255 239
f 239 255 257
f 239 257 242
f 239 242 258
f 239 258 256
f 242 244 258
f 243 257 259
f 243 259 245
f 245 259 260
f 245 260 246
f 246 260 247
f 247 260 261
f 247 261 262
f 247 262 248
f 249 251 252
f 250 263 251
f 251 263 264
f 251 264 265
f 251 265 252
f 252 265 259
f 252 259 254
f 254 259 257
f 259 265 260
f 260 265 264
f 260 264 261
f 261 264 263
f 261 263 262
f 266 267 271
f 266 271 278
f 266 278 285
f 266 285 294
f 266 294 293
f 266 293 286
f 266 286 279
f 266 279 272
f 266 272 268
f 266 268 273
f 266 273 281
f 266 281 289
f 266 289 290
f 266 290 282
f 266 282 274
f 266 274 269
f 266 269 276
f 266 276 270
f 266 270 267
f 267 270 271
f 268 272 280
f 268 280 273
f 269 274 275
f 269 275 276
f 270 276 275
f 270 275 283
f 270 283 291
f 270 291 288
f 270 288 280
f 270 280 272
f 270 272 279
f 270 279 287
f 270 287 292
f 270 292 284
f 270 284 277
f 270 277 278
f 270 278 271
f 273 280 288
f 273 288 281
f 274 282 283
f 274 283 275
f 277 284 278
f 278 284 285
f 279 286 287
f 281 288 291
f 281 291 289
f 282 290 283
f 283 290 291
f 284 292 286
f 284 286 293
f 284 293 294
f 284 294 285
f 286 292 287
f 289 291 290
f 295 296 299
f 295 299 297
f 295 297 301
f 295 301 305
f 295 305 309
f 295 309 314
f 295 314 316
f 295 316 311
f 295 311 307
f 295 307 302
f 295 302 298
f 295 298 296
f 296 298 300
f 296 300 303
f 296 303 306
f 296 306 310
f 296 310 315
f 296 315 318
f 296 318 317
f 296 317 313
f 296 313 312
f 296 312 308
f 296 308 304
f 296 304 299
f 297 299 304
f 297 304 301
f 298 302 303
f 298 303 300
f 301 304 308
f 301 308 305
f 302 306 303
f 302 307 306
f 305 308 312
f 305 312 309
f 306 307 310
f 307 311 315
f 307 315 310
f 309 312 313
f 309 313 314
f 311 316 318
f 311 318 315
f 313 317 314
f 314 317 318
f 314 318 316
f 319 320 325
f 319 325 330
f 319 330 335
f 319 335 340
f 319 340 346
f 319 346 342
f 319 342 336
f 319 336 331
f 319 331 326
f 319 326 321
f 319 321 322
f 319 322 323
f 319 323 328
f 319 328 329
f 319 329 324
f 319 324 320
f 320 324 325
f 321 326 332
f 321 332 327
f 321 327 322
f 322 327 332
f 322 332 337
f 322 337 343
f 322 343 349
f 322 349 347
f 322 347 345
f 322 345 344
f 322 344 341
f 322 341 338
f 322 338 333
f 322 333 328
f 322 328 323
f 324 329 333
f 324 333 338
f 324 338 334
f 324 334 330
f 324 330 325
f 326 331 337
f 326 337 332
f 328 333 329
f 330 334 339
f 330 339 335
f 331 336 343
f 331 343 337
f 334 338 341
f 334 341 339
f 335 339 341
f 335 341 340
f 336 342 348
f 336 348 349
f 336 349 343
f 340 341 344
f 340 344 345
f 340 345 346
f 342 346 347
f 342 347 348
f 345 347 346
f 347 349 348
f 350 351 355
f 350 355 359
f 350 359 365
f 350 365 374
f 350 374 375
f 350 375 366
f 350 366 360
f 350 360 356
f 350 356 352
f 350 352 353
f 350 353 354
f 350 354 351
f 351 354 358
f 351 358 355
f 352 356 357
f 352 357 353
f 353 357 361
f 353 361 367
f 353 367 376
f 353 376 372
f 353 372 364
f 353 364 371
f 353 371 377
f 353 377 368
f 353 368 362
f 353 362 358
f 353 358 354
f 355 358 362
f 355 362 369
f 355 369 379
f 355 379 378
f 355 378 373
f 355 373 370
f 355 370 363
f 355 363 359
f 356 360 361
f 356 361 357
f 359 363 364
f 359 364 372
f 359 372 365
f 360 366 367
f 360 367 361
f 362 368 369
f 363 370 364
f 364 370 373
f 364 373 371
f 365 372 374
f 366 375 376
f 366 376 367
f 368 377 373
f 368 373 378
f 368 378 379
f 368 379 369
f 371 373 377
f 372 376 374
f 374 376 375
f 380 381 385
f 380 385 386
f 380 386 382
f 380 382 387
f 380 387 388
f 380 388 383
f 380 383 389
f 380 389 393
f 380 393 398
f 380 398 402
f 380 402 400
f 380 400 395
f 380 395 391
f 380 391 384
f 380 384 381
f 381 384 390
f 381 390 385
f 382 386 387
f 383 388 392
f 383 392 389
f 384 391 394
f 384 394 390
f 385 390 394
f 385 394 399
f 385 399 403
f 385 403 404
f 385 404 401
f 385 401 397
f 385 397 396
f 385 396 392
f 385 392 388
f 385 388 387
f 385 387 386
f 389 392 393
f 391 395 399
f 391 399 394
f 392 396 393
f 393 396 397
f 393 397 398
f 395 400 403
f 395 403 399
f 397 401 398
f 398 401 402
f 400 402 404
f 400 404 403
f 401 404 402
