v 0.035413 -0.008987 0.000200
v 0.035500 -0.006507 0.009600
v 0.035329 -0.009987 0.009600
v 0.035177 -0.011286 0.000200
v 0.034818 -0.013433 0.009600
v 0.032798 -0.020092 0.009600
v 0.031800 -0.022287 0.000200
v 0.031308 -0.023242 0.009600
v 0.028132 -0.028159 0.000200
v 0.029517 -0.026230 0.009600
v 0.021607 -0.034674 0.000200
v 0.022521 -0.033949 0.009600
v 0.015729 -0.038332 0.000200
v 0.016735 -0.037815 0.009600
v 0.013585 -0.039305 0.009600
v 0.017766 -0.037242 0.000200
v 0.023394 -0.033208 0.000200
v 0.010305 -0.040479 0.009600
v 0.009252 -0.040780 0.000200
v 0.007810 -0.041137 0.000912
v 0.003480 -0.041836 0.009600
v 0.001968 -0.041953 0.007750
v -0.003480 -0.041836 0.009600
v -0.000000 -0.042007 0.007750
v -0.003929 -0.041789 0.007750
v -0.010305 -0.040479 0.009600
v -0.007810 -0.041137 0.007750
v -0.013585 -0.039305 0.009600
v -0.017766 -0.037242 0.000200
v -0.023394 -0.033208 0.000200
v -0.022521 -0.033949 0.009600
v -0.025102 -0.031609 0.009600
v -0.026664 -0.029944 0.000200
v -0.031800 -0.022287 0.000200
v -0.028132 -0.028159 0.000200
v -0.005879 -0.041517 0.007750
v -0.034258 -0.015814 0.000200
v -0.007810 -0.041137 0.000912
v -0.009252 -0.040780 0.000200
v -0.008453 -0.040986 0.000385
v -0.035329 -0.009987 0.009600
v -0.035500 -0.006507 0.009600
v -0.035435 -0.004367 0.000200
v -0.034346 0.002470 0.000200
v -0.033971 0.003798 0.009600
v -0.031950 0.008967 0.000200
v -0.032798 0.007078 0.009600
v -0.033689 0.004686 0.000200
v -0.030876 0.011013 0.000200
v 0.035500 -0.006678 0.000200
v 0.035500 -0.006507 0.000200
v 0.034791 -0.013565 0.000200
v 0.032760 -0.020184 0.000200
v 0.029482 -0.026283 0.000200
v 0.025082 -0.031629 0.000200
v -0.013625 -0.039289 0.000200
v -0.019729 -0.036020 0.000200
v -0.025082 -0.031629 0.000200
v -0.029482 -0.026283 0.000200
v -0.032760 -0.020184 0.000200
v -0.034857 0.000217 0.000200
v -0.032889 0.006855 0.000200
v -0.028339 0.014874 0.000200
v -0.029670 0.012985 0.000200
v 0.035435 -0.004367 0.000200
v 0.028339 0.014874 0.000200
v 0.031950 0.008967 0.000200
v 0.034818 0.000419 0.009600
v 0.033689 0.004686 0.000200
v 0.030876 0.011013 0.000200
v 0.035329 -0.003028 0.009600
v -0.024045 0.019610 0.000248
v -0.021337 0.021865 0.000586
v 0.019907 0.022886 0.000851
v 0.021337 0.021865 0.000586
v 0.024045 0.019610 0.000248
v 0.029670 0.012985 0.000200
v 0.032889 0.006855 0.000200
v -0.034661 0.000179 0.000000
v -0.034153 0.002420 0.000000
v -0.035023 -0.002091 0.000000
v -0.031770 0.008879 0.000000
v -0.030702 0.010914 0.000000
v -0.032704 0.006780 0.000000
v -0.034979 -0.011259 0.000000
v -0.033391 -0.017959 0.000000
v -0.032575 -0.020107 0.000000
v -0.031621 -0.022198 0.000000
v -0.026736 0.016542 0.000000
v -0.027974 -0.028037 0.000000
v -0.019618 -0.035854 0.000000
v -0.015640 -0.038153 0.000000
v -0.013548 -0.039104 0.000000
v -0.011398 -0.039916 0.000000
v 0.025180 0.018233 0.000000
v 0.024941 -0.031488 0.000000
v 0.027974 -0.028037 0.000000
v 0.015640 -0.038153 0.000000
v 0.009200 -0.040587 0.000000
v 0.011398 -0.039916 0.000000
v 0.021486 -0.034515 0.000000
v 0.023263 -0.033058 0.000000
v 0.030702 0.010914 0.000000
v 0.035236 -0.004379 0.000000
v 0.035300 -0.006677 0.000000
v 0.033391 -0.017959 0.000000
v 0.031621 -0.022198 0.000000
v 0.030533 -0.024222 0.000000
v 0.034065 -0.015762 0.000000
v 0.034595 -0.013525 0.000000
v -0.008749 -0.040694 0.000052
v 0.021344 0.019589 0.000058
v -0.018391 0.021777 0.000397
v -0.019795 0.022777 0.000659
v -0.022589 0.020650 0.000184
v -0.021443 0.019506 0.000051
v 0.017566 0.024168 0.001071
v 0.012833 0.026434 0.001742
v -0.017567 0.024168 0.001071
v -0.012833 0.026434 0.001742
v 0.007815 0.027974 0.002198
v 0.005234 0.028459 0.002342
v 0.002624 0.028752 0.002429
v -0.010353 0.027297 0.001998
v -0.007815 0.027974 0.002198
v -0.002624 0.028752 0.002429
v -0.000000 0.028850 0.002458
v -0.001968 -0.041953 0.007750
v 0.005879 -0.041517 0.007750
v 0.003929 -0.041789 0.007750
v 0.007810 -0.041137 0.007750
v 0.008452 -0.040986 0.000386
v 0.008746 -0.040695 0.000052
v 0.011463 -0.040106 0.000200
v 0.013548 -0.039104 0.000000
v 0.013625 -0.039289 0.000200
v 0.017666 -0.037068 0.000000
v 0.019618 -0.035854 0.000000
v 0.026664 -0.029944 0.000200
v 0.026514 -0.029812 0.000000
v 0.030706 -0.024323 0.000200
v 0.033580 -0.018023 0.000200
v 0.032575 -0.020107 0.000000
v 0.034258 -0.015814 0.000200
v 0.019729 -0.036020 0.000200
v 0.029316 -0.026172 0.000000
v 0.034979 -0.011259 0.000000
v 0.035214 -0.008973 0.000000
v 0.035023 -0.002091 0.000000
v 0.035221 -0.002066 0.000200
v 0.034661 0.000179 0.000000
v 0.034857 0.000217 0.000200
v 0.034153 0.002420 0.000000
v 0.034346 0.002470 0.000200
v 0.033499 0.004623 0.000000
v 0.032704 0.006780 0.000000
v 0.031770 0.008879 0.000000
v 0.029503 0.012875 0.000000
v 0.028179 0.014754 0.000000
v 0.026736 0.016542 0.000000
v 0.025322 0.018373 0.000200
v 0.026888 0.016673 0.000200
v 0.022589 0.020650 0.000184
v 0.021217 0.021749 0.000391
v 0.022717 0.020773 0.000381
v 0.023909 0.019478 0.000049
v 0.019795 0.022777 0.000659
v 0.010353 0.027297 0.001998
v 0.015242 0.025389 0.001433
v -0.019907 0.022886 0.000851
v -0.005234 0.028459 0.002342
v -0.015242 0.025389 0.001433
v -0.022717 0.020773 0.000381
v -0.023909 0.019478 0.000049
v -0.021217 0.021749 0.000391
v -0.025180 0.018233 0.000000
v -0.025322 0.018373 0.000200
v -0.035300 -0.006677 0.000000
v -0.035214 -0.008973 0.000000
v -0.035413 -0.008987 0.000200
v -0.034791 -0.013565 0.000200
v -0.034595 -0.013525 0.000000
v -0.035177 -0.011286 0.000200
v -0.035300 -0.006507 0.000000
v -0.035500 -0.006678 0.000200
v -0.033580 -0.018023 0.000200
v -0.034065 -0.015762 0.000000
v -0.030533 -0.024222 0.000000
v -0.029316 -0.026172 0.000000
v -0.030706 -0.024323 0.000200
v -0.026514 -0.029812 0.000000
v -0.024941 -0.031488 0.000000
v -0.023263 -0.033058 0.000000
v -0.021607 -0.034674 0.000200
v -0.021486 -0.034515 0.000000
v -0.035500 -0.006507 0.000200
v -0.015729 -0.038332 0.000200
v -0.017666 -0.037068 0.000000
v -0.011463 -0.040106 0.000200
v -0.028179 0.014754 0.000000
v -0.026888 0.016673 0.000200
v -0.009200 -0.040587 0.000000
v -0.029503 0.012875 0.000000
v -0.033499 0.004623 0.000000
v -0.035221 -0.002066 0.000200
v -0.035236 -0.004379 0.000000
v -0.019946 0.020687 0.000189
v 0.012837 0.024709 0.001231
v 0.019124 0.021279 0.000293
v 0.033971 -0.016812 0.009600
v 0.025102 -0.031609 0.009600
v 0.019723 -0.036024 0.009600
v 0.006926 -0.041325 0.009600
v -0.006926 -0.041325 0.009600
v -0.031308 -0.023242 0.009600
v -0.034818 -0.013433 0.009600
v -0.032798 -0.020092 0.009600
v -0.027442 -0.029028 0.009600
v -0.019723 -0.036024 0.009600
v -0.000000 -0.042007 0.009600
v 0.027442 -0.029028 0.009600
v -0.016735 -0.037815 0.009600
v -0.029517 -0.026230 0.009600
v -0.033971 -0.016812 0.009600
v -0.035329 -0.003028 0.009600
v -0.034818 0.000419 0.009600
v 0.024250 0.043477 0.036389
v 0.024250 0.043839 0.035989
v 0.024250 0.044161 0.035556
v 0.024250 0.044438 0.035093
v 0.024250 0.044669 0.034605
v 0.025250 0.044066 0.032059
v 0.025250 0.043894 0.031194
v 0.025250 0.044066 0.032941
v 0.025250 0.043745 0.030778
v 0.025250 0.044001 0.033378
v 0.025250 0.043894 0.033806
v 0.025250 0.043745 0.034222
v 0.025250 0.043557 0.034621
v 0.025250 0.042443 0.035979
v 0.023917 0.045664 0.032500
v 0.023839 0.045199 0.030168
v 0.023855 0.045365 0.030615
v 0.023902 0.045645 0.032021
v 0.023823 0.045000 0.029737
v 0.025250 0.042088 0.036242
v 0.025250 0.042770 0.035682
v 0.025250 0.043066 0.035355
v 0.025250 0.043330 0.035000
v 0.025250 0.044088 0.032500
v 0.025250 0.044001 0.031622
v 0.025250 0.043557 0.030379
v 0.025250 0.043330 0.030000
v 0.025250 0.043066 0.029645
v 0.024250 0.044851 0.034097
v 0.023720 0.045463 0.030607
v 0.023783 0.045266 0.030165
v 0.023704 0.045297 0.030152
v 0.023781 0.045761 0.032500
v 0.023859 0.045728 0.032500
v 0.023688 0.045096 0.029713
v 0.023751 0.044832 0.029308
v 0.023672 0.044861 0.029290
v 0.023735 0.044564 0.028905
v 0.023720 0.044266 0.028525
v 0.023736 0.045594 0.031075
v 0.023799 0.045431 0.030618
v 0.023767 0.045066 0.029729
v 0.023815 0.045562 0.031084
v 0.023751 0.045687 0.031550
v 0.023830 0.045654 0.031556
v 0.023846 0.045709 0.032028
v 0.023887 0.045589 0.031546
v 0.023871 0.045495 0.031076
v 0.023656 0.044591 0.028884
v 0.023641 0.044292 0.028502
v 0.023766 0.045743 0.032024
v -0.011750 0.044588 0.049900
v 0.011750 0.044588 0.049900
v -0.011750 0.050588 0.032500
v -0.012133 0.050512 0.032500
v -0.012133 0.050512 0.043900
v -0.011750 0.050588 0.043900
v -0.012457 0.050295 0.032500
v -0.012457 0.050295 0.043900
v -0.012674 0.049971 0.032500
v -0.012674 0.049971 0.043900
v 0.011750 0.050588 0.032500
v -0.011750 0.048091 0.025522
v -0.011750 0.048734 0.026389
v 0.011750 0.048734 0.026389
v -0.011750 0.049289 0.027315
v -0.011750 0.049751 0.028290
v 0.011750 0.049751 0.028290
v 0.011750 0.049289 0.027315
v -0.011750 0.050114 0.029307
v -0.011750 0.050377 0.030354
v 0.011750 0.050377 0.030354
v -0.011750 0.050535 0.031422
v 0.011750 0.050535 0.031422
v 0.011750 0.050114 0.029307
v 0.011750 0.048091 0.025522
v 0.012133 0.050512 0.043900
v 0.012133 0.050512 0.032500
v 0.012133 0.050041 0.029329
v 0.012133 0.050302 0.030369
v 0.012133 0.049222 0.027351
v 0.012133 0.048671 0.026431
v 0.012133 0.048032 0.025570
v 0.012133 0.049680 0.028320
v 0.012133 0.050459 0.031429
v -0.012133 0.050302 0.030369
v -0.012133 0.050459 0.031429
v -0.012457 0.050243 0.031451
v -0.012133 0.050041 0.029329
v -0.012457 0.049834 0.029392
v -0.012457 0.050089 0.030411
v -0.012674 0.049771 0.030474
v -0.012133 0.049680 0.028320
v -0.012133 0.049222 0.027351
v -0.012133 0.048671 0.026431
v -0.012457 0.049480 0.028403
v -0.012457 0.049031 0.027453
v -0.012457 0.048491 0.026551
v -0.012133 0.048032 0.025570
v -0.012674 0.049524 0.029486
v -0.012674 0.049921 0.031482
v 0.010909 0.050577 0.044267
v 0.005092 0.050577 0.044263
v 0.005537 0.049887 0.046713
v 0.007616 0.048992 0.047975
v 0.008377 0.048991 0.047976
v 0.008749 0.049056 0.047905
v 0.009428 0.049281 0.047638
v 0.010463 0.049888 0.046713
v 0.010906 0.050296 0.045747
v 0.005205 0.050174 0.046089
v 0.006895 0.049157 0.047789
v 0.005000 0.050484 0.045014
v 0.009100 0.049155 0.047791
v 0.010975 0.050400 0.045389
v -0.005022 0.050542 0.044640
v -0.005000 0.050483 0.045015
v -0.010463 0.049887 0.046713
v -0.010002 0.049576 0.047234
v -0.008384 0.048992 0.047975
v -0.009430 0.049282 0.047637
v -0.007251 0.049056 0.047905
v -0.008002 0.048969 0.048000
v -0.005537 0.049888 0.046713
v -0.005094 0.050296 0.045747
v -0.010795 0.050174 0.046089
v -0.009105 0.049157 0.047789
v -0.006900 0.049155 0.047791
v -0.012133 0.045169 0.049795
v -0.011750 0.045176 0.049871
v -0.011750 0.045758 0.049785
v -0.012133 0.050483 0.044481
v -0.012133 0.045744 0.049710
v -0.011750 0.046330 0.049642
v -0.011750 0.046884 0.049443
v -0.012133 0.046855 0.049373
v -0.011750 0.047416 0.049192
v -0.011750 0.047921 0.048889
v -0.012133 0.047879 0.048826
v -0.011750 0.048394 0.048538
v -0.012133 0.048346 0.048479
v -0.012133 0.047380 0.049124
v -0.012133 0.046308 0.049569
v -0.012457 0.046245 0.049361
v -0.012457 0.046772 0.049173
v -0.012457 0.047278 0.048933
v -0.012457 0.047759 0.048645
v -0.012457 0.048208 0.048312
v -0.012674 0.049945 0.044428
v -0.012457 0.050268 0.044459
v -0.012133 0.048777 0.048089
v -0.011750 0.048831 0.048143
v -0.012133 0.049167 0.047658
v -0.011750 0.049226 0.047706
v -0.012133 0.049513 0.047191
v -0.011750 0.049577 0.047233
v -0.012457 0.048623 0.047936
v -0.012674 0.048394 0.047706
v -0.012457 0.049333 0.047071
v -0.012457 0.049000 0.047521
v -0.012674 0.048749 0.047315
v -0.011750 0.049879 0.046728
v -0.012133 0.049812 0.046692
v -0.011750 0.050131 0.046196
v -0.011750 0.050330 0.045642
v -0.011750 0.050473 0.045071
v -0.012133 0.050398 0.045056
v -0.011750 0.050559 0.044488
v -0.012133 0.050061 0.046167
v -0.012457 0.049621 0.046590
v -0.012457 0.049861 0.046084
v -0.012457 0.050049 0.045557
v -0.012133 0.050257 0.045620
v -0.012457 0.050185 0.045013
v -0.012674 0.049063 0.046890
v -0.012674 0.049335 0.046437
v -0.012674 0.049561 0.045960
v -0.012674 0.049739 0.045463
v -0.012674 0.049867 0.044950
v -0.010908 0.050577 0.044263
v -0.010978 0.050543 0.044635
v -0.011000 0.050484 0.045014
v 0.005022 0.050543 0.044635
v -0.010975 0.050402 0.045384
v -0.010906 0.050297 0.045745
v -0.005205 0.050174 0.046089
v -0.005025 0.050400 0.045389
v 0.005998 0.049576 0.047234
v 0.005025 0.050402 0.045384
v 0.011750 0.050588 0.043900
v 0.011750 0.050559 0.044488
v 0.011750 0.050473 0.045071
v 0.010978 0.050542 0.044640
v 0.011750 0.049879 0.046728
v 0.011750 0.050330 0.045642
v 0.011000 0.050483 0.045015
v 0.011750 0.050131 0.046196
v 0.010795 0.050174 0.046089
v -0.008753 0.049057 0.047904
v -0.006572 0.049281 0.047638
v 0.006570 0.049282 0.047637
v -0.005998 0.049576 0.047235
v 0.007247 0.049057 0.047904
v 0.011750 0.047921 0.048889
v 0.007998 0.048969 0.048000
v -0.007623 0.048991 0.047976
v 0.011750 0.047416 0.049192
v 0.011750 0.046884 0.049443
v 0.011750 0.046330 0.049642
v 0.011750 0.045758 0.049785
v 0.011750 0.045176 0.049871
v 0.010002 0.049576 0.047235
v 0.011750 0.049577 0.047233
v 0.011750 0.049226 0.047706
v 0.011750 0.048831 0.048143
v 0.011750 0.048394 0.048538
v 0.012133 0.045169 0.049795
v 0.012133 0.046308 0.049569
v 0.012133 0.047380 0.049124
v 0.012133 0.047879 0.048826
v 0.012133 0.046855 0.049373
v 0.012133 0.045744 0.049710
v 0.012457 0.046245 0.049361
v 0.012133 0.050483 0.044481
v 0.012457 0.046772 0.049173
v 0.012457 0.047278 0.048933
v 0.012457 0.047759 0.048645
v 0.012133 0.048346 0.048479
v 0.012457 0.048208 0.048312
v 0.012133 0.048777 0.048089
v 0.012133 0.049167 0.047658
v 0.012457 0.049000 0.047521
v 0.012457 0.049333 0.047071
v 0.012457 0.048623 0.047936
v 0.012133 0.049812 0.046692
v 0.012133 0.050257 0.045620
v 0.012133 0.050398 0.045056
v 0.012133 0.050061 0.046167
v 0.012133 0.049513 0.047191
v 0.012457 0.049621 0.046590
v 0.012457 0.049861 0.046084
v 0.012457 0.050049 0.045557
v 0.004668 -0.041194 0.048000
v 0.006976 -0.040805 0.048000
v 0.023981 -0.032001 0.049800
v 0.033126 -0.017805 0.049800
v 0.034068 -0.014528 0.049800
v 0.031870 -0.020975 0.049800
v 0.012493 -0.039201 0.049800
v 0.000000 -0.041507 0.048000
v 0.014490 -0.038367 0.047873
v 0.015030 -0.038116 0.048518
v 0.019874 -0.035317 0.048501
v 0.021386 -0.034213 0.049800
v 0.034561 -0.000980 0.049800
v 0.034687 -0.011175 0.049800
v 0.034814 -0.002906 0.047553
v 0.034935 -0.004369 0.049800
v 0.016379 -0.037438 0.049394
v 0.015615 -0.037831 0.049800
v 0.017888 -0.036591 0.049575
v 0.009253 -0.040262 0.049800
v 0.034977 -0.007778 0.049800
v 0.034961 -0.004862 0.049254
v 0.035000 -0.006568 0.049600
v 0.034991 -0.005695 0.049518
v 0.033859 0.002357 0.049800
v -0.002339 -0.041429 0.048000
v -0.032374 0.006794 0.048000
v -0.031413 0.008928 0.048000
v -0.034068 -0.014528 0.049800
v -0.033126 -0.017805 0.049800
v -0.026348 -0.029546 0.049800
v -0.031870 -0.020975 0.049800
v -0.006976 -0.040805 0.048000
v -0.030311 -0.024007 0.049800
v -0.004668 -0.041194 0.048000
v -0.033191 0.004600 0.048000
v -0.033859 0.002357 0.049800
v -0.034865 -0.003437 0.048242
v -0.034935 -0.004369 0.049800
v -0.034814 -0.002905 0.047552
v -0.012493 -0.039201 0.049800
v -0.014669 -0.038285 0.048114
v -0.034961 -0.004855 0.049251
v -0.034990 -0.005688 0.049517
v -0.034988 -0.007430 0.049494
v -0.034956 -0.008259 0.049206
v -0.034977 -0.007778 0.049800
v -0.035000 -0.006562 0.049600
v -0.018868 -0.035986 0.049273
v -0.018589 -0.036163 0.049800
v -0.016641 -0.037298 0.049479
v -0.017402 -0.036875 0.049598
v -0.009253 -0.040262 0.049800
v -0.034363 -0.001011 0.050000
v -0.034735 -0.004381 0.050000
v -0.033665 0.002306 0.050000
v -0.034777 -0.007771 0.050000
v -0.032937 -0.017741 0.050000
v -0.031688 -0.020892 0.050000
v -0.030138 -0.023907 0.050000
v -0.028302 -0.026757 0.050000
v -0.023844 -0.031855 0.050000
v -0.021264 -0.034055 0.050000
v -0.015526 -0.037652 0.050000
v -0.009200 -0.040069 0.050000
v -0.002907 0.026867 0.050000
v -0.015953 0.024421 0.050000
v 0.000000 0.026993 0.050000
v 0.015953 0.024421 0.050000
v 0.012748 0.025874 0.050000
v -0.018994 0.022652 0.050000
v 0.021842 0.020585 0.050000
v 0.024465 0.018241 0.050000
v 0.034363 -0.001011 0.050000
v 0.030138 -0.023907 0.050000
v 0.032937 -0.017741 0.050000
v 0.033874 -0.014482 0.050000
v 0.034735 -0.004381 0.050000
v 0.034777 -0.007771 0.050000
v 0.034489 -0.011149 0.050000
v 0.009200 -0.040069 0.050000
v 0.026197 -0.029415 0.050000
v 0.028302 -0.026757 0.050000
v 0.021264 -0.034055 0.050000
v 0.002339 -0.041429 0.048000
v 0.034988 -0.007439 0.049492
v 0.034910 -0.009012 0.048751
v 0.034865 -0.003440 0.048245
v 0.034956 -0.008262 0.049205
v 0.034858 -0.009655 0.048157
v -0.034910 -0.009010 0.048753
v -0.034858 -0.009655 0.048157
v -0.019510 -0.035565 0.048850
v -0.018153 -0.036431 0.049529
v -0.020060 -0.035188 0.048282
v 0.019287 -0.035713 0.049021
v 0.017129 -0.037029 0.049577
v 0.009200 -0.040269 0.049800
v -0.033825 0.002428 0.049800
v 0.033825 0.002428 0.049800
v 0.002907 0.026867 0.050000
v 0.031688 -0.020892 0.050000
v 0.030311 -0.024007 0.049800
v 0.028464 -0.026873 0.049800
v 0.023844 -0.031855 0.050000
v 0.026348 -0.029546 0.049800
v 0.018483 -0.035993 0.050000
v 0.015526 -0.037652 0.050000
v 0.012422 -0.039015 0.050000
v 0.018589 -0.036163 0.049800
v 0.033665 0.002306 0.050000
v -0.012422 -0.039015 0.050000
v -0.018483 -0.035993 0.050000
v -0.015615 -0.037831 0.049800
v -0.026197 -0.029415 0.050000
v -0.021386 -0.034213 0.049800
v -0.023981 -0.032001 0.049800
v -0.028464 -0.026873 0.049800
v -0.033874 -0.014482 0.050000
v -0.034489 -0.011149 0.050000
v -0.034687 -0.011175 0.049800
v -0.034561 -0.000980 0.049800
v -0.009200 -0.040269 0.049800
v 0.018994 0.022652 0.050000
v -0.024465 0.018241 0.050000
v -0.021842 0.020585 0.050000
v -0.012748 0.025874 0.050000
f 287 496 47
f 309 302 308
f 291 302 308
f 504 45 47
f 205 225 226
f 321 292 290
f 23 494 503
f 553 476 566
f 553 469 566
f 588 525 515
f 150 68 71
f 167 309 117
f 167 309 74
f 169 309 117
f 118 168 302
f 118 309 302
f 118 169 309
f 118 169 117
f 118 167 117
f 212 16 14
f 119 167 208
f 289 321 290
f 289 126 127
f 289 302 127
f 307 263 308
f 293 292 319
f 295 310 294
f 295 307 310
f 295 291 308
f 295 307 308
f 123 302 127
f 123 122 302
f 495 496 47
f 495 504 47
f 590 225 226
f 44 45 226
f 43 225 42
f 43 205 225
f 320 292 319
f 320 321 292
f 325 289 321
f 365 372 373
f 278 593 524
f 278 356 524
f 38 20 24
f 21 553 469
f 214 501 503
f 220 494 476
f 220 553 476
f 587 588 497
f 589 588 515
f 589 588 497
f 589 559 515
f 589 216 497
f 500 217 215
f 514 559 515
f 41 180 42
f 41 514 559
f 41 515 42
f 41 514 515
f 41 589 216
f 312 296 297
f 311 298 300
f 4 3 5
f 53 7 6
f 65 150 71
f 65 71 2
f 75 167 74
f 163 165 76
f 121 118 168
f 121 123 127
f 121 123 122
f 121 119 127
f 121 119 208
f 121 167 208
f 121 118 167
f 121 168 302
f 121 122 302
f 132 38 40
f 132 38 20
f 12 211 17
f 488 469 566
f 488 470 469
f 488 549 566
f 477 478 15
f 125 126 127
f 125 119 127
f 258 307 310
f 305 301 294
f 305 310 294
f 516 512 42
f 507 225 42
f 507 516 512
f 507 523 522
f 507 590 522
f 507 516 515
f 507 523 525
f 507 525 515
f 505 522 524
f 505 590 522
f 505 590 226
f 505 495 504
f 505 504 45
f 505 45 226
f 505 495 496
f 61 205 226
f 61 44 226
f 48 44 45
f 48 62 47
f 48 45 47
f 48 62 84
f 185 180 42
f 481 68 71
f 359 369 524
f 368 365 372
f 368 365 363
f 360 359 369
f 594 278 593
f 595 278 535
f 595 278 534
f 536 278 534
f 487 212 14
f 55 211 17
f 221 10 9
f 128 38 24
f 128 220 24
f 128 23 494
f 128 220 494
f 22 20 24
f 22 220 24
f 22 21 553
f 22 220 553
f 213 470 469
f 213 488 470
f 36 214 38
f 36 23 503
f 36 214 503
f 521 509 533
f 521 214 501
f 521 501 503
f 583 530 585
f 580 509 533
f 580 532 509
f 58 30 32
f 31 585 32
f 31 30 32
f 31 584 585
f 31 194 30
f 31 584 219
f 31 194 219
f 582 532 509
f 582 518 532
f 222 582 519
f 222 582 28
f 527 500 526
f 527 500 528
f 498 500 526
f 498 587 526
f 498 587 497
f 498 500 217
f 502 500 528
f 502 500 215
f 560 589 559
f 560 41 559
f 560 41 589
f 313 299 280
f 313 281 280
f 313 299 297
f 313 312 297
f 314 327 286
f 314 284 286
f 314 284 281
f 314 313 281
f 467 466 461
f 467 231 466
f 1 4 3
f 1 50 2
f 1 3 2
f 144 210 5
f 51 50 2
f 51 65 2
f 160 162 95
f 161 162 95
f 265 75 165
f 265 165 76
f 265 161 76
f 265 161 162
f 265 162 66
f 152 150 68
f 164 75 167
f 164 163 209
f 164 75 165
f 164 163 165
f 166 163 76
f 166 161 76
f 166 161 95
f 114 325 119
f 46 62 47
f 46 327 286
f 46 49 327
f 46 287 47
f 46 286 287
f 318 49 326
f 318 49 327
f 323 320 321
f 323 320 319
f 323 322 319
f 323 322 63
f 201 200 63
f 201 323 63
f 176 201 177
f 171 125 126
f 171 289 126
f 171 125 289
f 120 125 119
f 120 325 289
f 261 307 263
f 261 258 307
f 256 305 266
f 256 257 258
f 256 258 310
f 256 305 310
f 306 301 298
f 306 305 301
f 306 311 298
f 306 270 311
f 306 305 266
f 306 270 266
f 90 35 59
f 90 35 191
f 34 217 215
f 513 515 42
f 513 516 42
f 513 516 515
f 511 512 42
f 511 507 42
f 511 507 512
f 506 507 225
f 506 507 590
f 204 48 84
f 196 43 42
f 196 185 42
f 196 206 43
f 81 43 205
f 81 206 43
f 178 180 179
f 178 185 180
f 178 196 185
f 174 176 177
f 72 325 321
f 72 173 325
f 72 174 177
f 72 174 115
f 72 173 115
f 459 466 461
f 459 229 466
f 279 569 538
f 279 536 569
f 279 536 278
f 279 541 579
f 279 437 579
f 492 491 2
f 483 556 71
f 483 481 71
f 483 481 556
f 493 481 579
f 493 246 240
f 493 234 68
f 493 481 68
f 364 365 363
f 364 367 365
f 364 367 366
f 370 369 524
f 370 371 524
f 567 371 372
f 567 372 373
f 567 505 524
f 567 371 524
f 355 356 524
f 355 359 524
f 355 359 356
f 362 370 369
f 362 370 371
f 362 371 372
f 362 368 372
f 357 359 356
f 357 360 359
f 539 278 535
f 539 594 278
f 471 12 211
f 565 485 14
f 565 487 14
f 139 55 211
f 139 221 211
f 139 221 9
f 139 140 9
f 139 140 55
f 572 571 10
f 572 221 10
f 25 128 23
f 25 128 38
f 25 36 23
f 25 36 38
f 130 22 20
f 130 22 21
f 129 21 469
f 129 213 469
f 129 130 21
f 129 213 20
f 129 130 20
f 131 488 18
f 131 213 488
f 131 18 19
f 131 132 19
f 131 132 20
f 131 213 20
f 27 521 214
f 27 38 40
f 27 214 38
f 26 28 509
f 26 521 509
f 26 27 521
f 591 521 533
f 591 476 566
f 591 494 476
f 591 494 503
f 591 521 503
f 529 502 528
f 529 502 586
f 499 583 585
f 499 218 586
f 499 529 583
f 499 529 586
f 499 585 32
f 499 218 32
f 223 218 586
f 223 502 586
f 223 35 59
f 223 218 35
f 223 502 215
f 561 518 584
f 531 518 584
f 531 530 585
f 531 584 585
f 33 218 32
f 33 58 32
f 33 218 35
f 33 35 191
f 33 58 191
f 193 194 30
f 193 58 30
f 510 28 509
f 510 582 509
f 510 582 28
f 520 222 519
f 520 582 519
f 520 582 518
f 562 518 219
f 562 222 219
f 562 520 518
f 562 520 222
f 29 222 219
f 224 498 497
f 224 216 497
f 224 37 216
f 224 498 217
f 350 344 390
f 277 311 259
f 277 270 311
f 269 270 266
f 269 256 266
f 255 237 231
f 255 237 260
f 230 231 466
f 230 229 466
f 54 141 108
f 54 10 9
f 54 141 10
f 8 571 10
f 8 141 10
f 8 141 7
f 8 7 6
f 11 12 17
f 11 12 212
f 52 144 110
f 52 4 5
f 52 144 5
f 142 144 210
f 142 210 6
f 142 53 6
f 142 106 144
f 109 144 110
f 109 106 144
f 107 141 7
f 107 141 108
f 107 53 7
f 105 51 50
f 105 1 50
f 78 252 253
f 77 254 66
f 159 162 66
f 159 160 162
f 276 75 74
f 276 265 75
f 276 309 74
f 250 234 68
f 250 152 68
f 250 152 154
f 250 232 154
f 175 164 209
f 175 173 115
f 473 210 5
f 82 62 84
f 82 46 62
f 82 46 49
f 82 83 49
f 64 83 49
f 64 322 63
f 64 316 322
f 64 49 326
f 64 316 326
f 89 201 200
f 89 176 201
f 172 325 119
f 172 120 119
f 172 120 325
f 124 125 289
f 124 120 289
f 124 120 125
f 268 263 262
f 268 261 263
f 268 261 258
f 268 257 258
f 243 257 235
f 243 233 235
f 243 233 274
f 189 188 59
f 189 90 59
f 190 188 59
f 190 34 215
f 190 223 215
f 190 223 59
f 88 190 188
f 88 190 34
f 186 224 217
f 186 224 37
f 86 186 87
f 86 186 37
f 183 41 216
f 183 41 180
f 508 590 225
f 508 506 225
f 508 506 590
f 79 61 205
f 79 81 205
f 79 61 44
f 184 196 206
f 184 178 196
f 317 313 312
f 317 314 313
f 317 314 327
f 317 318 327
f 317 318 326
f 317 316 326
f 315 322 319
f 315 316 322
f 315 312 296
f 315 317 312
f 315 317 316
f 315 293 296
f 315 293 319
f 112 163 115
f 112 166 163
f 324 72 321
f 324 72 177
f 324 323 321
f 324 201 177
f 324 201 323
f 451 447 452
f 490 492 2
f 241 250 234
f 241 250 232
f 247 493 240
f 247 493 248
f 228 248 229
f 228 459 229
f 228 247 227
f 228 247 248
f 236 493 234
f 236 493 237
f 236 241 234
f 236 237 260
f 236 241 260
f 238 493 237
f 238 237 231
f 238 230 231
f 378 367 366
f 374 365 373
f 374 367 365
f 374 567 373
f 374 567 505
f 460 247 240
f 460 228 227
f 460 247 227
f 361 360 369
f 361 362 369
f 361 368 363
f 361 362 368
f 448 436 437
f 448 435 436
f 573 471 552
f 479 564 212
f 480 471 552
f 480 479 564
f 480 479 212
f 480 471 12
f 480 12 212
f 97 140 9
f 97 54 9
f 102 55 17
f 102 11 17
f 574 572 221
f 574 221 211
f 574 471 211
f 574 573 550
f 574 573 471
f 199 26 28
f 375 287 496
f 375 405 496
f 388 344 390
f 379 381 380
f 379 378 380
f 379 381 385
f 387 505 496
f 387 384 505
f 563 584 219
f 563 561 219
f 563 561 584
f 517 518 219
f 517 561 219
f 517 561 518
f 581 518 532
f 581 531 518
f 99 202 111
f 192 58 191
f 192 193 58
f 197 222 28
f 197 29 222
f 394 358 282
f 304 311 259
f 288 311 300
f 288 304 311
f 272 260 259
f 272 277 259
f 272 241 260
f 145 137 16
f 145 212 16
f 145 11 212
f 13 16 14
f 13 15 14
f 13 136 15
f 134 18 19
f 134 18 15
f 134 136 15
f 143 107 53
f 143 142 53
f 143 142 106
f 104 51 65
f 104 105 51
f 147 52 110
f 147 52 4
f 147 1 4
f 67 78 253
f 158 77 66
f 158 159 66
f 158 77 103
f 275 276 309
f 275 309 308
f 275 263 308
f 275 263 262
f 251 232 154
f 251 233 154
f 251 233 274
f 207 175 209
f 207 175 115
f 207 163 209
f 207 163 115
f 73 173 325
f 73 175 173
f 73 175 114
f 113 114 167
f 113 164 167
f 113 175 114
f 113 175 164
f 474 543 571
f 474 8 6
f 474 8 571
f 551 574 550
f 551 574 572
f 551 572 571
f 551 543 571
f 542 481 579
f 484 492 491
f 484 490 492
f 484 542 546
f 484 542 481
f 484 481 556
f 484 556 71
f 484 71 2
f 484 490 2
f 203 64 83
f 203 200 63
f 203 64 63
f 242 268 252
f 242 268 257
f 242 252 235
f 242 257 235
f 245 253 262
f 245 268 262
f 245 252 253
f 245 268 252
f 267 243 257
f 267 256 257
f 267 269 256
f 267 269 274
f 267 243 274
f 60 34 217
f 60 186 217
f 60 186 87
f 60 88 87
f 60 88 34
f 187 182 37
f 187 86 37
f 85 180 179
f 85 183 180
f 181 182 37
f 181 37 216
f 181 183 216
f 181 85 182
f 181 85 183
f 80 79 44
f 80 48 44
f 80 204 48
f 116 174 115
f 116 112 115
f 116 174 166
f 116 112 166
f 449 451 579
f 449 451 447
f 568 451 452
f 568 493 246
f 568 493 579
f 568 451 579
f 537 279 538
f 537 592 279
f 540 279 541
f 540 592 279
f 249 493 248
f 249 248 229
f 249 230 229
f 425 378 380
f 458 228 459
f 458 460 228
f 455 460 240
f 455 246 240
f 443 437 579
f 443 448 579
f 443 448 437
f 444 448 579
f 444 449 579
f 444 449 447
f 444 448 435
f 444 435 434
f 444 447 434
f 475 488 549
f 475 477 478
f 475 477 15
f 475 18 15
f 475 488 18
f 578 565 487
f 578 480 552
f 578 487 212
f 578 480 564
f 578 564 212
f 146 54 108
f 146 97 54
f 96 140 55
f 96 102 55
f 138 145 137
f 138 145 11
f 39 111 40
f 39 202 111
f 39 199 26
f 39 27 40
f 39 26 27
f 403 402 496
f 400 375 405
f 399 400 398
f 382 381 380
f 382 388 381
f 382 347 380
f 383 374 367
f 383 387 384
f 383 384 505
f 383 374 505
f 401 387 385
f 401 402 496
f 401 387 496
f 133 132 19
f 133 99 19
f 133 99 111
f 133 111 40
f 133 132 40
f 92 197 29
f 92 198 29
f 283 394 282
f 271 269 270
f 271 277 270
f 271 272 277
f 244 241 232
f 244 272 241
f 244 251 232
f 244 271 272
f 149 65 150
f 149 104 65
f 148 105 1
f 148 147 1
f 69 154 153
f 69 156 78
f 69 233 235
f 69 233 154
f 69 252 235
f 69 78 252
f 70 253 254
f 70 67 253
f 70 77 254
f 70 77 103
f 157 70 103
f 157 70 67
f 157 156 78
f 157 67 78
f 264 275 262
f 264 276 265
f 264 275 276
f 264 253 262
f 264 265 66
f 264 253 254
f 264 254 66
f 170 114 325
f 170 73 325
f 170 73 114
f 570 474 543
f 472 473 545
f 472 473 210
f 472 210 6
f 472 474 6
f 482 473 545
f 482 473 5
f 482 3 5
f 489 547 546
f 489 484 546
f 489 484 491
f 489 482 555
f 489 3 2
f 239 238 493
f 239 249 493
f 239 238 230
f 239 249 230
f 346 425 378
f 454 430 442
f 454 455 460
f 454 441 442
f 577 475 549
f 577 475 576
f 486 578 565
f 486 578 576
f 486 475 576
f 486 565 485
f 486 485 14
f 486 475 478
f 486 15 14
f 486 478 15
f 575 578 552
f 575 578 576
f 101 102 11
f 101 138 11
f 404 403 398
f 404 400 405
f 404 400 398
f 404 405 496
f 404 403 496
f 396 403 402
f 396 401 385
f 396 401 402
f 376 400 375
f 376 285 287
f 376 375 287
f 376 400 358
f 376 285 282
f 376 358 282
f 392 394 358
f 345 347 428
f 345 382 347
f 386 379 385
f 386 383 379
f 386 387 385
f 386 383 387
f 377 383 367
f 377 383 379
f 377 378 367
f 377 379 378
f 98 137 16
f 98 13 16
f 98 13 136
f 98 135 136
f 100 134 136
f 100 135 136
f 100 99 19
f 100 134 19
f 56 92 197
f 56 199 28
f 56 197 28
f 195 193 194
f 195 91 194
f 57 91 194
f 57 194 219
f 57 29 219
f 57 91 198
f 57 198 29
f 464 467 461
f 464 423 461
f 464 423 421
f 464 462 421
f 468 462 260
f 468 255 260
f 468 464 467
f 468 464 462
f 468 467 231
f 468 255 231
f 273 244 251
f 273 244 271
f 273 251 274
f 273 269 274
f 273 271 269
f 151 152 150
f 151 149 150
f 151 154 153
f 151 152 154
f 155 69 153
f 155 69 156
f 544 472 545
f 544 570 474
f 544 472 474
f 548 482 545
f 548 489 547
f 548 489 482
f 558 555 3
f 558 482 3
f 558 482 555
f 554 491 2
f 554 489 2
f 554 489 491
f 557 555 3
f 557 489 3
f 557 489 555
f 453 455 246
f 453 568 452
f 453 568 246
f 446 433 430
f 446 454 430
f 446 453 452
f 446 454 455
f 446 453 455
f 349 346 432
f 349 346 378
f 420 423 335
f 420 423 461
f 420 330 335
f 457 458 459
f 457 458 460
f 397 403 398
f 397 396 403
f 393 392 358
f 393 392 399
f 393 400 358
f 393 399 400
f 407 392 394
f 94 56 199
f 94 39 202
f 94 39 199
f 406 283 394
f 328 329 416
f 337 424 423
f 463 462 260
f 463 450 260
f 303 260 259
f 303 450 260
f 303 304 259
f 336 423 421
f 336 424 423
f 391 392 410
f 391 411 390
f 391 392 399
f 445 446 433
f 445 433 434
f 445 447 434
f 445 447 452
f 445 446 452
f 332 431 441
f 332 333 441
f 348 346 425
f 353 425 380
f 440 333 441
f 440 457 441
f 465 420 439
f 465 420 461
f 465 459 461
f 465 457 459
f 465 440 439
f 465 440 457
f 456 454 441
f 456 457 441
f 456 454 460
f 456 457 460
f 414 438 439
f 395 399 398
f 395 397 398
f 395 391 390
f 395 391 399
f 408 407 392
f 408 342 407
f 93 56 92
f 93 94 56
f 352 411 390
f 418 422 419
f 418 463 450
f 418 341 421
f 418 462 421
f 418 463 462
f 351 391 411
f 351 352 411
f 331 332 333
f 334 440 439
f 334 438 439
f 340 440 333
f 340 429 333
f 389 381 385
f 389 396 385
f 389 388 381
f 389 397 396
f 389 395 397
f 389 388 390
f 389 395 390
f 413 391 410
f 343 408 392
f 339 422 419
f 417 418 419
f 417 328 416
f 417 418 450
f 417 303 416
f 417 303 450
f 417 409 419
f 417 328 329
f 415 418 341
f 412 351 352
f 426 347 380
f 427 334 438
f 338 340 440
f 354 353 425
f 298 299 297
f 298 299 300
f 289 291 290
f 289 291 302
f 301 298 297
f 301 296 297
f 293 301 296
f 293 301 294
f 295 293 294
f 295 293 292
f 295 291 290
f 295 292 290
f 114 119 167
f 174 176 95
f 174 166 95
f 279 437 356
f 279 278 356
f 357 437 356
f 357 436 437
f 591 549 533
f 591 549 566
f 285 284 286
f 285 286 287
f 285 284 281
f 285 282 281
f 435 361 360
f 435 361 434
f 435 357 436
f 435 357 360
f 288 299 300
f 288 299 280
f 430 442 366
f 430 364 366
f 441 442 366
f 441 378 366
f 330 350 344
f 330 350 335
f 283 288 416
f 283 288 280
f 283 282 281
f 283 281 280
f 423 350 335
f 423 350 390
f 433 361 434
f 433 361 363
f 433 430 364
f 433 364 363
f 548 522 524
f 548 551 550
f 548 594 593
f 548 523 525
f 548 593 524
f 548 583 530
f 548 595 534
f 548 595 535
f 548 587 526
f 548 580 533
f 548 549 533
f 548 588 525
f 548 544 545
f 548 527 526
f 548 569 538
f 548 536 534
f 548 523 522
f 548 587 588
f 548 529 528
f 548 541 579
f 548 531 530
f 548 536 569
f 548 573 550
f 548 539 535
f 548 580 532
f 548 527 528
f 548 581 532
f 548 539 594
f 548 529 583
f 548 575 552
f 548 540 541
f 548 542 579
f 548 537 538
f 548 573 552
f 548 577 549
f 548 581 531
f 548 551 543
f 548 542 546
f 548 547 546
f 548 537 592
f 548 540 592
f 548 570 543
f 548 577 576
f 548 575 576
f 548 544 570
f 349 441 378
f 349 431 441
f 420 439 382
f 420 382 388
f 420 330 344
f 420 388 344
f 406 283 416
f 406 329 416
f 303 288 416
f 303 288 304
f 332 349 431
f 332 349 432
f 414 439 382
f 414 345 382
f 414 345 428
f 414 438 428
f 342 409 407
f 342 409 419
f 93 187 182
f 93 82 84
f 93 176 95
f 93 138 137
f 93 90 191
f 93 160 95
f 93 184 206
f 93 107 108
f 93 151 153
f 93 189 188
f 93 81 206
f 93 178 179
f 93 109 110
f 93 147 110
f 93 100 99
f 93 158 103
f 93 89 200
f 93 88 87
f 93 204 84
f 93 86 87
f 93 85 179
f 93 80 204
f 93 96 140
f 93 192 191
f 93 109 106
f 93 101 102
f 93 143 106
f 93 159 160
f 93 82 83
f 93 89 176
f 93 189 90
f 93 88 188
f 93 203 200
f 93 79 81
f 93 184 178
f 93 97 140
f 93 146 108
f 93 99 202
f 93 192 193
f 93 155 153
f 93 143 107
f 93 104 105
f 93 195 193
f 93 148 105
f 93 158 159
f 93 203 83
f 93 187 86
f 93 85 182
f 93 80 79
f 93 146 97
f 93 96 102
f 93 157 103
f 93 98 137
f 93 92 198
f 93 91 198
f 93 149 104
f 93 148 147
f 93 157 156
f 93 101 138
f 93 98 135
f 93 100 135
f 93 195 91
f 93 151 149
f 93 155 156
f 93 94 202
f 352 423 390
f 352 337 423
f 351 391 421
f 351 336 421
f 331 348 333
f 331 348 346
f 331 332 432
f 331 346 432
f 429 348 333
f 429 348 425
f 413 391 421
f 413 341 421
f 343 418 422
f 343 418 392
f 339 342 419
f 339 408 342
f 339 343 422
f 339 343 408
f 417 409 407
f 417 407 394
f 417 406 329
f 417 406 394
f 415 413 341
f 415 413 410
f 415 418 392
f 415 392 410
f 412 352 337
f 412 337 424
f 412 351 336
f 412 336 424
f 426 334 440
f 426 440 380
f 427 438 428
f 427 347 428
f 427 426 334
f 427 426 347
f 338 440 380
f 338 353 380
f 354 429 425
f 354 340 429
f 354 338 353
f 354 338 340
