v -0.015916 0.031732 0.015350
v -0.015916 0.031732 0.016950
v 0.007828 0.034626 0.016950
v 0.017542 0.030863 0.016950
v 0.020483 0.028995 0.016950
v 0.017542 0.030863 0.015350
v 0.000922 0.035488 0.016950
v -0.024442 0.025746 0.016950
v -0.021801 0.028018 0.016950
v -0.006019 0.034986 0.016950
v -0.012729 0.033140 0.015350
v -0.021801 0.028018 0.015350
v 0.011184 0.033692 0.015350
v 0.014433 0.032434 0.016950
v -0.002561 0.035408 0.016950
v 0.020483 0.028995 0.015350
v -0.002561 0.035408 0.015350
v 0.025746 0.024442 0.016950
v 0.028018 0.021801 0.016950
v 0.025746 0.024442 0.015350
v 0.028995 -0.020483 0.016950
v 0.028018 0.021801 0.015350
v 0.028995 -0.020483 0.015350
v 0.023226 0.026848 0.015350
v 0.024442 -0.025746 0.016950
v 0.021801 -0.028018 0.016950
v 0.021801 -0.028018 0.015350
v 0.012729 -0.033140 0.016950
v -0.000922 -0.035488 0.016950
v -0.000922 -0.035488 0.015350
v 0.006019 -0.034986 0.016950
v 0.018949 -0.030019 0.015350
v 0.018949 -0.030019 0.016950
v -0.011184 -0.033692 0.016950
v -0.011184 -0.033692 0.015350
v -0.007828 -0.034626 0.015350
v -0.014433 -0.032434 0.016950
v -0.023226 -0.026848 0.015350
v -0.028018 -0.021801 0.015350
v -0.030019 -0.018949 0.016950
v -0.035227 0.004396 0.016950
v -0.035488 0.000922 0.015350
v -0.035488 0.000922 0.016950
v -0.031732 -0.015916 0.016950
v -0.030019 -0.018949 0.015350
v -0.034986 -0.006019 0.015350
v -0.034986 -0.006019 0.016950
v -0.035408 -0.002561 0.016950
v -0.034228 -0.009419 0.015350
v -0.033692 0.011184 0.016950
v -0.032434 0.014433 0.016950
v -0.033692 0.011184 0.015350
v -0.035227 0.004396 0.015350
v -0.034626 0.007828 0.015350
v -0.032434 0.014433 0.015350
v -0.035408 -0.002561 0.015350
v -0.026848 0.023226 0.016950
v 0.006019 -0.034986 0.015350
v -0.020483 -0.028995 0.015350
v 0.024442 -0.025746 0.015350
v -0.033140 -0.012729 0.015350
v -0.030863 0.017542 0.015350
v -0.018949 0.030019 0.016950
v -0.012729 0.033140 0.016950
v -0.009419 0.034228 0.016950
v 0.004396 0.035227 0.016950
v 0.011184 0.033692 0.016950
v 0.023226 0.026848 0.016950
v 0.026848 -0.023226 0.016950
v 0.015916 -0.031732 0.016950
v 0.009419 -0.034228 0.016950
v -0.017542 -0.030863 0.016950
v 0.002561 -0.035408 0.016950
v -0.023226 -0.026848 0.016950
v -0.004396 -0.035227 0.016950
v -0.028018 -0.021801 0.016950
v -0.033140 -0.012729 0.016950
v -0.034626 0.007828 0.016950
v -0.030863 0.017542 0.016950
v -0.025746 -0.024442 0.016950
v -0.007828 -0.034626 0.016950
v -0.020483 -0.028995 0.016950
v -0.034228 -0.009419 0.016950
v -0.028995 0.020483 0.016950
v 0.030019 0.018949 0.015350
v 0.004396 0.035227 0.015350
v 0.007828 0.034626 0.015350
v -0.006019 0.034986 0.015350
v -0.009419 0.034228 0.015350
v -0.018949 0.030019 0.015350
v 0.000922 0.035488 0.015350
v 0.026848 -0.023226 0.015350
v 0.014433 0.032434 0.015350
v -0.024442 0.025746 0.015350
v -0.026848 0.023226 0.015350
v -0.028995 0.020483 0.015350
v 0.012729 -0.033140 0.015350
v -0.025746 -0.024442 0.015350
v -0.004396 -0.035227 0.015350
v 0.002561 -0.035408 0.015350
v 0.009419 -0.034228 0.015350
v -0.017542 -0.030863 0.015350
v -0.031732 -0.015916 0.015350
v -0.014433 -0.032434 0.015350
v 0.015916 -0.031732 0.015350
v 0.039667 -0.005210 0.019300
v 0.039816 -0.003912 0.019300
v 0.039816 -0.003912 0.022800
v 0.039922 -0.002610 0.019300
v 0.039985 -0.001306 0.019300
v 0.039985 -0.001306 0.022800
v 0.039922 -0.002610 0.022800
v 0.039667 -0.005210 0.022800
v 0.040007 0.000000 0.022800
v 0.040007 0.000000 0.019300
v 0.039985 0.001306 0.019300
v 0.039922 0.002610 0.019300
v 0.039922 0.002610 0.022800
v 0.039816 0.003912 0.019300
v 0.039816 0.003912 0.022800
v 0.039985 0.001306 0.022800
v 0.039878 -0.003140 0.019300
v 0.039845 -0.003138 0.018910
v 0.039692 -0.004701 0.018910
v 0.039938 -0.001570 0.018910
v 0.039968 0.000000 0.018910
v 0.039579 -0.004687 0.018535
v 0.039341 -0.005680 0.018316
v 0.039732 -0.003129 0.018535
v 0.039824 -0.001566 0.018535
v 0.039855 0.000000 0.018535
v 0.039824 0.001566 0.018535
v 0.039938 0.001570 0.018910
v 0.039878 0.003140 0.019300
v 0.039845 0.003138 0.018910
v 0.039692 0.004701 0.018910
v 0.039732 0.003129 0.018535
v 0.039579 0.004687 0.018535
v 0.039506 0.005539 0.018629
v 0.039222 -0.005945 0.018220
v 0.039221 -0.006108 0.018368
v 0.039399 -0.005895 0.018600
v 0.039615 -0.005380 0.018961
v 0.039529 -0.005673 0.018833
v 0.039506 -0.005539 0.018630
v 0.039179 -0.006250 0.018532
v 0.039179 0.006250 0.018532
v 0.039221 0.006108 0.018368
v 0.039274 0.006163 0.018808
v 0.039399 0.005895 0.018600
v 0.039593 0.005547 0.019130
v 0.039529 0.005673 0.018833
v 0.039461 0.005868 0.018965
v 0.039667 0.005210 0.019300
v 0.039222 0.005945 0.018220
v 0.039341 0.005680 0.018315
v 0.039615 0.005381 0.018960
v 0.039274 -0.006163 0.018808
v 0.039461 -0.005868 0.018965
v 0.039593 -0.005546 0.019130
v 0.039461 -0.005868 0.023135
v 0.039593 0.005547 0.022970
v 0.039461 0.005868 0.023135
v 0.038672 -0.006483 0.024175
v 0.038281 -0.006312 0.024576
v 0.038195 -0.005982 0.024690
v 0.038673 -0.006225 0.024375
v 0.038984 -0.006307 0.023959
v 0.038984 -0.006097 0.024136
v 0.038930 -0.006476 0.023749
v 0.039179 -0.006250 0.023568
v 0.039221 -0.006108 0.023732
v 0.039274 -0.006163 0.023292
v 0.039399 -0.005895 0.023500
v 0.039593 -0.005546 0.022970
v 0.039529 -0.005673 0.023267
v 0.039222 -0.005945 0.023880
v 0.039341 -0.005680 0.023784
v 0.039506 -0.005539 0.023470
v 0.039615 -0.005380 0.023139
v 0.038281 0.006312 0.024576
v 0.038544 0.005955 0.024536
v 0.038673 0.006225 0.024375
v 0.038672 0.006483 0.024175
v 0.038984 0.006307 0.023959
v 0.038930 0.006476 0.023749
v 0.038984 0.006097 0.024136
v 0.039123 0.005800 0.024073
v 0.039222 0.005945 0.023880
v 0.039221 0.006108 0.023732
v 0.039341 0.005680 0.023785
v 0.039399 0.005895 0.023500
v 0.039615 0.005381 0.023140
v 0.039529 0.005673 0.023267
v 0.039506 0.005539 0.023471
v 0.039179 0.006250 0.023568
v 0.039274 0.006163 0.023292
v 0.039667 0.005210 0.022800
v 0.039692 -0.004701 0.023190
v 0.039845 -0.003138 0.023190
v 0.039732 -0.003129 0.023565
v 0.039395 -0.004666 0.023911
v 0.039123 -0.005800 0.024073
v 0.039579 -0.004687 0.023565
v 0.039548 -0.003114 0.023911
v 0.039300 -0.003095 0.024214
v 0.039148 -0.004636 0.024214
v 0.038856 -0.005893 0.024326
v 0.039824 -0.001566 0.023565
v 0.039938 -0.001570 0.023190
v 0.039968 0.000000 0.023190
v 0.039855 0.000000 0.023565
v 0.039639 -0.001558 0.023911
v 0.039670 0.000000 0.023911
v 0.039824 0.001566 0.023565
v 0.039639 0.001558 0.023911
v 0.039391 -0.001549 0.024214
v 0.039938 0.001570 0.023190
v 0.039421 0.000000 0.024214
v 0.038544 -0.005955 0.024536
v 0.038847 -0.004601 0.024463
v 0.038997 -0.003071 0.024463
v 0.039088 -0.001537 0.024463
v 0.038504 -0.004560 0.024648
v 0.038653 -0.003044 0.024648
v 0.038742 -0.001523 0.024648
v 0.039118 0.000000 0.024463
v 0.038772 0.000000 0.024648
v 0.039391 0.001549 0.024214
v 0.039088 0.001537 0.024463
v 0.038742 0.001523 0.024648
v 0.039845 0.003138 0.023190
v 0.039692 0.004701 0.023190
v 0.039579 0.004687 0.023565
v 0.039732 0.003129 0.023565
v 0.039548 0.003114 0.023911
v 0.039300 0.003095 0.024214
v 0.039395 0.004666 0.023911
v 0.039148 0.004636 0.024214
v 0.038997 0.003071 0.024463
v 0.038653 0.003044 0.024648
v 0.038847 0.004601 0.024463
v 0.038856 0.005893 0.024326
v 0.038504 0.004560 0.024648
v 0.038195 0.005982 0.024690
v -0.028826 0.011104 0.028400
v -0.029325 0.010358 0.028400
v -0.029500 0.009478 0.028400
v -0.015793 0.027972 0.028400
v -0.018063 0.026387 0.028400
v -0.013374 0.029318 0.028400
v -0.029500 -0.009478 0.028400
v -0.029325 -0.010358 0.028400
v -0.028826 -0.011104 0.028400
v -0.018063 -0.026387 0.028400
v -0.013374 -0.029318 0.028400
v -0.012735 -0.029450 0.028400
v 0.012712 0.029694 0.028400
v 0.016866 0.027547 0.028400
v 0.014828 0.028695 0.028400
v 0.022869 0.022070 0.028400
v 0.027100 0.008139 0.028400
v 0.012084 -0.029793 0.028400
v 0.012712 -0.029694 0.028400
v 0.016866 -0.027547 0.028400
v 0.027100 -0.008139 0.028400
v 0.026843 -0.009921 0.028400
v 0.027035 -0.009039 0.028400
v 0.022869 -0.022070 0.028400
v 0.020667 -0.024823 0.028400
v 0.021560 -0.023935 0.028400
v 0.012987 0.030337 0.027700
v 0.015149 0.029317 0.027700
v 0.017232 0.028144 0.027700
v 0.019224 -0.026823 0.027700
v 0.021115 -0.025361 0.027700
v 0.012987 -0.030337 0.027700
v 0.022095 0.024386 0.027700
v 0.023403 -0.022522 0.027700
v -0.018493 -0.026940 0.027700
v -0.013683 -0.029946 0.027700
v -0.016164 0.028565 0.027700
v -0.013683 0.029946 0.027700
v -0.018493 0.026940 0.027700
v -0.018710 0.026770 0.027612
v -0.018771 -0.026221 0.028107
v -0.018437 0.026300 0.028328
v -0.018438 -0.026300 0.028327
v 0.012514 0.030474 0.027700
v -0.013204 0.030110 0.027700
v 0.012514 -0.030474 0.027700
v 0.012022 -0.030490 0.027700
v -0.012800 -0.030152 0.027700
v -0.029972 0.010626 0.027700
v -0.030142 0.010063 0.027700
v -0.030200 0.009478 0.027700
v -0.029972 -0.010626 0.027700
v -0.030142 -0.010063 0.027700
v -0.030200 -0.009478 0.027700
v -0.012800 0.029452 0.028400
v -0.012800 0.030152 0.027700
v -0.018771 0.026221 0.028107
v -0.029694 0.011144 0.027700
v -0.029694 -0.011144 0.027700
v -0.018710 -0.026770 0.027612
v -0.015793 -0.027972 0.028400
v -0.016164 -0.028565 0.027700
v -0.013204 -0.030110 0.027700
v 0.026843 0.009921 0.028400
v 0.027035 0.009039 0.028400
v 0.023611 0.020999 0.028400
v 0.024222 0.021341 0.027700
v 0.023403 0.022522 0.027700
v 0.024136 0.019807 0.028400
v 0.024136 -0.019807 0.028400
v 0.023611 -0.020999 0.028400
v 0.024222 -0.021341 0.027700
v 0.021115 0.025361 0.027700
v 0.020667 0.024823 0.028400
v 0.021560 0.023935 0.028400
v 0.022095 -0.024386 0.027700
v 0.018816 0.026254 0.028400
v 0.019224 0.026823 0.027700
v 0.018816 -0.026254 0.028400
v 0.017232 -0.028144 0.027700
v 0.014828 -0.028695 0.028400
v 0.015149 -0.029317 0.027700
v 0.012200 0.029798 0.028400
v 0.012200 0.030498 0.027700
v -0.021496 0.021496 0.000000
v -0.026810 0.014330 0.000000
v -0.019286 0.023500 0.000000
v -0.014330 0.026810 0.000000
v -0.030254 0.002980 0.000000
v -0.029816 0.005931 0.000000
v -0.029091 0.008825 0.000000
v -0.030400 -0.000000 0.000000
v -0.008825 0.029091 0.000000
v -0.002980 0.030254 0.000000
v 0.002980 0.030254 0.000000
v -0.028086 -0.011634 0.000000
v -0.023500 -0.019286 0.000000
v -0.019286 -0.023500 0.000000
v 0.005931 -0.029816 0.000000
v 0.008825 -0.029091 0.000000
v -0.005931 -0.029816 0.000000
v -0.002980 -0.030254 0.000000
v 0.021496 0.021496 0.000000
v 0.025277 0.016889 0.000000
v 0.029091 0.008825 0.000000
v 0.029816 0.005931 0.000000
v 0.030254 0.002980 0.000000
v 0.030400 -0.000000 0.000000
v 0.014330 -0.026810 0.000000
v 0.029091 -0.008825 0.000000
v 0.028086 -0.011634 0.000000
v 0.026810 -0.014330 0.000000
v 0.023500 -0.019286 0.000000
v 0.025277 -0.016889 0.000000
v -0.031500 -0.000000 0.001100
v -0.031348 -0.003088 0.001100
v -0.030895 -0.006145 0.001100
v -0.027781 -0.014849 0.001100
v -0.026191 -0.017500 0.001100
v -0.024350 -0.019983 0.001100
v -0.022274 -0.022274 0.001100
v -0.006145 -0.030895 0.001100
v -0.003088 -0.031348 0.001100
v 0.006145 -0.030895 0.001100
v 0.009144 -0.030144 0.001100
v 0.012055 -0.029102 0.001100
v 0.019983 -0.024350 0.001100
v 0.022274 -0.022274 0.001100
v 0.027781 -0.014849 0.001100
v 0.030144 -0.009144 0.001100
v 0.031348 -0.003088 0.001100
v 0.031500 -0.000000 0.001100
v 0.031348 0.003088 0.001100
v 0.030895 0.006145 0.001100
v 0.029102 0.012055 0.001100
v 0.026191 0.017500 0.001100
v 0.019983 0.024350 0.001100
v 0.017500 0.026191 0.001100
v 0.012055 0.029102 0.001100
v 0.006145 0.030895 0.001100
v 0.003088 0.031348 0.001100
v -0.003088 0.031348 0.001100
v -0.006145 0.030895 0.001100
v -0.009144 0.030144 0.001100
v -0.012055 0.029102 0.001100
v -0.017500 0.026191 0.001100
v -0.019983 0.024350 0.001100
v -0.022274 0.022274 0.001100
v -0.024350 0.019983 0.001100
v -0.026191 0.017500 0.001100
v -0.027781 0.014849 0.001100
v -0.029102 0.012055 0.001100
v -0.030144 0.009144 0.001100
v -0.030254 -0.002980 0.000000
v -0.029816 -0.005931 0.000000
v -0.029091 -0.008825 0.000000
v -0.030144 -0.009144 0.001100
v -0.021496 -0.021496 0.000000
v -0.026810 -0.014330 0.000000
v -0.025277 -0.016889 0.000000
v -0.017500 -0.026191 0.001100
v -0.016889 -0.025277 0.000000
v -0.014330 -0.026810 0.000000
v -0.019983 -0.024350 0.001100
v -0.011634 -0.028086 0.000000
v -0.008825 -0.029091 0.000000
v -0.009144 -0.030144 0.001100
v -0.014849 -0.027781 0.001100
v -0.029102 -0.012055 0.001100
v -0.000000 -0.030400 0.000000
v -0.000000 -0.031500 0.001100
v 0.002980 -0.030254 0.000000
v 0.021496 -0.021496 0.000000
v 0.016889 -0.025277 0.000000
v 0.019286 -0.023500 0.000000
v 0.011634 -0.028086 0.000000
v 0.024350 -0.019983 0.001100
v 0.017500 -0.026191 0.001100
v 0.029816 -0.005931 0.000000
v 0.030254 -0.002980 0.000000
v 0.029102 -0.012055 0.001100
v 0.030895 -0.006145 0.001100
v 0.003088 -0.031348 0.001100
v -0.012055 -0.029102 0.001100
v 0.014849 -0.027781 0.001100
v 0.026191 -0.017500 0.001100
v 0.030144 0.009144 0.001100
v 0.024350 0.019983 0.001100
v 0.023500 0.019286 0.000000
v 0.016889 0.025277 0.000000
v 0.019286 0.023500 0.000000
v 0.027781 0.014849 0.001100
v 0.026810 0.014330 0.000000
v 0.028086 0.011634 0.000000
v 0.014330 0.026810 0.000000
v 0.022274 0.022274 0.001100
v 0.011634 0.028086 0.000000
v 0.008825 0.029091 0.000000
v 0.005931 0.029816 0.000000
v -0.000000 0.030400 0.000000
v -0.000000 0.031500 0.001100
v -0.005931 0.029816 0.000000
v -0.014849 0.027781 0.001100
v -0.016889 0.025277 0.000000
v -0.011634 0.028086 0.000000
v -0.023500 0.019286 0.000000
v -0.025277 0.016889 0.000000
v -0.028086 0.011634 0.000000
v -0.031348 0.003088 0.001100
v -0.030895 0.006145 0.001100
v 0.014849 0.027781 0.001100
v 0.009144 0.030144 0.001100
f 369 345 370
f 101 369 370
f 39 365 364
f 85 22 381
f 385 340 386
f 52 55 397
f 52 398 397
f 446 340 386
f 91 446 386
f 91 446 17
f 263 291 264
f 263 291 292
f 293 292 29
f 293 263 257
f 293 263 292
f 37 34 281
f 99 368 367
f 296 299 43
f 347 368 416
f 347 346 367
f 347 368 367
f 344 369 345
f 344 417 369
f 428 417 416
f 428 417 369
f 427 375 355
f 92 373 60
f 141 426 374
f 356 426 374
f 356 375 355
f 356 426 375
f 431 141 374
f 431 141 23
f 372 418 373
f 372 373 60
f 372 419 423
f 406 413 102
f 405 365 364
f 403 365 366
f 98 365 366
f 98 39 365
f 352 379 351
f 148 85 381
f 147 148 150
f 147 148 85
f 378 352 377
f 378 352 379
f 432 439 380
f 447 388 338
f 447 339 388
f 456 442 384
f 453 398 397
f 454 360 42
f 54 398 455
f 54 52 398
f 159 158 142
f 387 446 17
f 387 339 388
f 387 446 339
f 445 446 340
f 445 446 339
f 86 385 386
f 86 91 386
f 88 387 388
f 88 387 17
f 90 391 12
f 277 291 264
f 288 280 286
f 304 288 286
f 104 413 102
f 36 99 367
f 36 412 367
f 36 412 35
f 295 247 294
f 48 299 43
f 45 39 364
f 362 46 361
f 287 282 284
f 287 302 284
f 287 246 250
f 273 272 258
f 301 15 7
f 457 13 384
f 457 443 385
f 457 443 442
f 457 442 384
f 228 266 262
f 415 417 416
f 415 347 416
f 100 428 416
f 128 427 375
f 424 427 355
f 424 427 425
f 146 158 23
f 146 141 23
f 146 158 142
f 146 141 142
f 140 426 375
f 140 141 426
f 140 128 375
f 140 141 142
f 140 128 142
f 357 356 374
f 357 431 374
f 357 431 359
f 422 431 359
f 422 418 373
f 422 92 373
f 422 92 23
f 422 431 23
f 430 105 32
f 430 423 32
f 420 372 418
f 420 372 419
f 27 372 60
f 27 423 32
f 27 372 423
f 97 101 370
f 409 403 343
f 409 403 366
f 407 409 343
f 407 409 406
f 363 45 364
f 363 45 103
f 401 362 400
f 401 362 402
f 342 405 365
f 342 403 365
f 353 425 377
f 353 352 377
f 437 439 380
f 437 148 381
f 437 148 380
f 350 432 439
f 350 379 351
f 350 432 379
f 376 425 377
f 376 427 425
f 376 128 427
f 433 22 381
f 433 349 381
f 434 433 349
f 382 383 435
f 382 16 383
f 440 456 442
f 440 383 435
f 440 456 383
f 6 16 383
f 6 456 383
f 444 385 340
f 444 443 385
f 452 395 331
f 396 395 331
f 396 453 331
f 396 453 397
f 396 55 397
f 389 388 338
f 389 390 11
f 450 389 338
f 450 389 390
f 336 453 398
f 336 455 335
f 336 398 455
f 334 455 335
f 334 454 455
f 334 454 360
f 334 337 360
f 399 362 361
f 399 362 400
f 399 360 361
f 399 337 360
f 53 454 42
f 53 454 455
f 53 54 455
f 20 433 22
f 20 433 441
f 87 86 385
f 87 457 385
f 87 457 13
f 1 390 11
f 254 288 255
f 254 304 253
f 254 304 288
f 306 288 255
f 306 256 281
f 40 304 44
f 40 304 76
f 305 280 286
f 305 304 286
f 305 304 76
f 305 80 76
f 59 406 102
f 59 409 406
f 72 37 281
f 75 293 29
f 411 412 410
f 411 346 367
f 411 412 367
f 429 410 413
f 429 412 410
f 429 104 413
f 429 104 35
f 429 412 35
f 248 295 247
f 248 295 296
f 297 304 44
f 297 304 253
f 56 46 361
f 56 360 42
f 56 360 361
f 249 287 250
f 249 287 282
f 249 282 283
f 323 322 318
f 323 5 318
f 260 273 258
f 289 66 3
f 289 67 3
f 289 67 272
f 289 272 258
f 290 301 300
f 290 65 10
f 290 15 10
f 290 301 15
f 14 67 272
f 14 273 4
f 14 273 272
f 278 18 318
f 231 241 262
f 231 228 262
f 226 228 266
f 310 245 309
f 310 241 262
f 314 245 309
f 184 278 185
f 58 101 369
f 58 428 369
f 58 100 428
f 30 100 416
f 30 368 416
f 30 99 368
f 73 31 291
f 73 292 29
f 73 291 292
f 358 422 418
f 358 422 359
f 421 345 370
f 71 31 291
f 71 277 291
f 408 410 413
f 408 406 413
f 408 407 406
f 414 61 402
f 414 363 103
f 414 61 103
f 74 82 280
f 74 305 280
f 74 305 80
f 438 437 439
f 438 349 381
f 438 437 381
f 156 432 379
f 156 378 379
f 156 139 150
f 348 382 441
f 348 433 441
f 348 434 433
f 93 13 384
f 93 456 384
f 93 6 456
f 392 391 12
f 392 94 12
f 392 94 393
f 392 332 449
f 392 449 391
f 392 332 330
f 392 393 330
f 89 389 11
f 89 88 388
f 89 389 388
f 448 450 390
f 448 1 390
f 448 90 391
f 448 1 90
f 41 78 295
f 41 296 43
f 41 295 296
f 50 51 294
f 50 295 294
f 50 78 295
f 79 51 294
f 285 302 284
f 211 121 114
f 211 121 218
f 211 111 114
f 211 210 111
f 145 128 142
f 24 382 16
f 24 382 441
f 24 20 441
f 2 282 283
f 307 306 281
f 307 72 281
f 307 288 280
f 307 306 288
f 307 72 82
f 307 82 280
f 38 59 409
f 38 98 366
f 38 409 366
f 308 75 81
f 308 75 293
f 308 256 281
f 308 81 34
f 308 34 281
f 308 257 256
f 308 293 257
f 77 297 44
f 77 297 83
f 49 61 402
f 49 362 402
f 49 362 46
f 298 297 253
f 298 252 253
f 298 252 299
f 298 48 47
f 298 48 299
f 298 83 47
f 298 297 83
f 251 249 283
f 251 290 283
f 251 290 300
f 274 5 4
f 274 323 5
f 274 273 4
f 274 323 322
f 328 289 258
f 328 301 300
f 118 121 218
f 186 278 18
f 186 278 185
f 186 19 18
f 320 278 318
f 149 147 150
f 149 153 150
f 149 85 22
f 149 147 85
f 321 69 25
f 223 226 228
f 244 310 241
f 244 310 245
f 170 321 168
f 170 321 69
f 354 421 430
f 354 419 423
f 354 430 423
f 371 421 370
f 371 421 430
f 371 97 370
f 371 430 105
f 371 97 105
f 28 277 70
f 28 71 277
f 341 414 363
f 341 401 402
f 341 414 402
f 155 148 150
f 155 156 150
f 155 156 432
f 155 148 380
f 155 432 380
f 132 378 377
f 436 382 435
f 436 348 382
f 394 451 452
f 394 452 395
f 394 451 330
f 394 393 330
f 95 94 393
f 95 394 393
f 333 448 450
f 333 449 391
f 333 448 391
f 303 79 294
f 303 246 247
f 303 247 294
f 303 287 246
f 303 287 302
f 303 285 302
f 124 107 106
f 144 159 142
f 144 145 142
f 68 18 318
f 68 5 318
f 64 2 283
f 64 290 283
f 64 290 65
f 63 2 282
f 63 9 284
f 63 282 284
f 259 274 322
f 259 260 273
f 259 274 273
f 329 328 289
f 329 328 301
f 329 301 7
f 329 66 7
f 329 289 66
f 232 118 218
f 120 232 233
f 120 232 118
f 261 320 278
f 261 312 311
f 319 322 318
f 319 320 318
f 230 229 237
f 230 231 228
f 187 184 185
f 152 139 150
f 152 153 150
f 152 151 153
f 201 213 209
f 201 210 209
f 206 213 217
f 206 223 217
f 160 144 159
f 276 25 26
f 276 321 25
f 271 276 321
f 225 224 268
f 225 268 266
f 225 226 266
f 182 244 245
f 182 181 311
f 182 314 311
f 182 314 245
f 313 261 278
f 313 261 312
f 171 69 21
f 171 170 69
f 171 170 168
f 404 341 363
f 404 405 364
f 404 363 364
f 130 376 377
f 137 132 378
f 137 133 132
f 84 303 79
f 84 303 285
f 119 136 154
f 198 120 233
f 216 229 237
f 212 213 209
f 212 214 213
f 212 216 215
f 212 216 214
f 212 210 209
f 212 211 210
f 212 211 218
f 212 215 218
f 240 231 241
f 240 230 231
f 240 244 241
f 240 230 237
f 227 223 228
f 227 230 228
f 183 187 184
f 183 312 311
f 183 181 311
f 183 313 312
f 183 187 243
f 183 184 278
f 183 313 278
f 183 182 243
f 183 182 181
f 236 216 237
f 196 197 19
f 196 186 19
f 196 186 185
f 157 152 151
f 157 151 154
f 157 136 154
f 157 136 139
f 157 152 139
f 205 201 213
f 205 206 213
f 143 160 144
f 143 124 145
f 143 144 145
f 143 124 106
f 143 160 106
f 275 33 26
f 275 276 26
f 164 321 168
f 222 223 226
f 222 225 226
f 222 225 224
f 222 206 223
f 173 171 21
f 129 130 376
f 129 125 130
f 138 136 139
f 138 156 139
f 138 156 378
f 138 137 378
f 96 394 395
f 96 95 394
f 57 84 285
f 134 119 120
f 134 120 118
f 193 198 162
f 193 198 233
f 193 195 233
f 242 182 243
f 242 240 237
f 242 182 244
f 242 240 244
f 219 230 229
f 219 227 230
f 219 223 217
f 219 227 223
f 219 213 217
f 219 214 213
f 219 216 229
f 219 216 214
f 190 196 185
f 235 216 215
f 235 236 216
f 235 215 218
f 235 232 218
f 200 201 210
f 204 200 201
f 174 173 171
f 177 203 178
f 177 174 178
f 167 164 321
f 325 33 70
f 325 275 33
f 324 325 275
f 324 275 276
f 166 315 267
f 166 268 267
f 166 224 268
f 126 115 116
f 126 133 116
f 127 124 145
f 127 145 128
f 127 129 376
f 127 376 128
f 123 129 125
f 123 125 109
f 123 127 124
f 123 127 129
f 123 122 109
f 123 124 107
f 123 122 107
f 62 396 55
f 62 396 395
f 62 96 395
f 8 57 285
f 8 9 284
f 8 285 284
f 117 134 118
f 117 133 116
f 192 196 197
f 192 190 196
f 192 191 195
f 189 187 185
f 189 190 185
f 189 192 190
f 189 192 191
f 234 191 195
f 234 195 233
f 234 232 233
f 234 235 232
f 108 122 107
f 179 204 178
f 179 174 178
f 202 205 201
f 202 204 201
f 202 204 178
f 202 203 178
f 202 207 203
f 202 205 206
f 202 207 206
f 199 204 200
f 199 108 200
f 199 179 180
f 199 179 204
f 161 174 173
f 172 171 168
f 172 177 168
f 172 174 171
f 172 177 174
f 169 177 168
f 169 164 168
f 169 167 164
f 169 177 203
f 327 277 70
f 327 325 70
f 327 326 264
f 327 277 264
f 265 324 325
f 265 327 326
f 265 327 325
f 270 271 276
f 270 324 276
f 221 222 224
f 221 222 206
f 221 207 206
f 110 125 109
f 110 126 125
f 110 126 115
f 131 125 130
f 131 126 125
f 131 133 132
f 131 126 133
f 131 132 377
f 131 130 377
f 135 117 133
f 135 137 133
f 135 117 134
f 135 138 136
f 135 138 137
f 135 119 136
f 135 134 119
f 163 192 197
f 188 189 191
f 188 187 243
f 188 189 187
f 238 235 236
f 238 234 235
f 238 234 191
f 238 188 191
f 238 236 237
f 113 175 180
f 113 199 180
f 113 199 108
f 112 122 109
f 112 108 122
f 112 108 200
f 112 210 111
f 112 200 210
f 176 179 180
f 176 179 174
f 176 175 180
f 176 161 175
f 176 161 174
f 269 271 321
f 220 316 315
f 220 166 315
f 220 166 224
f 220 221 224
f 194 163 162
f 194 163 192
f 194 193 162
f 194 193 195
f 194 192 195
f 239 188 243
f 239 242 237
f 239 242 243
f 239 238 237
f 239 238 188
f 279 167 321
f 279 269 321
f 165 316 167
f 165 220 167
f 165 220 316
f 208 169 203
f 208 207 203
f 208 169 167
f 208 220 167
f 208 221 207
f 208 220 221
f 317 269 316
f 317 279 269
f 317 316 167
f 317 279 167
f 15 91 17
f 15 91 7
f 15 88 17
f 15 88 10
f 33 105 70
f 33 105 32
f 104 35 34
f 104 37 34
f 36 35 34
f 36 81 34
f 66 91 7
f 66 86 91
f 27 25 26
f 27 25 60
f 27 33 32
f 27 33 26
f 80 98 39
f 80 76 39
f 5 6 4
f 5 6 16
f 87 67 13
f 87 67 3
f 87 66 86
f 87 66 3
f 40 45 103
f 40 103 44
f 40 76 39
f 40 45 39
f 72 104 37
f 72 104 102
f 72 59 82
f 72 59 102
f 75 36 81
f 75 36 99
f 248 296 299
f 248 252 299
f 56 48 43
f 56 43 42
f 56 48 47
f 56 46 47
f 19 20 18
f 19 20 22
f 30 75 99
f 30 75 29
f 73 30 29
f 73 30 100
f 73 58 31
f 73 58 100
f 69 25 60
f 69 92 60
f 69 92 23
f 69 21 23
f 71 58 31
f 71 58 101
f 93 67 13
f 93 14 67
f 93 6 4
f 93 14 4
f 89 88 10
f 89 65 10
f 41 43 42
f 41 53 42
f 41 53 54
f 41 78 54
f 50 51 55
f 50 52 55
f 50 78 54
f 50 54 52
f 38 80 98
f 38 74 80
f 38 59 82
f 38 74 82
f 77 103 44
f 77 61 103
f 49 46 47
f 49 83 47
f 49 77 61
f 49 77 83
f 28 105 70
f 28 97 105
f 28 71 101
f 28 97 101
f 68 20 18
f 68 24 20
f 68 5 16
f 68 24 16
f 64 89 65
f 64 89 11
f 64 1 11
f 64 2 1
f 63 90 12
f 63 9 12
f 63 2 1
f 63 1 90
f 197 19 22
f 197 149 22
f 404 347 346
f 404 332 330
f 404 344 345
f 404 358 418
f 404 415 417
f 404 352 351
f 404 440 435
f 404 356 355
f 404 353 425
f 404 350 351
f 404 438 349
f 404 420 418
f 404 411 346
f 404 450 338
f 404 403 343
f 404 336 335
f 404 447 338
f 404 444 340
f 404 399 400
f 404 445 340
f 404 344 417
f 404 424 355
f 404 357 359
f 404 407 343
f 404 401 400
f 404 342 405
f 404 408 410
f 404 447 339
f 404 443 442
f 404 333 449
f 404 453 331
f 404 334 335
f 404 445 339
f 404 415 347
f 404 424 425
f 404 357 356
f 404 420 419
f 404 421 345
f 404 354 419
f 404 342 403
f 404 353 352
f 404 350 439
f 404 434 349
f 404 440 442
f 404 444 443
f 404 452 331
f 404 332 449
f 404 436 435
f 404 336 453
f 404 334 337
f 404 399 337
f 404 411 410
f 404 358 359
f 404 451 330
f 404 408 407
f 404 438 439
f 404 348 434
f 404 451 452
f 404 354 421
f 404 341 401
f 404 436 348
f 404 333 450
f 198 119 120
f 198 119 154
f 198 151 154
f 198 162 151
f 173 21 23
f 173 158 23
f 57 96 84
f 57 96 95
f 115 116 121
f 115 121 114
f 62 51 55
f 62 79 51
f 62 96 84
f 62 84 79
f 8 9 12
f 8 94 12
f 8 57 95
f 8 95 94
f 117 116 121
f 117 118 121
f 161 173 158
f 161 159 158
f 161 160 159
f 161 175 160
f 110 115 114
f 110 111 114
f 163 162 151
f 163 151 153
f 163 197 149
f 163 149 153
f 113 108 107
f 113 107 106
f 113 175 160
f 113 160 106
f 112 110 111
f 112 110 109
f 269 248 247
f 269 326 264
f 269 268 267
f 269 310 262
f 269 315 267
f 269 306 256
f 269 257 256
f 269 263 264
f 269 319 322
f 269 246 250
f 269 251 300
f 269 328 258
f 269 254 253
f 269 263 257
f 269 270 271
f 269 246 247
f 269 266 262
f 269 260 258
f 269 249 250
f 269 319 320
f 269 252 253
f 269 268 266
f 269 254 255
f 269 306 255
f 269 248 252
f 269 314 309
f 269 261 311
f 269 310 309
f 269 314 311
f 269 251 249
f 269 328 300
f 269 259 322
f 269 259 260
f 269 261 320
f 269 265 326
f 269 316 315
f 269 265 324
f 269 270 324
