v -0.012313 0.032072 0.022000
v -0.012499 0.032012 0.022000
v -0.012674 0.031924 0.022000
v -0.012499 0.031996 0.021676
v -0.012674 0.031908 0.021684
v -0.012313 0.032056 0.021670
v 0.011916 0.021051 0.000000
v 0.006640 0.026085 0.000000
v 0.003354 0.027708 0.000000
v -0.000191 0.028638 0.000000
v -0.007258 0.028297 0.000003
v -0.013495 0.025452 0.000003
v -0.016098 0.023198 0.000003
v -0.018227 0.020493 0.000003
v -0.019805 0.017433 0.000003
v -0.021103 0.010702 0.000003
v -0.023000 0.010702 0.002000
v -0.022857 0.010702 0.001259
v -0.022450 0.010702 0.000623
v -0.021836 0.010702 0.000183
v 0.000019 0.025253 0.202388
v -0.013371 0.021208 0.202487
v -0.011128 0.023049 0.202468
v -0.008558 0.024421 0.202447
v 0.002793 0.024410 0.202368
v 0.005365 0.023035 0.202348
v 0.009459 0.018947 0.202309
v 0.007610 0.021194 0.202329
v -0.021016 0.018164 0.186200
v -0.019214 0.021535 0.186200
v -0.016789 0.024490 0.186200
v -0.010462 0.028717 0.186200
v -0.003000 0.030202 0.186200
v 0.004462 0.028717 0.186200
v 0.010789 0.024490 0.186200
v 0.013214 0.021535 0.186200
v 0.015016 0.018164 0.186200
v -0.018000 0.010702 0.201875
v -0.017717 0.013600 0.201845
v -0.016858 0.016442 0.201812
v -0.015456 0.019059 0.201780
v -0.013607 0.021308 0.201750
v -0.011357 0.023158 0.201720
v 0.012000 0.010702 0.202250
v 0.009472 0.002368 0.202250
v -0.015456 0.002344 0.201970
v -0.016556 0.004280 0.201946
v -0.014848 0.018618 0.203700
v -0.013076 0.020778 0.203700
v -0.022500 0.010702 0.186200
v -0.022125 0.014506 0.186200
v -0.006804 0.029827 0.186200
v -0.013834 0.026915 0.186200
v 0.007834 0.026915 0.186200
v 0.016500 0.010702 0.186200
v 0.016125 0.014506 0.186200
v 0.000804 0.029827 0.186200
v 0.002750 0.010702 0.225478
v -0.008650 0.011769 0.225478
v -0.007500 0.010702 0.226200
v -0.006354 0.014065 0.226056
v -0.005195 0.015224 0.225895
v -0.004722 0.014859 0.226200
v -0.008750 0.010702 0.225478
v -0.001933 0.016352 0.225478
v -0.001278 0.014859 0.226200
v 0.001157 0.012424 0.226200
v 0.002650 0.011769 0.225478
v 0.000364 0.014055 0.226056
v -0.027985 -0.022329 0.116087
v 0.029000 0.016702 0.057200
v 0.029000 0.016702 0.100200
v 0.029000 -0.029298 0.100200
v 0.028000 0.017702 0.057200
v 0.028000 -0.030298 0.057200
v 0.028000 0.017702 0.100200
v 0.029000 -0.029298 0.057200
v 0.028000 -0.030298 0.100200
v -0.028000 -0.022298 0.119732
v -0.027276 -0.023746 0.118000
v -0.027985 -0.022329 0.119913
v -0.028000 -0.022298 0.116268
v -0.027324 -0.023650 0.118611
v -0.027324 -0.023650 0.117389
v -0.027473 -0.023353 0.116810
v -0.027473 -0.023353 0.119190
v -0.003000 0.015202 0.226200
v -0.006182 0.013884 0.226200
v -0.007157 0.012424 0.226200
v 0.000182 0.013884 0.226200
v 0.001500 0.010702 0.226200
v -0.004722 0.006544 0.226200
v -0.006182 0.007520 0.226200
v -0.001278 0.006544 0.226200
v 0.001519 0.008503 0.225897
v 0.001157 0.008980 0.226200
v 0.000182 0.007520 0.226200
v 0.000354 0.007338 0.226056
v 0.002650 0.009634 0.225478
v -0.008650 0.009634 0.225478
v -0.001933 0.005052 0.225478
v -0.003000 0.006202 0.226200
v -0.004067 0.005052 0.225478
v -0.007522 0.008506 0.225895
v -0.007157 0.008980 0.226200
v 0.001522 0.012897 0.225895
v -0.000801 0.015220 0.225897
v -0.000805 0.006179 0.225895
v -0.006364 0.007348 0.226056
v -0.005199 0.006183 0.225897
v -0.007519 0.012900 0.225897
v -0.004067 0.016352 0.225478
v -0.017359 0.006365 0.201921
v -0.017842 0.008529 0.201898
v -0.016580 0.016390 0.202527
v -0.002883 0.025543 0.202408
v 0.010840 0.016382 0.202289
v -0.005772 0.025263 0.202427
v -0.015219 0.018952 0.202507
v -0.017717 0.007803 0.201780
v 0.011696 0.013610 0.202269
v 0.015016 0.003239 0.186200
v 0.016125 0.006897 0.186200
v -0.021016 0.003239 0.186200
v -0.022125 0.006897 0.186200
v 0.011712 0.007775 0.202250
v 0.010858 0.004961 0.202250
v -0.003850 0.029900 0.000413
v -0.006218 0.033475 0.017732
v -0.009132 0.032869 0.017732
v -0.011943 0.031892 0.017732
v -0.020339 0.025813 0.018854
v -0.021314 0.024615 0.017732
v -0.025020 0.017345 0.017732
v -0.025953 0.009239 0.017732
v -0.003250 -0.034700 0.142500
v -0.003250 -0.034630 0.142868
v -0.003250 -0.034278 0.003791
v -0.003250 -0.032941 0.001757
v -0.003250 -0.030904 0.000421
v -0.003250 -0.028692 0.000000
v -0.003250 0.034700 0.048700
v -0.003250 0.034700 0.049700
v -0.003250 0.033700 0.017732
v -0.020000 -0.027814 0.000000
v -0.020000 0.004330 0.000000
v -0.003250 0.030700 0.002000
v -0.007116 0.030273 0.002000
v -0.010827 0.029107 0.002000
v -0.014241 0.027244 0.002000
v -0.017230 0.024755 0.002000
v -0.019681 0.021735 0.002000
v -0.021501 0.018297 0.002000
v -0.022622 0.014573 0.002000
v -0.007897 0.034197 0.049700
v -0.015846 0.030974 0.048700
v -0.012357 0.032802 0.049700
v -0.018524 0.029005 0.048700
v -0.020904 0.026684 0.048700
v -0.020059 0.027584 0.049700
v -0.016463 0.030570 0.049700
v -0.009808 0.033716 0.048700
v -0.006563 0.034436 0.048700
v -0.012922 0.032554 0.048700
v -0.022940 0.024057 0.048700
v -0.014604 0.030560 0.017732
v -0.023492 0.021146 0.017732
v -0.025849 0.013334 0.017732
v -0.019157 -0.033867 0.142500
v -0.003250 -0.034700 0.006000
v -0.019157 -0.033867 0.006000
v -0.003250 0.029900 0.000400
v -0.021703 -0.032171 0.142548
v -0.022482 0.014545 0.001259
v -0.022082 0.014466 0.000623
v -0.021370 0.018243 0.001259
v -0.020993 0.018089 0.000623
v -0.019562 0.021656 0.001259
v -0.017129 0.024655 0.001259
v -0.019223 0.021432 0.000623
v -0.016839 0.024369 0.000623
v -0.021480 0.014348 0.000183
v -0.020425 0.017856 0.000183
v -0.020776 0.014129 0.000003
v -0.018711 0.021093 0.000183
v -0.016402 0.023937 0.000183
v -0.014161 0.027126 0.001259
v -0.013932 0.026789 0.000623
v -0.010771 0.028975 0.001259
v -0.010611 0.028601 0.000623
v -0.013587 0.026281 0.000183
v -0.007087 0.030134 0.001259
v -0.007003 0.029735 0.000623
v -0.003250 0.030489 0.001105
v -0.010371 0.028036 0.000183
v -0.010513 0.027172 0.000003
v -0.006877 0.029135 0.000183
v -0.021119 -0.029757 0.000343
v -0.021587 -0.030699 0.000783
v -0.021913 -0.031590 0.001415
v -0.018555 0.027644 0.017732
v -0.019515 0.026709 0.018157
v -0.017439 0.028564 0.017703
v -0.015851 0.029728 0.017743
v -0.003250 -0.031980 0.000978
v -0.020007 -0.033697 0.004781
v -0.003250 -0.033721 0.002717
v -0.021467 -0.032578 0.002445
v -0.019977 -0.033707 0.142968
v -0.020754 -0.033305 0.143353
v -0.020798 -0.033272 0.003584
v 0.013614 -0.033843 0.109447
v 0.022256 -0.033176 0.101257
v 0.015148 -0.032965 0.142402
v 0.014500 -0.033469 0.142500
v 0.024000 -0.030452 0.003415
v 0.021157 -0.033447 0.101257
v 0.022219 -0.033193 0.005275
v 0.021157 -0.033447 0.006000
v 0.014462 -0.033403 0.142883
v 0.015212 -0.032833 0.142673
v 0.015673 -0.032189 0.142325
v 0.015662 -0.032073 0.142499
v 0.013153 -0.033791 0.142883
v 0.023765 -0.031614 0.003951
v 0.023439 -0.032126 0.003721
v 0.023132 -0.032562 0.004581
v 0.023031 -0.032424 0.003433
v 0.023442 -0.031508 0.002519
v 0.022527 -0.032592 0.003195
v 0.022458 -0.032994 0.004306
v 0.022121 -0.033066 0.004141
v 0.021784 -0.033058 0.003964
v 0.022766 -0.032855 0.004484
v 0.021986 -0.033281 0.005243
v 0.024000 -0.027395 0.002000
v 0.023863 -0.029385 0.001711
v 0.023422 -0.028560 0.000721
v 0.023414 -0.027395 0.000586
v 0.022768 -0.029855 0.000695
v 0.023430 -0.029667 0.001102
v 0.024000 -0.029079 0.002371
v 0.022753 -0.028656 0.000285
v 0.022044 -0.029919 0.000556
v 0.023436 -0.030665 0.001711
v 0.023855 -0.031021 0.002932
v 0.022782 -0.030937 0.001354
v 0.022820 -0.031843 0.002235
v 0.022064 -0.031045 0.001237
v 0.022080 -0.031976 0.002122
v -0.002750 -0.034630 0.142868
v 0.013157 -0.033867 0.142500
v -0.002750 -0.034700 0.006000
v -0.002750 -0.033721 0.002717
v -0.002750 -0.032941 0.001757
v -0.002750 -0.031980 0.000978
v 0.022022 -0.028672 0.000137
v 0.022000 -0.027395 0.000000
v -0.002750 0.030700 0.001994
v -0.001250 0.030487 0.001265
v -0.002750 0.030399 0.000938
v 0.001116 0.030273 0.001994
v 0.001398 0.030071 0.001265
v 0.003966 0.029302 0.001265
v 0.001311 0.029686 0.000636
v -0.001285 0.030094 0.000636
v 0.003828 0.028933 0.000636
v 0.006407 0.028195 0.001265
v 0.006220 0.027848 0.000636
v 0.003618 0.028374 0.000194
v 0.001179 0.029105 0.000194
v 0.004827 0.029107 0.001994
v 0.008241 0.027244 0.001994
v 0.008677 0.026769 0.001265
v 0.011230 0.024755 0.001994
v 0.012541 0.023071 0.001265
v 0.013681 0.021735 0.001994
v 0.008445 0.026450 0.000636
v 0.010461 0.024766 0.000636
v 0.010734 0.025051 0.001265
v 0.014065 0.020866 0.001265
v 0.012232 0.022825 0.000636
v 0.013726 0.020664 0.000636
v 0.005938 0.027322 0.000194
v -0.003850 0.029584 0.000208
v -0.002750 0.029584 0.000200
v -0.003850 0.028836 0.000000
v -0.001337 0.029500 0.000194
v 0.008094 0.025968 0.000194
v 0.010048 0.024335 0.000194
v 0.011765 0.022454 0.000194
v 0.013213 0.020359 0.000194
v 0.009533 0.023836 0.000000
v 0.015278 0.018476 0.001265
v 0.014915 0.018321 0.000636
v 0.014366 0.018088 0.000194
v 0.013690 0.017845 0.000000
v 0.023848 -0.027395 0.001235
v 0.024000 -0.005298 0.002000
v 0.022765 -0.027395 0.000152
v 0.006357 0.032802 0.049700
v 0.001897 0.034197 0.049700
v 0.003456 0.033777 0.049891
v 0.000382 0.034424 0.049891
v 0.010463 0.030570 0.049700
v 0.009221 0.031313 0.049891
v -0.002750 -0.030904 0.000421
v -0.002750 -0.034278 0.003791
v -0.002750 -0.034700 0.142500
v -0.002750 0.034700 0.048700
v -0.002750 0.034700 0.049700
v 0.010463 0.030570 0.048700
v 0.001897 0.034197 0.048700
v 0.009908 0.029738 0.017732
v 0.001701 0.033216 0.017732
v -0.002750 0.033700 0.017732
v 0.006357 0.032802 0.048700
v 0.016176 0.023402 0.017732
v 0.013352 0.026876 0.017732
v 0.005975 0.031878 0.017732
v 0.022000 -0.004144 0.000000
v 0.023414 -0.004960 0.000586
v 0.022736 -0.004569 0.000140
v 0.023860 -0.005217 0.001264
v -0.002750 -0.028692 0.000000
v -0.005133 0.034607 0.148700
v -0.009172 0.033895 0.148700
v -0.000867 0.034607 0.148700
v 0.007180 0.032435 0.148700
v 0.016636 0.024501 0.148700
v 0.010732 0.030385 0.148700
v 0.014000 0.027643 0.148700
v -0.028008 0.016990 0.146913
v 0.023000 0.006994 0.146437
v 0.010732 0.030385 0.051066
v 0.007180 0.032435 0.051066
v -0.000867 0.034607 0.051066
v -0.005133 0.034607 0.051066
v -0.009172 0.033895 0.051066
v -0.013180 0.032435 0.051066
v -0.016732 0.030385 0.051066
v -0.022636 0.024501 0.051066
v -0.029000 0.010713 0.054530
v -0.029000 0.006994 0.054986
v -0.029000 0.006994 0.146437
v -0.029000 0.014410 0.054986
v -0.028008 0.016990 0.054161
v -0.027877 0.017177 0.054022
v -0.022636 0.024501 0.148700
v -0.020000 0.027643 0.148700
v -0.020000 0.027643 0.051066
v -0.016732 0.030385 0.148700
v -0.013180 0.032435 0.148700
v 0.003172 0.033895 0.148700
v 0.003172 0.033895 0.051066
v 0.022008 0.016990 0.146913
v 0.023000 0.014410 0.146437
v -0.029000 0.010702 0.146700
v -0.029000 0.014410 0.146437
v 0.023000 0.010719 0.146700
f 251 224 101
f 220 224 101
f 102 103 101
f 29 333 30
f 29 40 30
f 359 29 333
f 359 29 51
f 135 344 200
f 135 17 200
f 46 100 47
f 173 125 124
f 221 73 222
f 92 102 103
f 55 73 334
f 55 123 73
f 127 221 222
f 206 171 170
f 39 38 51
f 39 59 40
f 39 29 51
f 39 29 40
f 39 59 38
f 33 328 326
f 113 125 124
f 113 100 47
f 113 114 100
f 113 173 124
f 113 173 47
f 50 359 51
f 50 125 345
f 50 38 51
f 50 125 114
f 50 38 114
f 353 327 32
f 353 53 32
f 353 53 352
f 23 42 22
f 23 53 32
f 23 24 32
f 31 53 352
f 31 42 53
f 18 17 200
f 168 346 134
f 168 346 135
f 168 135 17
f 168 18 17
f 343 135 344
f 343 346 135
f 214 221 73
f 214 221 220
f 78 214 73
f 252 220 224
f 252 251 224
f 252 309 251
f 94 102 101
f 98 221 220
f 115 59 40
f 64 59 38
f 64 114 100
f 64 38 114
f 64 100 60
f 64 59 60
f 35 332 331
f 35 330 36
f 35 332 330
f 122 123 73
f 126 55 123
f 126 122 123
f 126 122 127
f 20 198 145
f 72 330 36
f 72 332 330
f 299 324 71
f 41 42 22
f 41 40 30
f 41 31 30
f 41 31 42
f 294 281 71
f 294 324 71
f 74 314 312
f 74 335 312
f 319 314 274
f 319 74 71
f 319 74 314
f 163 327 326
f 163 142 129
f 306 329 331
f 306 314 312
f 306 320 314
f 354 329 34
f 52 24 32
f 52 327 32
f 52 327 326
f 52 33 326
f 120 125 114
f 120 113 114
f 120 113 125
f 358 50 345
f 358 50 359
f 43 42 53
f 43 23 53
f 43 23 42
f 199 18 200
f 199 198 140
f 174 176 134
f 174 176 175
f 174 18 175
f 174 168 18
f 156 353 352
f 81 125 345
f 81 79 345
f 81 173 125
f 70 208 200
f 137 169 136
f 110 92 103
f 105 100 60
f 105 104 100
f 215 78 213
f 215 252 220
f 215 252 213
f 215 214 220
f 215 78 214
f 217 252 213
f 108 94 97
f 108 98 97
f 108 94 101
f 108 220 101
f 108 98 220
f 95 98 221
f 95 96 97
f 95 98 97
f 117 27 36
f 117 68 27
f 223 127 222
f 223 122 127
f 223 73 222
f 223 122 73
f 44 126 55
f 44 68 58
f 322 298 324
f 322 294 324
f 236 298 324
f 236 299 324
f 19 18 175
f 19 20 175
f 19 199 18
f 19 20 198
f 19 199 198
f 138 211 206
f 138 206 170
f 210 211 206
f 210 208 173
f 210 211 208
f 210 110 103
f 210 110 109
f 210 104 109
f 210 104 100
f 210 46 100
f 210 46 47
f 210 173 47
f 230 233 254
f 230 250 254
f 249 256 244
f 255 250 254
f 255 249 256
f 255 249 250
f 360 72 73
f 360 73 334
f 360 55 334
f 37 117 36
f 75 227 77
f 75 78 213
f 218 75 213
f 119 41 22
f 119 115 59
f 119 115 40
f 119 41 40
f 189 130 192
f 189 193 192
f 148 129 192
f 148 130 192
f 148 130 129
f 260 316 315
f 260 316 259
f 147 129 192
f 264 263 315
f 264 320 315
f 268 320 314
f 76 332 331
f 76 72 332
f 318 281 71
f 318 319 71
f 338 163 326
f 338 163 142
f 155 327 339
f 155 163 327
f 155 130 129
f 155 163 129
f 305 306 331
f 305 306 312
f 57 354 34
f 57 33 328
f 57 354 328
f 57 33 116
f 112 23 24
f 54 26 35
f 54 35 331
f 54 329 331
f 54 329 34
f 28 26 35
f 28 27 36
f 28 35 36
f 28 26 107
f 28 69 107
f 118 33 116
f 118 52 33
f 118 112 116
f 118 52 24
f 118 112 24
f 25 54 34
f 25 54 26
f 205 199 140
f 205 199 200
f 154 168 134
f 154 174 134
f 154 174 168
f 153 176 134
f 341 158 352
f 347 346 134
f 349 333 30
f 349 31 30
f 82 344 200
f 82 70 200
f 209 137 103
f 209 137 169
f 209 210 103
f 209 210 206
f 209 169 171
f 209 206 171
f 93 110 92
f 93 110 109
f 93 104 109
f 93 105 104
f 45 127 221
f 99 95 96
f 99 126 127
f 99 45 127
f 99 44 58
f 99 44 126
f 99 95 221
f 99 45 221
f 49 61 22
f 49 111 61
f 49 119 22
f 89 59 60
f 89 111 59
f 177 176 175
f 180 177 176
f 146 15 14
f 195 196 191
f 195 196 11
f 237 236 298
f 300 257 258
f 307 257 244
f 307 256 244
f 243 257 244
f 243 300 257
f 325 257 258
f 325 307 257
f 207 138 211
f 207 211 208
f 308 253 233
f 308 233 254
f 212 253 309
f 212 252 309
f 212 217 252
f 212 217 219
f 212 253 219
f 226 77 225
f 226 227 77
f 248 230 250
f 121 37 117
f 121 117 68
f 121 44 68
f 235 253 219
f 235 253 233
f 235 217 219
f 235 217 213
f 235 218 213
f 231 235 218
f 149 189 130
f 262 263 315
f 262 260 315
f 262 260 263
f 194 147 192
f 194 260 259
f 194 147 259
f 194 193 192
f 194 128 193
f 144 316 259
f 144 147 259
f 144 147 129
f 144 142 129
f 323 300 322
f 323 297 321
f 323 258 321
f 323 300 258
f 273 314 274
f 273 268 274
f 273 268 314
f 272 264 320
f 272 268 320
f 272 268 264
f 269 268 274
f 269 268 264
f 277 318 281
f 276 275 319
f 276 318 319
f 276 277 318
f 276 282 281
f 276 277 281
f 317 306 320
f 65 112 116
f 65 87 112
f 65 26 107
f 65 25 26
f 65 87 66
f 65 66 107
f 62 23 22
f 62 112 23
f 62 61 22
f 106 28 69
f 106 67 68
f 106 68 27
f 106 28 27
f 21 65 25
f 21 65 116
f 21 57 116
f 21 57 34
f 21 25 34
f 161 341 158
f 161 203 158
f 161 156 352
f 161 341 352
f 340 156 353
f 340 164 353
f 340 164 156
f 162 327 339
f 162 155 339
f 162 155 130
f 348 347 333
f 348 349 333
f 348 133 347
f 350 158 352
f 350 31 352
f 350 349 31
f 80 208 173
f 48 49 111
f 48 49 119
f 48 111 59
f 48 119 59
f 88 111 61
f 88 89 111
f 88 62 61
f 90 66 107
f 90 69 107
f 90 106 69
f 90 106 67
f 91 99 58
f 91 99 96
f 91 68 58
f 91 67 68
f 182 20 175
f 182 177 175
f 183 15 14
f 183 182 15
f 183 182 177
f 185 14 13
f 185 183 14
f 185 180 177
f 185 183 177
f 181 180 179
f 178 180 179
f 178 133 179
f 178 133 152
f 178 180 176
f 287 14 13
f 287 146 14
f 287 196 11
f 16 146 145
f 16 20 145
f 190 195 191
f 190 187 189
f 190 189 193
f 190 195 193
f 197 195 11
f 197 287 11
f 197 287 285
f 197 195 193
f 197 128 193
f 197 128 285
f 242 236 77
f 242 237 236
f 238 243 300
f 238 237 298
f 238 237 241
f 141 198 145
f 141 198 140
f 139 207 208
f 139 208 200
f 139 205 200
f 247 249 250
f 247 248 250
f 246 226 225
f 246 77 225
f 229 246 226
f 357 360 55
f 357 360 72
f 234 231 218
f 234 75 227
f 234 218 75
f 232 230 233
f 232 231 230
f 232 235 233
f 232 231 235
f 201 187 179
f 201 187 203
f 201 203 158
f 167 153 134
f 167 347 134
f 167 133 347
f 167 133 152
f 167 153 176
f 167 178 176
f 167 178 152
f 150 187 203
f 288 287 10
f 261 194 128
f 261 266 260
f 261 194 260
f 292 297 7
f 292 291 7
f 292 282 291
f 296 323 297
f 296 292 297
f 278 269 274
f 280 276 275
f 280 319 274
f 280 275 319
f 280 276 282
f 303 317 320
f 303 317 355
f 303 320 315
f 303 313 315
f 303 313 355
f 336 306 329
f 336 317 306
f 301 354 329
f 337 316 310
f 337 316 315
f 302 354 328
f 63 87 112
f 63 62 112
f 63 88 62
f 157 164 353
f 157 353 327
f 157 162 327
f 131 149 130
f 342 348 349
f 85 82 70
f 85 70 208
f 86 81 173
f 86 81 79
f 188 181 191
f 188 190 191
f 188 190 187
f 188 187 179
f 188 181 179
f 186 185 13
f 186 181 191
f 186 185 180
f 186 181 180
f 12 287 13
f 12 287 196
f 12 196 191
f 12 186 13
f 12 186 191
f 184 146 15
f 184 16 146
f 184 182 15
f 184 182 20
f 184 16 20
f 239 322 298
f 239 238 298
f 239 300 322
f 239 238 300
f 240 249 244
f 240 247 249
f 240 243 244
f 240 247 241
f 240 238 241
f 240 238 243
f 216 242 77
f 216 246 77
f 216 242 237
f 216 246 237
f 245 247 248
f 245 229 248
f 245 247 241
f 245 229 246
f 245 237 241
f 245 246 237
f 356 357 37
f 356 37 36
f 356 357 72
f 356 72 36
f 56 357 55
f 56 357 37
f 56 121 37
f 56 44 55
f 56 121 44
f 228 226 227
f 228 234 227
f 228 229 226
f 228 231 230
f 228 234 231
f 228 248 230
f 228 229 248
f 151 133 179
f 151 201 179
f 160 201 158
f 293 291 7
f 286 287 285
f 286 288 287
f 283 282 281
f 283 292 282
f 295 296 323
f 295 323 322
f 295 322 294
f 295 296 292
f 295 283 292
f 295 294 281
f 295 283 281
f 284 278 269
f 284 270 269
f 279 278 274
f 279 280 274
f 279 280 282
f 304 337 328
f 304 302 313
f 304 302 328
f 304 313 315
f 304 337 315
f 166 131 149
f 166 149 189
f 166 187 189
f 166 150 187
f 165 348 133
f 165 342 348
f 83 80 173
f 83 86 173
f 83 86 79
f 202 151 133
f 202 151 201
f 202 160 201
f 351 350 158
f 351 160 158
f 351 160 350
f 9 284 8
f 9 284 270
f 271 288 10
f 271 9 10
f 271 9 270
f 271 288 266
f 172 128 285
f 172 286 285
f 172 261 128
f 172 261 266
f 172 288 266
f 172 286 288
f 290 279 278
f 290 293 291
f 290 282 291
f 290 279 282
f 204 166 156
f 204 161 156
f 204 161 203
f 204 150 203
f 204 166 150
f 2 157 162
f 2 157 164
f 159 165 342
f 159 342 349
f 159 165 133
f 159 350 349
f 159 160 350
f 159 202 160
f 84 83 80
f 84 80 208
f 84 85 208
f 84 85 82
f 265 271 266
f 265 260 263
f 265 266 260
f 265 271 270
f 265 264 263
f 289 284 278
f 289 290 278
f 289 284 8
f 289 293 8
f 289 290 293
f 3 166 156
f 3 5 166
f 3 164 156
f 3 2 164
f 1 162 130
f 1 2 162
f 1 6 130
f 1 2 6
f 4 2 6
f 4 131 130
f 4 6 130
f 4 166 131
f 4 5 166
f 4 3 5
f 4 3 2
f 132 202 133
f 132 159 133
f 132 159 202
f 267 269 264
f 267 265 264
f 267 270 269
f 267 265 270
f 169 171 170
f 169 170 136
f 253 170 136
f 253 309 136
f 72 77 73
f 72 77 71
f 358 346 359
f 358 344 345
f 358 343 344
f 358 343 346
f 137 309 136
f 137 309 251
f 137 103 101
f 137 251 101
f 236 77 71
f 236 299 71
f 75 77 73
f 75 78 73
f 76 74 335
f 76 335 331
f 76 72 71
f 76 74 71
f 338 143 142
f 338 143 326
f 311 143 326
f 311 328 326
f 311 143 142
f 311 310 142
f 305 335 331
f 305 335 312
f 347 346 359
f 347 359 333
f 82 344 345
f 82 79 345
f 307 205 256
f 307 205 140
f 308 253 170
f 308 138 170
f 308 207 254
f 308 207 138
f 144 310 142
f 144 316 310
f 141 307 140
f 141 325 307
f 139 207 254
f 139 255 254
f 139 205 256
f 139 255 256
f 301 336 317
f 301 336 329
f 301 355 354
f 301 317 355
f 337 311 328
f 337 311 310
f 302 355 354
f 302 313 355
f 63 105 60
f 63 94 102
f 63 92 102
f 63 94 97
f 63 96 97
f 63 93 92
f 63 89 60
f 63 93 105
f 63 90 66
f 63 88 89
f 63 87 66
f 63 91 96
f 63 90 67
f 63 91 67
f 9 297 321
f 9 141 145
f 9 146 145
f 9 258 321
f 9 287 146
f 9 325 258
f 9 297 7
f 9 287 10
f 9 141 325
f 9 293 7
f 9 293 8
f 84 82 79
f 84 83 79
